<svg width="199" height="72" viewBox="0 0 199 72" fill="none" xmlns="http://www.w3.org/2000/svg">
<path d="M74.684 46.664H85.436V53H66.476V19.304H74.684V46.664ZM105.287 53.336C102.119 53.336 99.207 52.6 96.551 51.128C93.927 49.656 91.831 47.608 90.263 44.984C88.727 42.328 87.959 39.352 87.959 36.056C87.959 32.76 88.727 29.8 90.263 27.176C91.831 24.552 93.927 22.504 96.551 21.032C99.207 19.56 102.119 18.824 105.287 18.824C108.455 18.824 111.351 19.56 113.975 21.032C116.631 22.504 118.711 24.552 120.215 27.176C121.751 29.8 122.519 32.76 122.519 36.056C122.519 39.352 121.751 42.328 120.215 44.984C118.679 47.608 116.599 49.656 113.975 51.128C111.351 52.6 108.455 53.336 105.287 53.336ZM105.287 45.848C107.975 45.848 110.119 44.952 111.719 43.16C113.351 41.368 114.167 39 114.167 36.056C114.167 33.08 113.351 30.712 111.719 28.952C110.119 27.16 107.975 26.264 105.287 26.264C102.567 26.264 100.391 27.144 98.759 28.904C97.159 30.664 96.359 33.048 96.359 36.056C96.359 39.032 97.159 41.416 98.759 43.208C100.391 44.968 102.567 45.848 105.287 45.848ZM149.453 29.96C148.845 28.84 147.965 27.992 146.813 27.416C145.693 26.808 144.365 26.504 142.829 26.504C140.173 26.504 138.045 27.384 136.445 29.144C134.845 30.872 134.045 33.192 134.045 36.104C134.045 39.208 134.877 41.64 136.541 43.4C138.237 45.128 140.557 45.992 143.501 45.992C145.517 45.992 147.213 45.48 148.589 44.456C149.997 43.432 151.021 41.96 151.661 40.04H141.245V33.992H159.101V41.624C158.493 43.672 157.453 45.576 155.981 47.336C154.541 49.096 152.701 50.52 150.461 51.608C148.221 52.696 145.693 53.24 142.877 53.24C139.549 53.24 136.573 52.52 133.949 51.08C131.357 49.608 129.325 47.576 127.853 44.984C126.413 42.392 125.693 39.432 125.693 36.104C125.693 32.776 126.413 29.816 127.853 27.224C129.325 24.6 131.357 22.568 133.949 21.128C136.541 19.656 139.501 18.92 142.829 18.92C146.861 18.92 150.253 19.896 153.005 21.848C155.789 23.8 157.629 26.504 158.525 29.96H149.453ZM179.584 53.336C176.416 53.336 173.504 52.6 170.848 51.128C168.224 49.656 166.128 47.608 164.56 44.984C163.024 42.328 162.256 39.352 162.256 36.056C162.256 32.76 163.024 29.8 164.56 27.176C166.128 24.552 168.224 22.504 170.848 21.032C173.504 19.56 176.416 18.824 179.584 18.824C182.752 18.824 185.648 19.56 188.272 21.032C190.928 22.504 193.008 24.552 194.512 27.176C196.048 29.8 196.816 32.76 196.816 36.056C196.816 39.352 196.048 42.328 194.512 44.984C192.976 47.608 190.896 49.656 188.272 51.128C185.648 52.6 182.752 53.336 179.584 53.336ZM179.584 45.848C182.272 45.848 184.416 44.952 186.016 43.16C187.648 41.368 188.464 39 188.464 36.056C188.464 33.08 187.648 30.712 186.016 28.952C184.416 27.16 182.272 26.264 179.584 26.264C176.864 26.264 174.688 27.144 173.056 28.904C171.456 30.664 170.656 33.048 170.656 36.056C170.656 39.032 171.456 41.416 173.056 43.208C174.688 44.968 176.864 45.848 179.584 45.848Z" fill="#F2F2F2"/>
<path d="M46.7369 53.6842C46.7369 56.4745 44.4746 58.7368 41.6842 58.7368H6.31581C3.5255 58.7368 1.26318 56.4745 1.26318 53.6842V18.3158C1.26318 15.5255 3.5255 13.2632 6.31581 13.2632H41.6842C44.4746 13.2632 46.7369 15.5255 46.7369 18.3158V53.6842Z" fill="#2F80ED"/>
<path d="M21.0645 27.4143H16.795C14.9154 27.4143 14.1323 26.0438 14.1323 24.7124C14.1323 23.3406 15.1112 22.0093 16.795 22.0093H31.2089C32.8914 22.0093 33.8704 23.3406 33.8704 24.7124C33.8704 26.0438 33.0885 27.4143 31.2089 27.4143H26.9382V47.0754C26.9382 49.0345 25.6851 50.1297 24.0013 50.1297C22.3175 50.1297 21.0645 49.0345 21.0645 47.0754V27.4143Z" fill="#2F3448"/>
</svg>
