<svg xmlns="http://www.w3.org/2000/svg" xmlns:xlink="http://www.w3.org/1999/xlink" viewBox="0 0 637.52 370.59"><defs><style>.cls-1{isolation:isolate;}.cls-2{fill:#60a5ff;}.cls-3{fill:#88c1ff;}.cls-17,.cls-3{mix-blend-mode:multiply;}.cls-4{fill:#86c2ef;}.cls-5{fill:url(#Degradado_sin_nombre_64);}.cls-6{fill:url(#Degradado_sin_nombre_64-2);}.cls-7{fill:url(#Degradado_sin_nombre_64-3);}.cls-8{fill:url(#Degradado_sin_nombre_64-4);}.cls-9{fill:url(#Degradado_sin_nombre_64-5);}.cls-10{fill:url(#Degradado_sin_nombre_64-6);}.cls-11{fill:#a4d3ff;}.cls-12{fill:#364971;}.cls-13{fill:url(#Degradado_sin_nombre_69);}.cls-14{fill:url(#Degradado_sin_nombre_23);}.cls-15{fill:#152133;}.cls-16,.cls-20{fill:#ff9a15;}.cls-17,.cls-58{fill:#f47b0f;}.cls-17{opacity:0.3;}.cls-18{fill:url(#Degradado_sin_nombre_44);}.cls-19{fill:#fdc652;}.cls-20{opacity:0.2;}.cls-21{fill:url(#Degradado_sin_nombre_44-2);}.cls-22{fill:#d6eaff;}.cls-23{fill:url(#Degradado_sin_nombre_4);}.cls-24{fill:url(#Degradado_sin_nombre_44-3);}.cls-25{fill:url(#Degradado_sin_nombre_4-2);}.cls-26{fill:#9ac3f4;}.cls-27{fill:url(#Degradado_sin_nombre_40);}.cls-28{fill:#fcdb54;}.cls-29{fill:#b3d3ff;}.cls-30{fill:#213047;}.cls-31{fill:url(#Degradado_sin_nombre_4-3);}.cls-32{fill:#eefcff;}.cls-33{fill:#e0fbff;}.cls-34{fill:#d6faff;}.cls-35{fill:#f8f8ff;}.cls-36{fill:url(#Degradado_sin_nombre_4-4);}.cls-37{fill:#f25e80;}.cls-38,.cls-39,.cls-53{fill:none;}.cls-38,.cls-39{stroke:#213047;}.cls-38,.cls-53{stroke-miterlimit:10;}.cls-39,.cls-53{stroke-linecap:round;}.cls-39{stroke-linejoin:round;}.cls-40{fill:url(#Degradado_sin_nombre_23-2);}.cls-41{fill:#f55e81;}.cls-42{fill:#2ed3ef;}.cls-43{font-size:36px;font-family:Metropolis-Bold, Metropolis Bold;letter-spacing:0.2em;}.cls-43,.cls-59{fill:#fcfcf0;}.cls-43,.cls-65{font-weight:700;}.cls-44{fill:url(#Degradado_sin_nombre_69-2);}.cls-45{fill:#031d47;}.cls-46{fill:#062b86;}.cls-47{fill:#042360;}.cls-48{fill:#ffc871;}.cls-49{fill:#0771e9;}.cls-50{fill:#0faeff;}.cls-51{fill:#11cbfe;}.cls-52{fill:url(#Degradado_sin_nombre_69-3);}.cls-53{stroke:#062b86;}.cls-54{fill:url(#Degradado_sin_nombre_69-4);}.cls-55{fill:#1b80da;}.cls-56{fill:url(#Degradado_sin_nombre_69-5);}.cls-57{fill:url(#Degradado_sin_nombre_69-6);}.cls-60{fill:url(#Degradado_sin_nombre_69-7);}.cls-61{fill:url(#Degradado_sin_nombre_69-8);}.cls-62{fill:url(#Degradado_sin_nombre_4-5);}.cls-63{fill:url(#Degradado_sin_nombre_4-6);}.cls-64{fill:#fcbe22;}.cls-65{font-size:21.75px;font-family:MicrosoftTaiLe-Bold, Microsoft Tai Le;}.cls-65,.cls-67{fill:#000540;}.cls-66{fill:#fff;}.cls-67{font-size:9.36px;font-family:Roboto-Black, Roboto;font-weight:800;}.cls-68{letter-spacing:-0.01em;}.cls-69{letter-spacing:0em;}</style><linearGradient id="Degradado_sin_nombre_64" x1="439.66" y1="51.95" x2="443.71" y2="58.02" gradientUnits="userSpaceOnUse"><stop offset="0" stop-color="#5284c4"/><stop offset="1" stop-color="#86c2ef" stop-opacity="0"/></linearGradient><linearGradient id="Degradado_sin_nombre_64-2" x1="451.4" y1="71.67" x2="447.27" y2="64.77" xlink:href="#Degradado_sin_nombre_64"/><linearGradient id="Degradado_sin_nombre_64-3" x1="372.44" y1="59.35" x2="389.44" y2="56.52" xlink:href="#Degradado_sin_nombre_64"/><linearGradient id="Degradado_sin_nombre_64-4" x1="437.17" y1="45.8" x2="421.39" y2="49.44" xlink:href="#Degradado_sin_nombre_64"/><linearGradient id="Degradado_sin_nombre_64-5" x1="374.19" y1="62.3" x2="360.65" y2="78.91" xlink:href="#Degradado_sin_nombre_64"/><linearGradient id="Degradado_sin_nombre_64-6" x1="272.24" y1="187.13" x2="283.71" y2="170.63" xlink:href="#Degradado_sin_nombre_64"/><linearGradient id="Degradado_sin_nombre_69" x1="256.7" y1="240.76" x2="253.55" y2="259.4" gradientUnits="userSpaceOnUse"><stop offset="0" stop-color="#fff" stop-opacity="0"/><stop offset="1" stop-color="#bbe2ff"/></linearGradient><linearGradient id="Degradado_sin_nombre_23" x1="249.06" y1="240.29" x2="249.06" y2="246.18" gradientUnits="userSpaceOnUse"><stop offset="0" stop-color="#152133"/><stop offset="1" stop-color="#213047"/></linearGradient><linearGradient id="Degradado_sin_nombre_44" x1="244.14" y1="191.85" x2="316.93" y2="191.85" gradientUnits="userSpaceOnUse"><stop offset="0" stop-color="#213047"/><stop offset="0.31" stop-color="#2a3b59"/><stop offset="0.71" stop-color="#33456b"/><stop offset="1" stop-color="#364971"/></linearGradient><linearGradient id="Degradado_sin_nombre_44-2" x1="244.47" y1="214.37" x2="273.59" y2="214.37" xlink:href="#Degradado_sin_nombre_44"/><linearGradient id="Degradado_sin_nombre_4" x1="194.04" y1="229.69" x2="194.04" y2="225.2" gradientUnits="userSpaceOnUse"><stop offset="0" stop-color="#b3d3ff"/><stop offset="1" stop-color="#d6eaff"/></linearGradient><linearGradient id="Degradado_sin_nombre_44-3" x1="256.05" y1="229.89" x2="256.05" y2="237.88" xlink:href="#Degradado_sin_nombre_44"/><linearGradient id="Degradado_sin_nombre_4-2" x1="248.24" y1="212.03" x2="248.24" y2="200.24" xlink:href="#Degradado_sin_nombre_4"/><linearGradient id="Degradado_sin_nombre_40" x1="248.24" y1="174.58" x2="248.24" y2="171.07" gradientUnits="userSpaceOnUse"><stop offset="0" stop-color="#84a3db"/><stop offset="0.36" stop-color="#9cbbed"/><stop offset="0.73" stop-color="#adcdfa"/><stop offset="1" stop-color="#b3d3ff"/></linearGradient><linearGradient id="Degradado_sin_nombre_4-3" x1="255.03" y1="212.03" x2="255.03" y2="202.77" xlink:href="#Degradado_sin_nombre_4"/><linearGradient id="Degradado_sin_nombre_4-4" x1="395.31" y1="236.98" x2="395.31" y2="242.35" xlink:href="#Degradado_sin_nombre_4"/><linearGradient id="Degradado_sin_nombre_23-2" x1="452" y1="133.42" x2="452" y2="140.57" xlink:href="#Degradado_sin_nombre_23"/><linearGradient id="Degradado_sin_nombre_69-2" x1="459.42" y1="273.86" x2="433.11" y2="286.26" xlink:href="#Degradado_sin_nombre_69"/><linearGradient id="Degradado_sin_nombre_69-3" x1="580.27" y1="253.19" x2="593.22" y2="270.21" xlink:href="#Degradado_sin_nombre_69"/><linearGradient id="Degradado_sin_nombre_69-4" x1="533.14" y1="329.44" x2="543.19" y2="342.66" xlink:href="#Degradado_sin_nombre_69"/><linearGradient id="Degradado_sin_nombre_69-5" x1="283.48" y1="328.28" x2="257.42" y2="340.57" xlink:href="#Degradado_sin_nombre_69"/><linearGradient id="Degradado_sin_nombre_69-6" x1="492.54" y1="308.84" x2="474.92" y2="319.2" xlink:href="#Degradado_sin_nombre_69"/><linearGradient id="Degradado_sin_nombre_69-7" x1="520.76" y1="257.55" x2="503.15" y2="267.9" xlink:href="#Degradado_sin_nombre_69"/><linearGradient id="Degradado_sin_nombre_69-8" x1="373.42" y1="329.73" x2="373.42" y2="344.53" xlink:href="#Degradado_sin_nombre_69"/><linearGradient id="Degradado_sin_nombre_4-5" x1="394.45" y1="310.08" x2="394.45" y2="312.71" xlink:href="#Degradado_sin_nombre_4"/><linearGradient id="Degradado_sin_nombre_4-6" x1="337.48" y1="310.08" x2="337.48" y2="312.71" xlink:href="#Degradado_sin_nombre_4"/></defs><g class="cls-1"><g id="Layer_2" data-name="Layer 2"><g id="Objects"><path class="cls-2" d="M0,0V345.68S10,312,43.44,303.26c22.77-6,40.24-1.82,61.61,1.65,26.73,4.34,56.39-9,59.16-36.35,2.92-28.78-6.28-41.22-3.14-78,2.08-24.37,22-50.13,55.51-52.1,31-1.82,42.88-15,52.89-39.79,10.11-25-.17-56,22.39-71.47C315.19,11.16,337,28.85,354,0Z"/><path class="cls-3" d="M0,177.69c7.06,55.46,33.08,122.53,92.15,155.2,53.46,29.56,145.63,37.7,145.63,37.7H0Z"/><path class="cls-3" d="M637.52,171.59c-5.24-41.13-11.39-81.24-49.09-120.93C543.65,3.52,489.36,0,489.36,0H637.52Z"/><path class="cls-4" d="M454.56,70.63,441.85,48.92c0-.17,0-.33.07-.47a.51.51,0,0,0-.43-.57.51.51,0,0,1-.49,0,.49.49,0,0,0-.43.18l-4.31,5.22a.51.51,0,0,0,0,.6L449.7,74.12h0a.68.68,0,0,0,.12.12s0,0,0,0l.13,0,.06,0h.09a.51.51,0,0,0,.27-.09s0,0,0,0l4-3A.49.49,0,0,0,454.56,70.63Zm-4.72,1.89-4.08-6.13,5,.67ZM440.77,58.9c.9.09,2.52.24,5.52.5l-1.56,5.44Zm4.85,6.46L447.16,60,450.72,66Zm.62-7-5.67-.5c.18-1.29.68-4.78,1.05-7.38Zm-5.47-9c-.63,4.38-.95,6.65-1.11,7.84l-2.39-3.6ZM450.82,72.7l.87-5,1.78,3Z"/><path class="cls-5" d="M454.56,70.63,441.85,48.92c0-.17,0-.33.07-.47a.51.51,0,0,0-.43-.57.51.51,0,0,1-.49,0,.49.49,0,0,0-.43.18l-4.31,5.22a.51.51,0,0,0,0,.6L449.7,74.12h0a.68.68,0,0,0,.12.12s0,0,0,0l.13,0,.06,0h.09a.51.51,0,0,0,.27-.09s0,0,0,0l4-3A.49.49,0,0,0,454.56,70.63Zm-4.72,1.89-4.08-6.13,5,.67ZM440.77,58.9c.9.09,2.52.24,5.52.5l-1.56,5.44Zm4.85,6.46L447.16,60,450.72,66Zm.62-7-5.67-.5c.18-1.29.68-4.78,1.05-7.38Zm-5.47-9c-.63,4.38-.95,6.65-1.11,7.84l-2.39-3.6ZM450.82,72.7l.87-5,1.78,3Z"/><path class="cls-6" d="M454.56,70.63,441.85,48.92c0-.17,0-.33.07-.47a.51.51,0,0,0-.43-.57.51.51,0,0,1-.49,0,.49.49,0,0,0-.43.18l-4.31,5.22a.51.51,0,0,0,0,.6L449.7,74.12h0a.68.68,0,0,0,.12.12s0,0,0,0l.13,0,.06,0h.09a.51.51,0,0,0,.27-.09s0,0,0,0l4-3A.49.49,0,0,0,454.56,70.63Zm-4.72,1.89-4.08-6.13,5,.67ZM440.77,58.9c.9.09,2.52.24,5.52.5l-1.56,5.44Zm4.85,6.46L447.16,60,450.72,66Zm.62-7-5.67-.5c.18-1.29.68-4.78,1.05-7.38Zm-5.47-9c-.63,4.38-.95,6.65-1.11,7.84l-2.39-3.6ZM450.82,72.7l.87-5,1.78,3Z"/><path class="cls-4" d="M438.39,46.36a.73.73,0,0,0-.58-.2L370.6,52.27a.75.75,0,0,0-.53.29.77.77,0,0,0-.14.59l2.28,12.76a.72.72,0,0,0,.31.48.76.76,0,0,0,.43.14h.13l.32-.06a.82.82,0,0,0,.31.07.74.74,0,0,0,.49-.22l62.61-11.67a.76.76,0,0,0,.81-.15l.09,0a.77.77,0,0,0,.62-.71l.29-6.82A.74.74,0,0,0,438.39,46.36Zm-1.52,6.28-4.4-4.49,4.62-.42Zm-49.13,9.62-12.6,2.35L380.48,54Zm-6.29-9.47,12.42-1.13-5.07,9.53Zm13.9-.7,6.69,7.5-11.87,2.22Zm1.39-.69,10.66-1-4.09,8.33Zm12-.31,5.86,6.16-9.79,1.82ZM410,50.2l9.09-.83-3.3,6.89Zm10.54-.39,5.06,5.4-8.4,1.56Zm1.4-.7,7.65-.7-2.89,5.78Zm9.13-.29,4.45,4.54-7.42,1.38Zm-59.48,4.87,7.74-.7-5.8,11.55Z"/><path class="cls-7" d="M438.39,46.36a.73.73,0,0,0-.58-.2L370.6,52.27a.75.75,0,0,0-.53.29.77.77,0,0,0-.14.59l2.28,12.76a.72.72,0,0,0,.31.48.76.76,0,0,0,.43.14h.13l.32-.06a.82.82,0,0,0,.31.07.74.74,0,0,0,.49-.22l62.61-11.67a.76.76,0,0,0,.81-.15l.09,0a.77.77,0,0,0,.62-.71l.29-6.82A.74.74,0,0,0,438.39,46.36Zm-1.52,6.28-4.4-4.49,4.62-.42Zm-49.13,9.62-12.6,2.35L380.48,54Zm-6.29-9.47,12.42-1.13-5.07,9.53Zm13.9-.7,6.69,7.5-11.87,2.22Zm1.39-.69,10.66-1-4.09,8.33Zm12-.31,5.86,6.16-9.79,1.82ZM410,50.2l9.09-.83-3.3,6.89Zm10.54-.39,5.06,5.4-8.4,1.56Zm1.4-.7,7.65-.7-2.89,5.78Zm9.13-.29,4.45,4.54-7.42,1.38Zm-59.48,4.87,7.74-.7-5.8,11.55Z"/><path class="cls-8" d="M438.39,46.36a.73.73,0,0,0-.58-.2L370.6,52.27a.75.75,0,0,0-.53.29.77.77,0,0,0-.14.59l2.28,12.76a.72.72,0,0,0,.31.48.76.76,0,0,0,.43.14h.13l.32-.06a.82.82,0,0,0,.31.07.74.74,0,0,0,.49-.22l62.61-11.67a.76.76,0,0,0,.81-.15l.09,0a.77.77,0,0,0,.62-.71l.29-6.82A.74.74,0,0,0,438.39,46.36Zm-1.52,6.28-4.4-4.49,4.62-.42Zm-49.13,9.62-12.6,2.35L380.48,54Zm-6.29-9.47,12.42-1.13-5.07,9.53Zm13.9-.7,6.69,7.5-11.87,2.22Zm1.39-.69,10.66-1-4.09,8.33Zm12-.31,5.86,6.16-9.79,1.82ZM410,50.2l9.09-.83-3.3,6.89Zm10.54-.39,5.06,5.4-8.4,1.56Zm1.4-.7,7.65-.7-2.89,5.78Zm9.13-.29,4.45,4.54-7.42,1.38Zm-59.48,4.87,7.74-.7-5.8,11.55Z"/><path class="cls-4" d="M375.36,63.61l-8.49-9.18a.92.92,0,0,0-.73-.32,1,1,0,0,0-.74.33l-122,134.28a1,1,0,0,0,1.48,1.35l18.49-20.35L279.76,190a1,1,0,0,0,.78.37,1,1,0,0,0,.78-1.62l-15.76-19.52,40.85,3.34-10.07,16.28a1,1,0,0,0,.32,1.37,1,1,0,0,0,.53.15,1,1,0,0,0,.85-.47l77.44-125.1A1,1,0,0,0,375.36,63.61ZM356.74,91.29l-6.05-16.22h16.09ZM342.8,113.81l-9-19.55,21.14-.07Zm-15,24.2-12.11-23.28L341,116.79Zm-14.41-23.37L326,138.92l-32.7-2.18Zm18.3-20.14,9.34,20.29-25.86-2.11Zm17.08-18.8,6.15,16.49-21.19.07Zm2.38-2.63L364.92,58,367,73.07Zm-85.55,94.17,25.32-27.87,14.93,31.17Zm27.22-28.53L326,140.92l-18.11,29.26Zm76-67-2-14.35,6.53,7Z"/><path class="cls-9" d="M375.36,63.61l-8.49-9.18a.92.92,0,0,0-.73-.32,1,1,0,0,0-.74.33l-122,134.28a1,1,0,0,0,1.48,1.35l18.49-20.35L279.76,190a1,1,0,0,0,.78.37,1,1,0,0,0,.78-1.62l-15.76-19.52,40.85,3.34-10.07,16.28a1,1,0,0,0,.32,1.37,1,1,0,0,0,.53.15,1,1,0,0,0,.85-.47l77.44-125.1A1,1,0,0,0,375.36,63.61ZM356.74,91.29l-6.05-16.22h16.09ZM342.8,113.81l-9-19.55,21.14-.07Zm-15,24.2-12.11-23.28L341,116.79Zm-14.41-23.37L326,138.92l-32.7-2.18Zm18.3-20.14,9.34,20.29-25.86-2.11Zm17.08-18.8,6.15,16.49-21.19.07Zm2.38-2.63L364.92,58,367,73.07Zm-85.55,94.17,25.32-27.87,14.93,31.17Zm27.22-28.53L326,140.92l-18.11,29.26Zm76-67-2-14.35,6.53,7Z"/><path class="cls-10" d="M375.36,63.61l-8.49-9.18a.92.92,0,0,0-.73-.32,1,1,0,0,0-.74.33l-122,134.28a1,1,0,0,0,1.48,1.35l18.49-20.35L279.76,190a1,1,0,0,0,.78.37,1,1,0,0,0,.78-1.62l-15.76-19.52,40.85,3.34-10.07,16.28a1,1,0,0,0,.32,1.37,1,1,0,0,0,.53.15,1,1,0,0,0,.85-.47l77.44-125.1A1,1,0,0,0,375.36,63.61ZM356.74,91.29l-6.05-16.22h16.09ZM342.8,113.81l-9-19.55,21.14-.07Zm-15,24.2-12.11-23.28L341,116.79Zm-14.41-23.37L326,138.92l-32.7-2.18Zm18.3-20.14,9.34,20.29-25.86-2.11Zm17.08-18.8,6.15,16.49-21.19.07Zm2.38-2.63L364.92,58,367,73.07Zm-85.55,94.17,25.32-27.87,14.93,31.17Zm27.22-28.53L326,140.92l-18.11,29.26Zm76-67-2-14.35,6.53,7Z"/><path class="cls-11" d="M442.48,50.5a4.61,4.61,0,1,1-4.61-4.6A4.6,4.6,0,0,1,442.48,50.5Z"/><circle class="cls-11" cx="371.05" cy="59.72" r="7.76"/><path class="cls-12" d="M440,50.5a2.13,2.13,0,1,1-2.13-2.12A2.13,2.13,0,0,1,440,50.5Z"/><circle class="cls-12" cx="371.05" cy="59.72" r="3.58"/><path class="cls-13" d="M196.09,252.4c-9.21,1.87-8.63,6.25,7.95,6.22s76,0,87,0,39.21-5,22.49-8.21S212.21,249.13,196.09,252.4Z"/><path class="cls-14" d="M208,240.5h82.11a0,0,0,0,1,0,0v7a0,0,0,0,1,0,0H211.47A3.46,3.46,0,0,1,208,244v-3.5A0,0,0,0,1,208,240.5Z"/><path class="cls-15" d="M223.81,206.9l-5.53-5.53a1,1,0,0,0-1.41,0,1,1,0,0,0,0,1.42l2.46,2.46L217,207.59a.5.5,0,0,0,.35.85.51.51,0,0,0,.36-.15L220,206l2.36,2.37a1,1,0,1,0,1.41-1.42Z"/><rect class="cls-16" x="207.82" y="205.94" width="8.88" height="13.98" transform="translate(212.73 -87.73) rotate(45)"/><rect class="cls-17" x="207.82" y="205.94" width="8.88" height="13.98" transform="translate(212.73 -87.73) rotate(45)"/><polygon class="cls-16" points="208.53 210.38 208.53 215.45 213.6 215.45 219.14 209.92 214.06 204.84 208.53 210.38"/><path class="cls-18" d="M316.93,194.31H244.14v-4.92H312a4.91,4.91,0,0,1,4.91,4.92Z"/><rect class="cls-19" x="244.14" y="194.31" width="72.79" height="35.4"/><polygon class="cls-20" points="316.93 229.71 244.14 229.71 244.14 194.31 316.93 229.71"/><rect class="cls-16" x="244.14" y="216.74" width="30.24" height="12.97"/><polygon class="cls-17" points="246.57 227.28 246.57 216.74 244.14 216.74 244.14 227.28 244.14 229.71 246.57 229.71 274.39 229.71 274.39 227.28 246.57 227.28"/><path class="cls-21" d="M269.66,212H244.14v4.73h30.25A4.73,4.73,0,0,0,269.66,212Z"/><rect class="cls-22" x="192.66" y="214.37" width="2.77" height="15.34"/><rect class="cls-23" x="192.66" y="224.85" width="2.77" height="4.86"/><path class="cls-24" d="M192.66,229.71H317.45a2,2,0,0,1,2,2v6.79a2,2,0,0,1-2,2H194.66a2,2,0,0,1-2-2v-8.79A0,0,0,0,1,192.66,229.71Z"/><path class="cls-22" d="M248.24,158.67h0a1.84,1.84,0,0,1,1.84,1.84V212a0,0,0,0,1,0,0H246.4a0,0,0,0,1,0,0v-51.5A1.84,1.84,0,0,1,248.24,158.67Z"/><rect class="cls-25" x="246.4" y="200.19" width="3.67" height="11.82"/><path class="cls-26" d="M248.24,158.67a1.84,1.84,0,0,0-1.84,1.84V212h1.84Z"/><path class="cls-22" d="M256.87,212h-3.68V180.52a1.84,1.84,0,0,1,1.84-1.83h0a1.84,1.84,0,0,1,1.84,1.83Z"/><path class="cls-27" d="M245.76,171h5a1.63,1.63,0,0,1,1.62,1.62h0a1.62,1.62,0,0,1-1.62,1.61h-5a1.62,1.62,0,0,1-1.62-1.61h0A1.63,1.63,0,0,1,245.76,171Z"/><path class="cls-28" d="M221.89,184.93,200.3,202.49a7.86,7.86,0,0,0-2.89,6.09v21.13h46.73V186.3a3.13,3.13,0,0,0-3.13-3.13H226.84A7.84,7.84,0,0,0,221.89,184.93Zm15.89,31.47H207.11v-6.56a7.86,7.86,0,0,1,2.9-6.09l15.9-12.93a7.82,7.82,0,0,1,5-1.76h6.92Z"/><rect class="cls-29" x="191.18" y="216.74" width="1.48" height="3.39"/><rect class="cls-29" x="191.18" y="223.22" width="1.48" height="3.39"/><circle class="cls-15" cx="226.59" cy="245.45" r="11.19" transform="translate(-107.19 232.12) rotate(-45)"/><path class="cls-30" d="M227,234.28A10.32,10.32,0,1,0,237.76,245,11.18,11.18,0,0,0,227,234.28Z"/><path class="cls-26" d="M221.64,245.45a5,5,0,1,1,5,5A5,5,0,0,1,221.64,245.45Z"/><path class="cls-29" d="M231.51,245.07a4.93,4.93,0,0,0-3.86-4.45l-.2,0a4.1,4.1,0,1,0,4.06,4.47Z"/><path class="cls-30" d="M192.07,229.71h8a2.67,2.67,0,0,1,2.67,2.67v3.54a2.67,2.67,0,0,1-2.67,2.67h-8a0,0,0,0,1,0,0v-8.87A0,0,0,0,1,192.07,229.71Z"/><path class="cls-29" d="M190.09,229.71h8a2.67,2.67,0,0,1,2.67,2.67v3.54a2.67,2.67,0,0,1-2.67,2.67h-8a0,0,0,0,1,0,0v-8.87A0,0,0,0,1,190.09,229.71Z"/><path class="cls-26" d="M190.09,234.15v4.44h8a2.68,2.68,0,0,0,2.67-2.67v-1.77Z"/><rect class="cls-31" x="253.19" y="202.73" width="3.67" height="9.28"/><path class="cls-26" d="M255,178.69a1.84,1.84,0,0,0-1.84,1.83V212H255Z"/><circle class="cls-15" cx="290.12" cy="245.45" r="11.19" transform="translate(-61.47 389.68) rotate(-62.54)"/><path class="cls-30" d="M290.67,234.29a10.32,10.32,0,1,0,10.62,10.85A11.16,11.16,0,0,0,290.67,234.29Z"/><path class="cls-26" d="M285.16,245.4a5,5,0,1,1,4.91,5A5,5,0,0,1,285.16,245.4Z"/><path class="cls-29" d="M295,245.12a4.93,4.93,0,0,0-3.81-4.49l-.2,0a4.1,4.1,0,1,0,4,4.51Z"/><path class="cls-32" d="M303.5,101.38l-6.71-1.12V87.45c0-10.15-9.36-17.27-19.51-17.27h0a18.39,18.39,0,0,0-18.39,18.39v1.86a13.15,13.15,0,0,0-8.53-3.13h0a13.23,13.23,0,0,0-13.23,13.24v.84h-9.36a8.72,8.72,0,1,0,0,17.43H303.5a8.72,8.72,0,0,0,0-17.43Z"/><path class="cls-33" d="M484.5,54.71l4.77-.8v-9.1c0-7.22,6.65-12.28,13.87-12.28h0A13.08,13.08,0,0,1,516.21,45.6v1.33a9.31,9.31,0,0,1,6.06-2.23h0a9.41,9.41,0,0,1,9.41,9.41v.6h9.55a6.2,6.2,0,1,1,0,12.39H484.5a6.2,6.2,0,1,1,0-12.39Z"/><path class="cls-34" d="M582.57,159.93H569.51a9.76,9.76,0,0,0,.11-1.44v-3.27a10.54,10.54,0,0,0-16.84-8.47,15.79,15.79,0,0,0-31.46,1.94v4.9a15.75,15.75,0,0,0,1.34,6.34H511.81a5.86,5.86,0,0,0,0,11.71h70.76a5.86,5.86,0,1,0,0-11.71Z"/><g id="compu"><rect class="cls-12" x="280.68" y="89.03" width="229.27" height="148.25" rx="5"/><rect class="cls-35" x="330.4" y="45.31" width="129.82" height="223.27" rx="2" transform="translate(552.25 -238.37) rotate(90)"/><path class="cls-29" d="M506.94,128.56H380.74a3,3,0,0,0-3,3v81.83h129.2Z"/><path class="cls-29" d="M321.91,184.17H299.65V168.23h-3v53.62h28.3V168.23h-3Zm0,35.22H299.65V204.8h22.26Zm0-17.61H299.65V187.19h22.26Z"/><path class="cls-22" d="M280.68,224.85v7.43a5,5,0,0,0,5,5H504.94a5,5,0,0,0,5-5v-7.43Z"/><path class="cls-29" d="M355.22,259.38H435.4a8.12,8.12,0,0,1,8.12,8.12v0a0,0,0,0,1,0,0H347.1a0,0,0,0,1,0,0v0A8.12,8.12,0,0,1,355.22,259.38Z"/><path class="cls-22" d="M416,245.17v-7.89H374.64v7.89a14.21,14.21,0,0,1-14.21,14.21h69.76A14.21,14.21,0,0,1,416,245.17Zm-20.67,7.66a4.5,4.5,0,1,1,4.5-4.5A4.5,4.5,0,0,1,395.31,252.83Z"/><rect class="cls-36" x="374.64" y="237.28" width="41.33" height="4.68"/></g><path class="cls-37" d="M348.78,134.18v-9.12l-8.38-.92a22.07,22.07,0,0,0-2.26-5.46l5.28-6.58L337,105.65l-6.59,5.28a21.11,21.11,0,0,0-5.45-2.26l-.92-8.39h-9.12l-.92,8.39a21.11,21.11,0,0,0-5.45,2.26l-6.59-5.28-6.45,6.45,5.29,6.58a21.72,21.72,0,0,0-2.27,5.46l-8.38.92v9.12l8.38.92a21.8,21.8,0,0,0,2.27,5.45l-5.29,6.58,6.45,6.45,6.59-5.28a21.49,21.49,0,0,0,5.45,2.27l.92,8.38H324l.92-8.38a21.49,21.49,0,0,0,5.45-2.27l6.59,5.28,6.45-6.45-5.28-6.58a22.15,22.15,0,0,0,2.26-5.45Zm-29.33,9.52a14.08,14.08,0,1,1,14.08-14.08A14.08,14.08,0,0,1,319.45,143.7Z"/><path class="cls-19" d="M370.72,177.61v-6.82l-6.27-.68a16.11,16.11,0,0,0-1.69-4.08l3.95-4.92-4.83-4.83L357,160.23a16.11,16.11,0,0,0-4.08-1.69l-.69-6.27h-6.82l-.68,6.27a16.11,16.11,0,0,0-4.08,1.69l-4.92-3.95-4.83,4.83,3.95,4.92a16.11,16.11,0,0,0-1.69,4.08l-6.27.68v6.82l6.27.69a16.11,16.11,0,0,0,1.69,4.08l-3.95,4.92,4.83,4.83,4.92-3.95a16.11,16.11,0,0,0,4.08,1.69l.68,6.27h6.82l.69-6.27a16.11,16.11,0,0,0,4.08-1.69l4.92,3.95,4.83-4.83-3.95-4.92a16.11,16.11,0,0,0,1.69-4.08Zm-21.94,7.12a10.53,10.53,0,1,1,10.53-10.53A10.53,10.53,0,0,1,348.78,184.73Z"/><polyline class="cls-38" points="378.83 126.65 452 108.4 525.18 126.65"/><line class="cls-38" x1="452" y1="108.4" x2="452" y2="103.38"/><path class="cls-38" d="M454.68,100.64A2.68,2.68,0,1,1,452,98,2.68,2.68,0,0,1,454.68,100.64Z"/><path class="cls-39" d="M455.64,96A3.64,3.64,0,1,1,452,92.37V75.27"/><path class="cls-16" d="M450.09,108.4a1.91,1.91,0,1,1,1.91,1.91A1.91,1.91,0,0,1,450.09,108.4Z"/><circle class="cls-19" cx="452" cy="108.4" r="0.77"/><path class="cls-30" d="M378.83,125.65H525.18a3,3,0,0,1,3,3v81.82a0,0,0,0,1,0,0H375.83a0,0,0,0,1,0,0V128.65A3,3,0,0,1,378.83,125.65Z"/><rect class="cls-40" x="375.83" y="133.23" width="152.35" height="7.08"/><path class="cls-12" d="M525.18,125.65H378.83a3,3,0,0,0-3,3v4.58H528.18v-4.58A3,3,0,0,0,525.18,125.65Z"/><path class="cls-41" d="M520.08,129.44a1.82,1.82,0,1,1,1.82,1.82A1.82,1.82,0,0,1,520.08,129.44Z"/><path class="cls-19" d="M512.87,129.44a1.82,1.82,0,1,1,1.82,1.82A1.81,1.81,0,0,1,512.87,129.44Z"/><path class="cls-42" d="M505.65,129.44a1.82,1.82,0,1,1,1.82,1.82A1.82,1.82,0,0,1,505.65,129.44Z"/><text class="cls-43" transform="translate(401.59 182.96)">&lt;_/&gt;</text><path class="cls-44" d="M410.28,286.06c-3.12,1.77-1.76,4.94,12.1,5.22s30.77-1.16,38.3-7.79C468.87,276.29,422.28,279.27,410.28,286.06Z"/><path class="cls-45" d="M433.84,285s.17,1.11.29,2.14.61,1.75,2.48,1.81h8.15c3.91,0,5.52-1.25,1.84-2a38.18,38.18,0,0,1-8.51-2.84Z"/><path class="cls-45" d="M410.49,280.55s-1.73,3.18-1.61,4.21,1.33,1.54,2.62,2.47a25.29,25.29,0,0,0,2.95,1.74h4.66c3.9,0,5-1,1.91-2.05-4.51-1.62-6.86-2.86-6.86-4.07Z"/><path class="cls-46" d="M430.3,239s4.76,18.2,5,19.78c.37,2.64,2.81,25.4,2.81,25.4s-1.4,2.38-4.64.66c-.22-.55-4.11-19.35-4.22-21.4s0-4.06,0-4.06l-5.29-12.14s-1.27,12.16-1.56,14.18-8.22,21.43-8.22,21.43-3,.69-4.11-2c0,0,3.64-15.34,4.17-17.39a13.71,13.71,0,0,1,2-4.06l.88-22.3Z"/><path class="cls-47" d="M429.23,263.44c.11,2.05,4,20.85,4.22,21.4,3.24,1.72,4.64-.66,4.64-.66s-3.83-1.72-6.43-16.11a23.48,23.48,0,0,1,0-8.69l-4.73-18.88L425,238.22l-7.84-1.14-.88,22.3a13.71,13.71,0,0,0-2,4.06c-.53,2.05-4.17,17.39-4.17,17.39,1.08,2.71,4.11,2,4.11,2s-1.62-4,2.54-16.33c1.54-4.56,3.27-5.75,3.27-5.75l4-13.53,5.29,12.14S429.12,261.39,429.23,263.44Z"/><path class="cls-48" d="M418.55,220c2.16-.89,4-.3,3.81,1.45-.25,2-3.19,3-5.39,3.38a15.28,15.28,0,0,1-10.46-1.9c-3.78-2.38-7.81-8.52-8.29-12.48-.31-2.47,1.26-4.58,2.39-3.92.69.4.94,2.79,1.37,3.92h1.62a13.5,13.5,0,0,0-.49,1.88c-.11.75,2.92,4.83,5.35,7S416.68,220.78,418.55,220Z"/><path class="cls-49" d="M422.82,220.39c-.24-1.26-1.51-1.56-3.29-1.32s-2.77.75-4.88.82a7.57,7.57,0,0,0,.23,5.72,15.17,15.17,0,0,0,5.29-1.1C422.18,223.48,423.31,222.9,422.82,220.39Z"/><path class="cls-48" d="M422.17,207.78c.58-2.82,3.41-4.26,6.24-3.73s4.14,4.45,4.39,9.1c.15,2.88-3.41,3.91-6.64,2.36A6.84,6.84,0,0,1,422.17,207.78Z"/><path class="cls-48" d="M423.67,213.47c.46,1.52.39,5.68-1.29,6.31,0,0,4.74,3.08,6.14.12l.49-3.68Z"/><path class="cls-50" d="M423.39,218.66s.08,1,2.07,1.55a3.46,3.46,0,0,0,3.06-.31,11.11,11.11,0,0,0,2.42,1.33c1.21.43,1.31,1.94.6,5.42-1.13,5.59-.33,15.85-.33,15.85s-8.36,5-14.23-1.21c-.39-1.75-.44-13,.34-17s1.38-4.38,2.38-4.87A16.32,16.32,0,0,1,423.39,218.66Z"/><path class="cls-48" d="M432.09,222.61c-2.16-.88-4-.29-3.82,1.46.26,2,3.2,3,5.4,3.38,3,.53,9.23-.07,12.57-2.16,3.79-2.38,6.65-10.86,7.14-14.82.3-2.47-1.26-4.58-2.4-3.92-.68.4-.94,2.79-1.36,3.92H448a12.13,12.13,0,0,1,.49,1.88c.11.75-2,6.86-4.43,9S434,223.38,432.09,222.61Z"/><path class="cls-51" d="M435.09,222.6a31.58,31.58,0,0,1-4.81-1.2,2.28,2.28,0,0,0-2.87,2c-.15,1.4,1,4.76,7.68,4.89A5.51,5.51,0,0,0,435.09,222.6Z"/><path class="cls-46" d="M426.27,210.88a1.18,1.18,0,0,0-1.32,1.88c.82,1.07,1.57,1,2.07.71a3.57,3.57,0,0,1-.3,2.28c-.58.9-2.3.4-2.82-.61s-2.68-3.12-2.81-5.32,1.29-2.77,1.29-2.77a5.19,5.19,0,0,1,1.54-3.51c2.18-2,5.83,0,7-.4s1.29,2.72-1.85,3.66a2.22,2.22,0,0,1-1.68,2.57s1,1.7.85,2.14S427.59,212.51,426.27,210.88Z"/><path class="cls-52" d="M618.22,269.13c3.53,1.61-2.91,4.48-20.32,4.48s-41.21-7.84-33.72-10.75S611.94,266.25,618.22,269.13Z"/><polygon class="cls-37" points="589.92 194.73 574.47 193.95 578.48 181.51 591.48 189.91 589.92 194.73"/><polygon class="cls-19" points="591.48 189.91 590.43 189.23 588.55 194.66 589.92 194.73 591.48 189.91"/><path class="cls-45" d="M593.25,266.85s-.17,1.1-.3,2.13-.6,1.75-2.47,1.81h-8.15c-3.91,0-5.52-1.24-1.84-1.94A37.92,37.92,0,0,0,589,266Z"/><path class="cls-45" d="M616.6,262.37s1.73,3.18,1.61,4.21-1.33,1.54-2.62,2.47a25.29,25.29,0,0,1-3,1.74H608c-3.9,0-5-1-1.91-2.05,4.51-1.62,6.86-2.86,6.86-4.07Z"/><path class="cls-46" d="M596.79,220.82s-4.76,18.2-5,19.78C591.44,243.25,589,266,589,266s1.4,2.39,4.64.66c.22-.54,5.06-17.45,5.17-19.5s0-4.07,0-4.07l3.85-9.11s1.76,7.24,2.05,9.27,8.22,21.42,8.22,21.42,3,.69,4.1-2c0,0-3.63-15.34-4.16-17.39a13.71,13.71,0,0,0-2-4.06L610,218.9Z"/><path class="cls-47" d="M612.93,264.67s3,.69,4.1-2c0,0-3.63-15.34-4.16-17.39a13.62,13.62,0,0,0-2-4.06L610,218.9l-2,.29-7.21,6.42s-6,14.24-6.3,16.35-1.57,16.87-2.2,20.41S589,266,589,266s1.4,2.39,4.64.66c.22-.54,5.06-17.45,5.17-19.5s0-4.07,0-4.07l3.85-9.11,4.44,10.07s5,11.79,6.71,15.33S612.93,264.67,612.93,264.67Z"/><path class="cls-48" d="M606,189.6c-.58-2.82-3.42-4.26-6.25-3.73s-4.14,4.46-4.38,9.11c-.15,2.87,3.4,3.91,6.64,2.35A6.83,6.83,0,0,0,606,189.6Z"/><path class="cls-48" d="M604.51,195.3c-.45,1.52-.38,5.67,1.29,6.3,0,0-1.21,2.71-6.14,1.89V198Z"/><path class="cls-50" d="M604.68,200.19s0,1.32-1.95,1.88a3.12,3.12,0,0,1-3-.49s-2.33,1-3.55,1.47-1.55,2-.61,5.43.51,15.2.51,15.2,8.41,5,14.28-1.15c-.17-.5.22-12.45-.56-16.38s-1.38-4.37-2.38-4.87A27.71,27.71,0,0,0,604.68,200.19Z"/><path class="cls-48" d="M595,204.44c2.16-.89,4-.3,3.82,1.45-.26,2-3.2,3-5.4,3.38-3,.54-10,1.08-11.51.1-2-1.33.18-10.56-.31-14.52-.3-2.48-.27-4.5,2-4.39.79,0,1.13,1.52,1.24,4l1.68.09a9.9,9.9,0,0,1-1.48,2.73c-.11.75-.3,8.1-.3,8.1C585.73,206.65,593.13,205.2,595,204.44Z"/><path class="cls-51" d="M592,204.42a32.72,32.72,0,0,0,4.81-1.19,2.28,2.28,0,0,1,2.87,2c.15,1.4-1,4.76-7.68,4.89A5.51,5.51,0,0,1,592,204.42Z"/><path class="cls-46" d="M601.92,192.7a1.19,1.19,0,0,1,1.32,1.88c-.82,1.07-1.57,1-2.07.72a3.54,3.54,0,0,0,.29,2.28c.58.89,2.3.39,2.82-.61s2.69-3.13,2.81-5.32-.91-2.9-.91-2.9a3.33,3.33,0,0,0-1.91-3.39c-2.56-1.48-5.83,0-7-.39s-1.29,2.71,1.85,3.66a2.2,2.2,0,0,0,1.68,2.56s-1,1.7-.85,2.14S600.6,194.33,601.92,192.7Z"/><line class="cls-53" x1="572.7" y1="186.5" x2="564.18" y2="183.97"/><line class="cls-53" x1="574.25" y1="182.87" x2="568.04" y2="178.43"/><line class="cls-53" x1="572.22" y1="190.46" x2="564.67" y2="191.54"/><path class="cls-54" d="M562.24,342.19c2,1-2.22,4.49-14.54,4.49s-25-3.17-27.31-8.57S550.73,336.6,562.24,342.19Z"/><path class="cls-46" d="M545.72,294s-2.82,20.78-3,22.36c-.37,2.65-1.6,22.83-1.6,22.83s1,2.57,4.25.84c.22-.54,3.33-15.77,3.44-17.82s0-4.06,0-4.06l4-10.76s1.63,8,1.92,10,3.59,21.82,3.59,21.82a3.9,3.9,0,0,0,4.25.84s-.66-17.24-.85-19.35a11.41,11.41,0,0,0-1.69-4.62l-.4-14.19a9.59,9.59,0,0,0-.62-7.23Z"/><path class="cls-47" d="M562.53,340.06s-.66-17.24-.85-19.35a11.41,11.41,0,0,0-1.69-4.62l-.4-14.19c-.85,2.3-3,3.49-6,3.88l-.78,1.64s1.63,8,1.92,10,3.59,21.82,3.59,21.82A3.9,3.9,0,0,0,562.53,340.06Z"/><path class="cls-37" d="M520.39,267.84c2.46,2.42,4.18,6,5.45,9.68s1.35,14.53.94,19.5c0,0,11.21.12,17.37-5.22,0,0,3.85-18.19-6.31-27.87Z"/><path class="cls-48" d="M555.33,262.82c-.58-2.82-3.41-4.26-6.24-3.73s-4.14,4.45-4.39,9.1c-.15,2.88,3.41,3.91,6.64,2.36A6.84,6.84,0,0,0,555.33,262.82Z"/><path class="cls-48" d="M553.83,268.51c-.46,1.52-.39,5.68,1.29,6.31,0,0-1.22,2.7-6.15,1.88l0-5.45Z"/><path class="cls-50" d="M554,273.41s-.06,1.18-2,1.73a2.68,2.68,0,0,1-3-.86,22.88,22.88,0,0,0-4.27,2.37c-1.08,1-1.24,2.89-.86,5.17.25,1.49,1.47,3.85,1.57,6.88a55.37,55.37,0,0,1-.44,8.19s8.79,4.89,14.66-1.31c-.79-4-2-3.47-2.14-8.23-.07-2.35,1.35-5.6,1.21-8-.24-4-1.39-4.38-2.38-4.88S554,273.41,554,273.41Z"/><path class="cls-48" d="M543,279c.71-2.22,2.37-3.28,3.57-2,1.36,1.48.23,4.37-.89,6.3-1.52,2.65-5.63,8.38-7.33,8.87-1,.28-2.05-.64-2.72-1.18a38.31,38.31,0,0,1-3.55-3.31c-1-1-2.05-2.11-3.14-3.09a17.74,17.74,0,0,1-2.86-2.68,5.82,5.82,0,0,1-.87-4.07c0-.24.17-.55.41-.5a.48.48,0,0,1,.22.15,17.63,17.63,0,0,0,3,2.86c.26.16.42-1,.43-1.05,0-.33,0-.88.44-1a.4.4,0,0,1,.36.12,1.06,1.06,0,0,1,.22.33,6.65,6.65,0,0,1,.49,1.81,3.74,3.74,0,0,0,.33,1.42c.51.57,6.76,5.61,6.76,5.61C538.8,287.2,542.38,280.93,543,279Z"/><path class="cls-45" d="M545.33,340.06s-.17,1.11-.29,2.13-.61,1.75-2.48,1.82h-8.15c-3.9,0-5.52-1.25-1.84-1.95a38.18,38.18,0,0,0,8.51-2.84Z"/><path class="cls-45" d="M562.53,340.06s-.17,1.11-.29,2.13-.61,1.75-2.48,1.82h-8.15c-3.9,0-5.52-1.25-1.84-1.95a38.18,38.18,0,0,0,8.51-2.84Z"/><path class="cls-46" d="M551.23,265.92a1.18,1.18,0,0,1,1.32,1.88c-.82,1.06-1.57,1-2.07.71a3.57,3.57,0,0,0,.3,2.28c.58.9,2.3.39,2.82-.61s2.68-3.12,2.81-5.32a2.65,2.65,0,0,0-1.29-2.78,3.8,3.8,0,0,0-1.7-3.1,5.86,5.86,0,0,0-8.12,2c-.2.34,2.18,2.37,3.11.82a2.22,2.22,0,0,0,1.69,2.57s-1,1.7-.86,2.13S549.91,267.55,551.23,265.92Z"/><path class="cls-46" d="M555.12,262.08a3,3,0,0,1,3.16,0c1,.59,1.46,2.31,1,5.45s.14,5.15,2.29,5.15c0,0-2.33,1.91-4.55.25S554,268.62,555.12,262.08Z"/><path class="cls-55" d="M320.35,166V182H298.09V166h-3V289h3V273h22.26V289h3V166Zm0,19v14.59H298.09V185Zm-22.26,49.82v-14.6h22.26v14.6Zm22.26,3V252.4H298.09V237.81Zm-22.26-20.64V202.58h22.26v14.59Zm0,52.84V255.42h22.26V270Z"/><path class="cls-56" d="M233.72,341.61c-2.48,1.23,7.38,3.42,15.75,3.82s23.34.06,33.51-7.33S264.71,326.23,233.72,341.61Z"/><path class="cls-46" d="M248.22,258.62s1.54-2.72,5.92-2,4.56,4.67,2.84,6.42S248.22,258.62,248.22,258.62Z"/><path class="cls-45" d="M254.38,338.37s.17,1.1.29,2.13.6,1.75,2.47,1.81h8.15c3.91,0,5.52-1.24,1.84-1.94a37.73,37.73,0,0,1-8.5-2.85Z"/><path class="cls-45" d="M237.16,333.89s-1.72,3.19-1.6,4.21,1.33,1.54,2.62,2.47a25.29,25.29,0,0,0,2.95,1.74h4.65c3.91,0,5-1,1.92-2.05-4.51-1.61-6.86-2.86-6.86-4.07Z"/><path class="cls-48" d="M247,260.33c1.16-2.64,4.23-3.45,6.89-2.35s3.81,5.26,3.08,9.86c-.45,2.85-4.84,3.08-7.68.88A6.84,6.84,0,0,1,247,260.33Z"/><path class="cls-48" d="M247.93,267.9a17.35,17.35,0,0,1-1.3,6s.31,2.6,5.07,1.06l.81-5.37Z"/><path class="cls-46" d="M256.32,293.35s1.21,5.62,1.64,22.7c.13,5.08.67,21.47.67,21.47s-1.41,2.39-4.65.66c-.21-.54-2.46-13.89-2.79-16.51a14.11,14.11,0,0,1,.68-4.92l-1.5-6.5s-.86,3.12-1.44,5.08-8.09,20.86-8.09,20.86-3,.69-4.11-2c0,0,3.64-15.34,4.17-17.39a13.71,13.71,0,0,1,2-4.06l.58-13c-1.09-1.69-2.36-3.82.47-9.31Z"/><path class="cls-47" d="M243.52,299.7l-.58,13a13.71,13.71,0,0,0-2,4.06c-.53,2-4.17,17.39-4.17,17.39,1.08,2.7,4.11,2,4.11,2s7.5-18.9,8.09-20.86,1.44-5.08,1.44-5.08l-1.31-7.76S245.32,301.69,243.52,299.7Z"/><path class="cls-46" d="M250.32,264.22a1.18,1.18,0,0,0-1.68,1.56c.58,1.21,1.33,1.29,1.88,1.13a3.55,3.55,0,0,1-.77,2.17c-.75.75-2.33-.1-2.63-1.19s-2-3.61-1.64-5.79,1.84-2.45,1.84-2.45a4.38,4.38,0,0,1,3.05-2.31c1.92-.42,4.21.08,4.94,1.71,0,0,0,1.65-3.56,3.93,0,0,.64,1.87.38,2.26S251.27,266.09,250.32,264.22Z"/><path class="cls-50" d="M251.87,273.86a31.93,31.93,0,0,1,4.06,2.37c1,.84,3.12,2.95,2.78,5.08a3.89,3.89,0,0,1-2.47,3.13s-.15,2.28-.19,3.42c-.1,2.56.9,5.52,1,8.16,0,0-5.86,4.37-14.82-1.8,1.29-4.16,3.19-5.49,3.19-8.56,0-3.58-1.36-4-1.25-8.26.11-4.43,3-4.74,3-4.74Z"/><path class="cls-48" d="M251.92,275.56c-1.77,1-1.27,3.17,1.65,7.79s4.54,6.24,5.73,6.52,8.2-3,10.26-4,5.24.71,7.22-2.19h-8.21l-7.94,2s-2.83-4-4.39-6.59S253.69,274.57,251.92,275.56Z"/><path class="cls-46" d="M250.52,266.91s.18,11.36-1,13.22-6.7.21-8-1.39.86-3.79,1.75-9.38c1-6.49,2.08-10.52,4.93-10.74,0,0-1.44,5.55-.54,7.54S250.52,266.91,250.52,266.91Z"/><path class="cls-29" d="M278.46,282.25H265.63a1.47,1.47,0,0,0,1.46,1.46h11.37Z"/><path class="cls-29" d="M281.91,269.84l-3.45,12.36,1.41.39,3.05-10.95a1.45,1.45,0,0,0-1-1.8Z"/><path class="cls-57" d="M449.32,322.63c-5.57.84,1.34,2.1,11.36,2.68s24.43-.4,28.35-2.49,11.68-5.37,4.59-6.46S454.25,321.89,449.32,322.63Z"/><path class="cls-58" d="M480.71,318.45H453.5a4.18,4.18,0,0,0-4.18,4.18h35.57A4.18,4.18,0,0,0,480.71,318.45Z"/><path class="cls-17" d="M467.11,318.45H453.5a4.18,4.18,0,0,0-4.18,4.18h17.79Z"/><path class="cls-59" d="M456.64,314.27a4.07,4.07,0,0,0-.61.06l-1.12,4.12H479.3l-1.12-4.12a4.07,4.07,0,0,0-.61-.06Z"/><polygon class="cls-16" points="457.18 310.09 456.05 314.27 478.17 314.27 477.03 310.09 457.18 310.09"/><polygon class="cls-59" points="457.18 310.09 477.03 310.09 475.9 305.91 458.31 305.91 457.18 310.09"/><polygon class="cls-16" points="475.9 305.91 474.76 301.73 459.45 301.73 458.31 305.91 475.9 305.91"/><polygon class="cls-59" points="459.45 301.73 474.76 301.73 473.63 297.55 460.58 297.55 459.45 301.73"/><polygon class="cls-16" points="461.71 293.37 460.58 297.55 473.63 297.55 472.5 293.37 461.71 293.37"/><polygon class="cls-59" points="461.71 293.37 472.5 293.37 471.36 289.19 462.85 289.19 461.71 293.37"/><path class="cls-16" d="M471.36,289.19l-.73-2.7A2,2,0,0,0,468.7,285h-3.19a2,2,0,0,0-1.93,1.48l-.73,2.7Z"/><path class="cls-17" d="M466.45,285l-3.15,29.26-.45,4.18h-7.94l1.12-4.12a4.07,4.07,0,0,1,.61-.06H456l1.14-4.18,1.13-4.18,1.14-4.18,2.26-8.36,1.14-4.18.73-2.7a2,2,0,0,1,1.93-1.48Z"/><path class="cls-60" d="M477.55,271.34c-5.58.84,1.33,2.1,11.35,2.68s24.43-.41,28.35-2.49,11.68-5.37,4.59-6.46S482.47,270.6,477.55,271.34Z"/><path class="cls-58" d="M504.08,267H483.15a4.18,4.18,0,0,0-4.18,4.18h29.29A4.18,4.18,0,0,0,504.08,267Z"/><path class="cls-17" d="M493.62,267H483.15a4.18,4.18,0,0,0-4.18,4.18h14.65Z"/><polygon class="cls-59" points="503.55 267.04 483.69 267.04 484.82 262.86 502.4 262.86 503.55 267.04"/><polygon class="cls-16" points="502.41 262.86 501.27 258.68 485.96 258.68 484.82 262.86 502.41 262.86"/><polygon class="cls-59" points="485.96 258.68 501.27 258.68 500.14 254.5 487.09 254.5 485.96 258.68"/><polygon class="cls-16" points="488.22 250.32 487.09 254.5 500.14 254.5 499.01 250.32 488.22 250.32"/><polygon class="cls-59" points="488.22 250.32 499.01 250.32 497.87 246.14 489.36 246.14 488.22 250.32"/><path class="cls-16" d="M497.87,246.14l-.73-2.71a2,2,0,0,0-1.93-1.47H492a2,2,0,0,0-1.93,1.47l-.73,2.71Z"/><path class="cls-17" d="M493,242l-.45,4.18-.45,4.18L490.26,267h-6.57l1.13-4.18,1.14-4.18,2.26-8.36,1.14-4.18.73-2.7a1.83,1.83,0,0,1,.28-.6A2,2,0,0,1,492,242Z"/><path class="cls-61" d="M352.56,332.69c-16.61.38-28.09,2.26-24.56,4.54s67,2.61,73.59,1.49,24.79-4,15.11-6S369.18,332.32,352.56,332.69Z"/><rect class="cls-59" x="340.21" y="319" width="51.51" height="5.53"/><polygon class="cls-16" points="358.09 319 352.56 324.53 358.08 319 358.09 319"/><polygon class="cls-16" points="349.15 319 343.62 324.53 340.21 324.53 340.21 319 349.15 319"/><polygon class="cls-16" points="367.02 319 361.49 324.53 352.56 324.53 358.09 319 367.02 319"/><polygon class="cls-16" points="384.89 319 379.37 324.53 370.43 324.53 375.96 319 384.89 319"/><polygon class="cls-16" points="391.72 321.12 391.72 324.53 388.31 324.53 391.72 321.12"/><rect class="cls-59" x="340.22" y="290.12" width="3.18" height="5.32"/><rect class="cls-59" x="388.47" y="290.12" width="3.18" height="5.32"/><path class="cls-58" d="M337.76,287.54a4,4,0,1,1,4.05,4A4,4,0,0,1,337.76,287.54Z"/><path class="cls-17" d="M339.16,287.54a2.65,2.65,0,1,1,2.65,2.65A2.65,2.65,0,0,1,339.16,287.54Z"/><path class="cls-58" d="M386,287.54a4.05,4.05,0,1,1,4.05,4A4,4,0,0,1,386,287.54Z"/><path class="cls-17" d="M387.41,287.54a2.65,2.65,0,1,1,2.65,2.65A2.65,2.65,0,0,1,387.41,287.54Z"/><rect class="cls-22" x="334.75" y="310.25" width="5.47" height="26.44"/><rect class="cls-22" x="391.72" y="310.25" width="5.47" height="26.44"/><rect class="cls-16" x="331.43" y="295.44" width="69.01" height="14.8"/><polygon class="cls-59" points="331.43 295.44 331.43 307.42 343.4 295.44 331.43 295.44"/><polygon class="cls-59" points="355.37 295.44 340.57 310.25 352.54 310.25 367.35 295.44 355.37 295.44"/><polygon class="cls-59" points="379.32 295.44 364.52 310.25 376.49 310.25 391.29 295.44 379.32 295.44"/><polygon class="cls-59" points="400.44 298.28 388.47 310.25 400.44 310.25 400.44 298.28"/><polygon class="cls-17" points="400.44 306.92 334.75 306.92 334.75 295.44 331.43 295.44 331.43 306.92 331.43 310.25 331.43 310.25 334.75 310.25 334.75 310.25 400.44 310.25 400.44 306.92"/><rect class="cls-62" x="391.72" y="310.25" width="5.47" height="1.93"/><rect class="cls-63" x="334.75" y="310.25" width="5.47" height="1.93"/><polygon class="cls-17" points="341.81 322.94 341.81 319 340.21 319 340.21 324.53 340.22 324.53 341.81 324.53 391.72 324.53 391.72 322.94 341.81 322.94"/><path class="cls-64" d="M389.52,286.53a1.07,1.07,0,1,1,1.06,1.06A1.07,1.07,0,0,1,389.52,286.53Z"/><path class="cls-64" d="M391.52,288a.37.37,0,0,1,.37-.38.38.38,0,1,1,0,.75A.37.37,0,0,1,391.52,288Z"/><path class="cls-64" d="M341.27,286.53a1.06,1.06,0,1,1,1.06,1.06A1.06,1.06,0,0,1,341.27,286.53Z"/><path class="cls-64" d="M343.26,288a.38.38,0,1,1,.75,0,.38.38,0,0,1-.75,0Z"/><path class="cls-11" d="M455.14,72.13A3.14,3.14,0,1,1,452,69,3.14,3.14,0,0,1,455.14,72.13Z"/><path class="cls-12" d="M453.45,72.13A1.45,1.45,0,1,1,452,70.68,1.44,1.44,0,0,1,453.45,72.13Z"/><text class="cls-65" transform="translate(27.4 69.91)">THIS PAGE IS UNDER<tspan x="0" y="26.1">CONSTRUCTION</tspan></text><text/><rect class="cls-66" x="27.4" y="152.84" width="73.67" height="21.76" rx="10.88"/><text class="cls-67" transform="translate(44.43 166.95)">GO B<tspan class="cls-68" x="21.21" y="0">A</tspan><tspan class="cls-69" x="27.48" y="0">CK</tspan></text></g></g></g></svg>