<svg width="640" height="512" viewBox="0 0 640 512" fill="none" xmlns="http://www.w3.org/2000/svg">
<g clip-path="url(#clip0_40_2)">
<path d="M224 256C294.7 256 352 198.7 352 128C352 57.3 294.7 0 224 0C153.3 0 96 57.3 96 128C96 198.7 153.3 256 224 256ZM313.6 288H296.9C274.7 298.2 250 304 224 304C198 304 173.4 298.2 151.1 288H134.4C60.2 288 0 348.2 0 422.4V464C0 490.5 21.5 512 48 512H322.9C320.5 505.2 319.5 498 320.3 490.7L327.1 429.8L328.3 418.7L336.2 410.8L413.5 333.5C389 305.8 353.5 288 313.6 288V288ZM358.9 433.3L352.1 494.3C351 504.5 359.6 513.1 369.7 511.9L430.6 505.1L568.5 367.2L496.8 295.5L358.9 433.3V433.3ZM633 268.9L595.1 231C585.8 221.7 570.6 221.7 561.3 231L523.5 268.8L519.4 272.9L591.2 344.6L633 302.8C642.3 293.4 642.3 278.3 633 268.9V268.9Z" fill="#2F80ED"/>
</g>
<defs>
<clipPath id="clip0_40_2">
<rect width="640" height="512" fill="white"/>
</clipPath>
</defs>
</svg>
