<svg width="569" height="637" viewBox="0 0 569 637" fill="none" xmlns="http://www.w3.org/2000/svg">
<g clip-path="url(#clip0_51_2538)">
<path opacity="0.5" d="M562.905 517.134L395.911 613.674C388.353 618.062 377.139 618.549 370.801 614.649L4.38814 403.285C-2.19412 399.628 -1.21897 393.046 6.09465 388.658L173.089 292.118C180.646 287.73 191.861 287.242 198.199 291.143L564.368 502.506C571.194 506.407 570.463 512.989 562.905 517.134Z" fill="black"/>
<path d="M569 446.191L534.626 440.097L198.443 246.042C191.861 242.385 180.646 242.873 173.333 247.017L17.5526 337.218L-6.10352e-05 334.049V351.846C-6.10352e-05 354.284 1.46266 356.478 4.38811 358.184L370.557 569.792C377.139 573.449 388.353 572.961 395.667 568.817L562.661 472.277C566.806 469.839 569 466.913 568.756 463.988V446.191H569Z" fill="url(#paint0_linear_51_2538)"/>
<path d="M562.905 454.48L395.911 551.02C388.353 555.408 377.139 555.896 370.801 551.995L4.38814 340.632C-2.19412 336.975 -1.21897 330.393 6.09465 326.004L173.089 229.465C180.646 225.076 191.861 224.589 198.199 228.489L564.368 439.853C571.194 443.754 570.463 450.092 562.905 454.48Z" fill="url(#paint1_linear_51_2538)"/>
<path d="M562.905 452.286L395.911 548.826C388.353 553.214 377.139 553.702 370.801 549.801L4.38808 338.193C1.95021 336.731 0.487484 335.024 0.243697 333.074C-0.243878 335.756 1.21885 338.437 4.38808 340.388L370.557 551.995C377.139 555.652 388.353 555.164 395.667 551.02L562.661 454.48C567.293 451.798 569.488 448.385 568.756 444.972C568.512 447.654 566.562 450.092 562.905 452.286Z" fill="white"/>
<path d="M563.149 439.122L369.094 551.02L5.85089 341.363L200.15 229.465L563.149 439.122Z" fill="#0F65B2"/>
<path d="M114.824 273.346L88.9825 288.217C87.7636 288.949 86.0571 288.949 85.0819 288.461L84.8381 288.217C83.863 287.73 84.1068 286.755 85.0819 286.023L110.923 271.152C112.142 270.421 113.849 270.421 114.824 270.908L115.068 271.152C116.043 271.64 115.799 272.615 114.824 273.346Z" fill="#0063AD"/>
<path d="M447.106 304.064H118.725V480.078H447.106V304.064Z" fill="white"/>
<path d="M401.859 447.973C411.098 428.514 365.25 387.413 299.453 356.171C233.656 324.93 172.828 315.379 163.588 334.838C154.349 354.298 200.197 395.399 265.994 426.64C331.79 457.881 392.619 467.432 401.859 447.973Z" fill="white"/>
<path d="M401.418 447.764C410.6 428.426 364.902 387.518 299.349 356.392C233.795 325.266 173.21 315.71 164.028 335.048C154.847 354.386 200.545 395.294 266.098 426.42C331.652 457.546 392.237 467.102 401.418 447.764Z" fill="white"/>
<path d="M400.978 447.555C410.16 428.217 364.659 387.402 299.348 356.392C234.038 325.382 173.651 315.919 164.469 335.257C155.287 354.594 200.788 395.409 266.098 426.42C331.408 457.43 391.796 466.892 400.978 447.555Z" fill="white"/>
<path d="M400.537 447.346C409.662 428.129 364.311 387.507 299.244 356.612C234.177 325.717 174.033 316.25 164.909 335.466C155.785 354.682 201.136 395.305 266.203 426.199C331.27 457.094 391.413 466.562 400.537 447.346Z" fill="white"/>
<path d="M400.097 447.137C409.163 428.042 363.963 387.612 299.139 356.833C234.316 326.053 174.416 316.581 165.35 335.675C156.284 354.77 201.484 395.2 266.307 425.979C331.131 456.759 391.031 466.231 400.097 447.137Z" fill="#FEFFFF"/>
<path d="M399.436 446.822C408.503 427.728 363.598 387.438 299.139 356.832C234.68 326.226 175.077 316.894 166.01 335.988C156.944 355.083 201.848 395.373 266.307 425.979C330.766 456.585 390.37 465.917 399.436 446.822Z" fill="#FEFEFF"/>
<path d="M398.996 446.613C408.005 427.641 363.25 387.543 299.035 357.052C234.819 326.562 175.459 317.225 166.451 336.198C157.442 355.17 202.196 395.268 266.412 425.759C330.628 456.249 389.987 465.586 398.996 446.613Z" fill="#FEFEFF"/>
<path d="M398.556 446.405C407.564 427.432 363.007 387.427 299.035 357.053C235.063 326.678 175.9 317.434 166.891 336.407C157.883 355.38 202.44 395.384 266.412 425.759C330.384 456.134 389.547 465.377 398.556 446.405Z" fill="#FEFEFE"/>
<path d="M398.115 446.195C407.066 427.344 362.659 387.532 298.93 357.273C235.201 327.013 176.282 317.765 167.332 336.616C158.381 355.467 202.787 395.279 266.517 425.539C330.246 455.798 389.164 465.046 398.115 446.195Z" fill="#FDFEFE"/>
<path d="M397.675 445.986C406.568 427.257 362.312 387.637 298.826 357.493C235.34 327.349 176.665 318.096 167.772 336.825C158.879 355.555 203.135 395.175 266.621 425.319C330.107 455.463 388.782 464.716 397.675 445.986Z" fill="#FDFDFE"/>
<path d="M397.234 445.777C406.127 427.048 362.068 387.522 298.826 357.493C235.583 327.465 177.106 318.305 168.213 337.034C159.319 355.764 203.379 395.29 266.621 425.319C329.864 455.347 388.341 464.507 397.234 445.777Z" fill="#FDFDFE"/>
<path d="M396.794 445.568C405.629 426.96 361.721 387.626 298.721 357.713C235.722 327.8 177.488 318.636 168.653 337.244C159.818 355.852 203.726 395.186 266.726 425.099C329.725 455.012 387.959 464.176 396.794 445.568Z" fill="#FCFDFE"/>
<path d="M396.398 445.217C387.622 463.745 329.601 454.724 266.947 424.982C204.294 395.24 160.656 355.99 169.432 337.463C178.209 318.935 236.23 327.955 298.883 357.697C361.537 387.683 405.175 426.689 396.398 445.217Z" fill="#FCFDFE"/>
<path d="M395.693 445.045C404.47 426.559 361.008 387.558 298.617 357.933C236.225 328.309 178.532 319.28 169.754 337.766C160.977 356.253 204.439 395.254 266.83 424.878C329.222 454.503 386.915 463.532 395.693 445.045Z" fill="#FBFCFE"/>
<path d="M395.252 444.836C403.972 426.471 360.66 387.662 298.512 358.154C236.364 328.645 178.914 319.611 170.194 337.975C161.475 356.34 204.787 395.149 266.935 424.658C329.083 454.167 386.533 463.201 395.252 444.836Z" fill="#FBFCFD"/>
<path d="M394.812 444.627C403.532 426.262 360.417 387.547 298.512 358.154C236.607 328.76 179.355 319.82 170.635 338.185C161.915 356.549 205.03 395.265 266.935 424.658C328.84 454.051 386.092 462.992 394.812 444.627Z" fill="#FBFCFD"/>
<path d="M394.371 444.418C403.034 426.175 360.069 387.651 298.407 358.373C236.746 329.096 179.737 320.15 171.075 338.393C162.413 356.636 205.378 395.16 267.039 424.437C328.701 453.715 385.709 462.661 394.371 444.418Z" fill="#FAFBFD"/>
<path d="M393.931 444.209C402.535 426.087 359.721 387.756 298.303 358.594C236.885 329.431 180.12 320.481 171.516 338.603C162.911 356.724 205.726 395.055 267.144 424.217C328.562 453.38 385.327 462.33 393.931 444.209Z" fill="#FAFBFD"/>
<path d="M393.491 444C402.095 425.878 359.478 387.641 298.303 358.594C237.128 329.547 180.56 320.69 171.956 338.812C163.352 356.933 205.969 395.171 267.144 424.217C328.319 453.264 384.886 462.121 393.491 444Z" fill="#F9FBFD"/>
<path d="M393.05 443.79C401.597 425.791 359.13 387.745 298.198 358.814C237.267 329.883 180.943 321.021 172.397 339.021C163.85 357.021 206.317 395.066 267.248 423.997C328.18 452.928 384.504 461.79 393.05 443.79Z" fill="#F9FAFC"/>
<path d="M392.61 443.581C401.099 425.703 358.782 387.85 298.094 359.034C237.405 330.218 181.326 321.352 172.837 339.23C164.348 357.108 206.664 394.961 267.353 423.777C328.042 452.593 384.121 461.459 392.61 443.581Z" fill="#F8FAFC"/>
<path d="M392.169 443.372C400.658 425.494 358.539 387.735 298.094 359.034C237.648 330.334 181.766 321.561 173.277 339.439C164.789 357.317 206.908 395.077 267.353 423.777C327.798 452.477 383.68 461.25 392.169 443.372Z" fill="#F8FAFC"/>
<path d="M391.509 443.058C399.94 425.301 358.07 387.781 297.989 359.254C237.909 330.727 182.369 321.996 173.938 339.752C165.507 357.509 207.377 395.029 267.458 423.556C327.538 452.083 383.078 460.815 391.509 443.058Z" fill="#F7F9FC"/>
<path d="M391.068 442.85C399.499 425.093 357.826 387.666 297.989 359.255C238.152 330.843 182.81 322.206 174.378 339.962C165.947 357.719 207.62 395.145 267.458 423.557C327.295 451.969 382.637 460.606 391.068 442.85Z" fill="#F7F9FC"/>
<path d="M390.628 442.64C399.001 425.005 357.479 387.77 297.885 359.474C238.291 331.178 183.192 322.536 174.819 340.171C166.446 357.806 207.968 395.04 267.562 423.336C327.156 451.632 382.255 460.275 390.628 442.64Z" fill="#F6F9FB"/>
<path d="M390.187 442.432C398.503 424.919 357.131 387.876 297.78 359.696C238.429 331.515 183.575 322.868 175.259 340.381C166.944 357.894 208.316 394.936 267.667 423.117C327.017 451.298 381.872 459.945 390.187 442.432Z" fill="#F6F8FB"/>
<path d="M389.747 442.223C398.063 424.709 356.888 387.761 297.78 359.696C238.673 331.63 184.015 323.076 175.7 340.59C167.384 358.103 208.559 395.052 267.667 423.117C326.774 451.182 381.432 459.736 389.747 442.223Z" fill="#F5F8FB"/>
<path d="M389.307 442.013C397.564 424.621 356.54 387.865 297.675 359.915C238.811 331.965 184.398 323.407 176.14 340.798C167.882 358.19 208.907 394.946 267.771 422.896C326.635 450.846 381.049 459.405 389.307 442.013Z" fill="#F5F7FB"/>
<path d="M388.866 441.804C397.066 424.534 356.192 387.97 297.571 360.136C238.95 332.302 184.781 323.738 176.581 341.008C168.381 358.278 209.255 394.842 267.876 422.676C326.497 450.511 380.666 459.074 388.866 441.804Z" fill="#F4F7FB"/>
<path d="M388.426 441.595C396.626 424.325 355.949 387.854 297.571 360.136C239.193 332.417 185.221 323.947 177.021 341.217C168.821 358.487 209.498 394.958 267.876 422.676C326.254 450.395 380.226 458.865 388.426 441.595Z" fill="#F4F7FA"/>
<path d="M387.765 441.281C395.907 424.132 355.479 387.901 297.466 360.355C239.453 332.81 185.824 324.382 177.682 341.53C169.539 358.678 209.967 394.91 267.98 422.455C325.993 450.001 379.623 458.429 387.765 441.281Z" fill="#F3F6FA"/>
<path d="M387.325 441.072C395.467 423.923 355.236 387.785 297.466 360.355C239.697 332.925 186.264 324.591 178.122 341.739C169.98 358.888 210.211 395.026 267.98 422.456C325.75 449.885 379.182 458.22 387.325 441.072Z" fill="#F2F6FA"/>
<path d="M386.884 440.863C394.969 423.836 354.888 387.89 297.362 360.576C239.835 333.262 186.647 324.922 178.563 341.949C170.478 358.976 210.559 394.921 268.085 422.236C325.611 449.55 378.8 457.89 386.884 440.863Z" fill="#F2F5FA"/>
<path d="M386.444 440.654C394.471 423.749 354.54 387.995 297.257 360.796C239.974 333.597 187.03 325.253 179.003 342.158C170.976 359.063 210.906 394.817 268.189 422.016C325.473 449.214 378.417 457.559 386.444 440.654Z" fill="#F1F5F9"/>
<path d="M386.003 440.444C394.03 423.539 354.297 387.879 297.257 360.796C240.217 333.712 187.47 325.461 179.443 342.366C171.417 359.272 211.15 394.932 268.189 422.015C325.229 449.098 377.977 457.349 386.003 440.444Z" fill="#F1F4F9"/>
<path d="M385.563 440.235C393.532 423.452 353.949 387.984 297.153 361.016C240.356 334.048 187.853 325.792 179.884 342.576C171.915 359.359 211.497 394.827 268.294 421.795C325.091 448.763 377.594 457.019 385.563 440.235Z" fill="#F0F4F9"/>
<path d="M385.123 440.026C393.034 423.364 353.602 388.089 297.048 361.237C240.495 334.384 188.236 326.123 180.324 342.785C172.413 359.447 211.845 394.723 268.399 421.575C324.952 448.427 377.211 456.688 385.123 440.026Z" fill="#EFF4F9"/>
<path d="M384.682 439.817C392.594 423.155 353.358 387.974 297.048 361.237C240.738 334.5 188.676 326.332 180.765 342.994C172.853 359.656 212.088 394.838 268.399 421.575C324.709 448.312 376.771 456.479 384.682 439.817Z" fill="#EFF3F8"/>
<path d="M384.022 439.503C391.875 422.963 352.889 388.02 296.944 361.457C240.998 334.893 189.279 326.767 181.425 343.308C173.572 359.848 212.558 394.791 268.503 421.355C324.449 447.918 376.168 456.044 384.022 439.503Z" fill="#EEF3F8"/>
<path d="M383.581 439.295C391.377 422.876 352.541 388.126 296.839 361.677C241.137 335.229 189.662 327.099 181.866 343.518C174.07 359.936 212.906 394.687 268.608 421.135C324.31 447.583 375.785 455.714 383.581 439.295Z" fill="#EEF2F8"/>
<path d="M383.234 439.122C375.433 455.456 324.237 447.411 268.654 421.082C213.07 394.753 174.552 360.135 182.353 343.801C190.154 327.467 241.35 335.512 296.933 361.842C352.517 388.171 391.035 422.788 383.234 439.122Z" fill="#EDF2F8"/>
<path d="M382.7 438.876C390.438 422.579 351.95 388.115 296.734 361.897C241.519 335.68 190.485 327.638 182.747 343.936C175.008 360.233 213.497 394.697 268.712 420.915C323.928 447.132 374.962 455.174 382.7 438.876Z" fill="#ECF1F7"/>
<path d="M382.26 438.667C389.998 422.37 351.707 387.999 296.734 361.898C241.762 335.796 190.925 327.848 183.187 344.145C175.449 360.442 213.74 394.813 268.712 420.915C323.685 447.016 374.522 454.965 382.26 438.667Z" fill="#ECF1F7"/>
<path d="M381.819 438.458C389.5 422.283 351.359 388.104 296.63 362.118C241.901 336.131 191.308 328.178 183.627 344.354C175.947 360.529 214.088 394.708 268.817 420.694C323.546 446.681 374.139 454.634 381.819 438.458Z" fill="#EBF0F7"/>
<path d="M381.379 438.249C389.002 422.195 351.011 388.208 296.525 362.338C242.039 336.467 191.691 328.509 184.068 344.563C176.445 360.617 214.436 394.603 268.921 420.474C323.407 446.345 373.756 454.303 381.379 438.249Z" fill="#EAF0F6"/>
<path d="M380.939 438.039C388.561 421.985 350.768 388.093 296.525 362.337C242.283 336.582 192.131 328.718 184.508 344.771C176.886 360.825 214.679 394.718 268.921 420.474C323.164 446.229 373.316 454.093 380.939 438.039Z" fill="#EAEFF6"/>
<path d="M380.278 437.725C387.843 421.793 350.299 388.139 296.421 362.557C242.543 336.975 192.734 329.153 185.169 345.085C177.604 361.017 215.148 394.671 269.026 420.253C322.904 445.835 372.713 453.658 380.278 437.725Z" fill="#E9EFF6"/>
<path d="M379.837 437.517C387.345 421.706 349.951 388.244 296.316 362.778C242.682 337.311 193.116 329.484 185.609 345.294C178.102 361.105 215.496 394.567 269.13 420.033C322.765 445.5 372.33 453.327 379.837 437.517Z" fill="#E8EEF6"/>
<path d="M379.397 437.307C386.904 421.497 349.708 388.129 296.316 362.778C242.925 337.427 193.557 329.693 186.05 345.503C178.543 361.314 215.739 394.682 269.131 420.033C322.522 445.384 371.89 453.118 379.397 437.307Z" fill="#E7EEF5"/>
<path d="M379.09 437.172C371.532 452.774 322.531 445.217 269.385 419.863C216.239 394.509 179.184 361.354 186.741 345.751C194.299 330.149 243.3 337.706 296.446 363.06C349.591 388.171 386.647 421.326 379.09 437.172Z" fill="#E7EDF5"/>
<path d="M378.516 436.89C385.966 421.201 349.117 388.119 296.212 362.999C243.307 337.879 194.38 330.233 186.931 345.922C179.481 361.611 216.33 394.694 269.235 419.814C322.14 444.934 371.067 452.579 378.516 436.89Z" fill="#E6EDF5"/>
<path d="M378.076 436.68C385.467 421.113 348.769 388.223 296.107 363.218C243.445 338.214 194.763 330.564 187.371 346.131C179.979 361.698 216.678 394.589 269.34 419.593C322.001 444.598 370.684 452.248 378.076 436.68Z" fill="#E5ECF4"/>
<path d="M377.635 436.471C384.969 421.025 348.421 388.328 296.002 363.439C243.584 338.55 195.145 330.894 187.811 346.34C180.478 361.786 217.026 394.484 269.444 419.373C321.863 444.262 370.301 451.917 377.635 436.471Z" fill="#E5ECF4"/>
<path d="M377.195 436.263C384.529 420.817 348.178 388.213 296.003 363.439C243.827 338.666 195.586 331.104 188.252 346.55C180.918 361.996 217.269 394.6 269.444 419.374C321.619 444.147 369.861 451.709 377.195 436.263Z" fill="#E4EBF4"/>
<path d="M376.534 435.949C383.81 420.624 347.708 388.259 295.898 363.659C244.088 339.059 196.189 331.539 188.913 346.863C181.636 362.187 217.739 394.552 269.549 419.153C321.359 443.753 369.258 451.273 376.534 435.949Z" fill="#E3EBF4"/>
<path d="M376.094 435.74C383.312 420.537 347.361 388.364 295.793 363.88C244.226 339.395 196.571 331.87 189.353 347.073C182.135 362.275 218.086 394.448 269.653 418.933C321.22 443.418 368.875 450.943 376.094 435.74Z" fill="#E2EAF3"/>
<path d="M375.653 435.53C382.872 420.328 347.117 388.249 295.793 363.879C244.47 339.51 197.012 332.079 189.793 347.281C182.575 362.484 218.33 394.563 269.653 418.933C320.977 443.302 368.435 450.733 375.653 435.53Z" fill="#E2EAF3"/>
<path d="M375.213 435.321C382.374 420.24 346.77 388.353 295.689 364.099C244.608 339.845 197.395 332.409 190.234 347.49C183.073 362.571 218.677 394.458 269.758 418.712C320.839 442.966 368.052 450.402 375.213 435.321Z" fill="#E1E9F3"/>
<path d="M374.772 435.112C381.933 420.031 346.526 388.238 295.689 364.099C244.851 339.961 197.835 332.618 190.674 347.699C183.514 362.78 218.92 394.574 269.758 418.712C320.595 442.85 367.612 450.193 374.772 435.112Z" fill="#E0E8F2"/>
<path d="M374.332 434.903C381.435 419.943 346.178 388.342 295.584 364.319C244.99 340.296 198.218 332.949 191.115 347.908C184.012 362.868 219.268 394.469 269.862 418.492C320.457 442.515 367.229 449.862 374.332 434.903Z" fill="#DFE8F2"/>
<path d="M373.97 434.734C366.9 449.605 320.337 442.291 270.117 418.4C219.896 394.509 184.791 363.06 191.861 348.189C198.931 333.318 245.494 340.632 295.714 364.523C345.934 388.414 381.04 419.863 373.97 434.734Z" fill="#DFE7F2"/>
<path d="M373.451 434.484C380.496 419.646 345.587 388.331 295.48 364.539C245.372 340.747 199.041 333.488 191.996 348.326C184.95 363.164 219.859 394.479 269.967 418.271C320.075 442.063 366.406 449.322 373.451 434.484Z" fill="#DEE7F1"/>
<path d="M372.995 434.246C365.925 448.873 319.849 441.803 270.117 418.156C220.384 394.509 185.522 363.304 192.592 348.677C199.662 334.049 245.738 341.119 295.47 364.767C345.203 388.414 380.065 419.619 372.995 434.246Z" fill="#DDE6F1"/>
<path d="M372.35 433.961C379.28 419.367 344.77 388.483 295.271 364.98C245.771 341.476 200.026 334.255 193.097 348.849C186.167 363.444 220.677 394.328 270.176 417.831C319.676 441.334 365.421 448.556 372.35 433.961Z" fill="#DCE6F1"/>
<path d="M371.91 433.753C378.84 419.158 344.527 388.368 295.271 364.98C246.015 341.593 200.467 334.464 193.537 349.059C186.608 363.653 220.92 394.444 270.176 417.831C319.433 441.219 364.98 448.347 371.91 433.753Z" fill="#DCE5F0"/>
<path d="M371.469 433.544C378.341 419.071 344.179 388.473 295.166 365.201C246.153 341.929 200.849 334.795 193.978 349.268C187.106 363.741 221.268 394.339 270.281 417.611C319.294 440.884 364.598 448.017 371.469 433.544Z" fill="#DBE4F0"/>
<path d="M371.045 433.271C364.219 447.654 319.118 440.585 270.36 417.425C221.603 394.265 187.716 363.791 194.543 349.408C201.369 335.025 246.469 342.094 295.227 365.254C343.984 388.414 377.871 418.887 371.045 433.271Z" fill="#DAE4F0"/>
<path d="M370.589 433.126C377.403 418.775 343.588 388.462 295.062 365.421C246.535 342.38 201.673 335.335 194.858 349.686C188.044 364.038 221.859 394.35 270.385 417.391C318.912 440.432 363.774 447.477 370.589 433.126Z" fill="#D9E3EF"/>
<path d="M370.313 432.784C363.487 447.167 318.874 440.097 270.604 417.181C222.334 394.265 188.692 364.035 195.518 349.896C202.344 335.512 246.957 342.582 295.227 365.498C343.253 388.414 376.895 418.644 370.313 432.784Z" fill="#D8E3EF"/>
<path d="M369.708 432.707C376.464 418.478 342.997 388.451 294.957 365.641C246.917 342.831 202.496 335.875 195.739 350.105C188.983 364.334 222.45 394.361 270.49 417.171C318.53 439.981 362.951 446.937 369.708 432.707Z" fill="#D7E2EF"/>
<path d="M369.267 432.497C375.966 418.389 342.649 388.555 294.852 365.86C247.056 343.166 202.878 336.205 196.18 350.313C189.481 364.421 222.798 394.255 270.594 416.95C318.391 439.644 362.569 446.605 369.267 432.497Z" fill="#D7E1EE"/>
<path d="M368.607 432.184C375.248 418.198 342.18 388.603 294.748 366.081C247.316 343.56 203.481 336.641 196.84 350.627C190.199 364.613 223.267 394.209 270.699 416.73C318.131 439.252 361.966 446.171 368.607 432.184Z" fill="#D6E1EE"/>
<path d="M368.166 431.975C374.807 417.989 341.937 388.487 294.748 366.081C247.559 343.675 203.922 336.85 197.281 350.836C190.64 364.823 223.51 394.324 270.699 416.73C317.888 439.136 361.525 445.962 368.166 431.975Z" fill="#D5E0EE"/>
<path d="M367.875 431.808C361.293 445.704 317.899 438.878 270.848 416.449C223.797 394.265 191.129 364.767 197.712 350.871C204.294 336.975 247.688 343.801 294.739 366.229C341.79 388.658 374.458 417.912 367.875 431.808Z" fill="#D4E0ED"/>
<path d="M367.285 431.557C373.868 417.692 341.346 388.476 294.643 366.301C247.941 344.127 204.745 337.39 198.162 351.255C191.578 365.119 224.101 394.335 270.804 416.51C317.506 438.685 360.702 445.422 367.285 431.557Z" fill="#D3DFED"/>
<path d="M366.845 431.348C373.37 417.604 340.998 388.581 294.539 366.521C248.08 344.462 205.127 337.72 198.602 351.463C192.077 365.206 224.449 394.23 270.908 416.29C317.367 438.349 360.319 445.091 366.845 431.348Z" fill="#D2DEED"/>
<path d="M366.413 431.077C359.83 444.729 317.168 437.903 271.092 416.206C225.016 394.509 192.592 365.254 199.174 351.602C205.757 337.95 248.419 344.776 294.495 366.473C340.815 388.658 372.995 417.425 366.413 431.077Z" fill="#D2DEEC"/>
<path d="M365.964 430.929C372.432 417.308 340.407 388.57 294.434 366.742C248.462 344.913 205.95 338.26 199.483 351.882C193.015 365.503 225.04 394.241 271.013 416.07C316.985 437.898 359.496 444.551 365.964 430.929Z" fill="#D1DDEC"/>
<path d="M365.437 430.589C359.099 443.998 316.68 437.415 271.092 415.718C225.503 394.021 193.567 365.498 199.906 352.09C206.244 338.681 248.663 345.264 294.251 366.961C340.084 388.658 372.02 417.181 365.437 430.589Z" fill="#D0DCEC"/>
<path d="M364.95 430.346C358.611 443.754 316.68 437.172 271.092 415.718C225.503 394.265 194.055 365.742 200.393 352.334C206.732 338.925 248.663 345.508 294.251 366.961C339.84 388.658 371.532 416.937 364.95 430.346Z" fill="#CFDCEB"/>
<path d="M364.423 430.198C370.775 416.82 339.346 388.607 294.225 367.183C249.104 345.758 207.377 339.236 201.024 352.614C194.672 365.992 226.101 394.205 271.222 415.63C316.343 437.054 358.07 443.576 364.423 430.198Z" fill="#CEDBEB"/>
<path d="M363.982 429.989C370.277 416.732 338.999 388.712 294.121 367.403C249.243 346.094 207.759 339.567 201.465 352.823C195.171 366.08 226.449 394.101 271.327 415.409C316.205 436.718 357.688 443.246 363.982 429.989Z" fill="#CDDBEB"/>
<path d="M363.731 429.858C357.392 443.023 316.192 436.684 271.579 415.475C226.966 394.265 195.761 366.473 202.1 353.309C208.438 340.144 249.638 346.483 294.251 367.692C338.865 388.658 369.826 416.694 363.731 429.858Z" fill="#CCDAEA"/>
<path d="M363.101 429.57C369.338 416.435 338.407 388.7 294.016 367.623C249.624 346.545 208.582 340.106 202.346 353.241C196.109 366.376 227.039 394.111 271.431 415.189C315.822 436.266 356.865 442.705 363.101 429.57Z" fill="#CCD9EA"/>
<path d="M362.661 429.361C368.84 416.348 338.06 388.805 293.911 367.843C249.763 346.881 208.965 340.437 202.786 353.45C196.607 366.464 227.387 394.006 271.535 414.969C315.684 435.931 356.482 442.375 362.661 429.361Z" fill="#CBD9E9"/>
<path d="M362.22 429.152C368.399 416.139 337.816 388.69 293.911 367.843C250.006 346.996 209.405 340.646 203.226 353.66C197.048 366.673 227.63 394.122 271.535 414.969C315.44 435.815 356.041 442.166 362.22 429.152Z" fill="#CAD8E9"/>
<path d="M361.78 428.943C367.901 416.051 337.468 388.795 293.807 368.063C250.145 347.332 209.788 340.977 203.667 353.869C197.546 366.761 227.978 394.017 271.64 414.749C315.302 435.48 355.659 441.835 361.78 428.943Z" fill="#C9D7E9"/>
<path d="M361.293 428.639C355.198 441.56 315.217 435.221 271.823 414.499C228.429 394.021 198.199 366.717 204.294 354.04C210.389 341.119 250.37 347.458 293.764 368.18C337.158 388.902 367.388 415.962 361.293 428.639Z" fill="#C8D7E8"/>
<path d="M360.679 428.42C366.742 415.65 336.756 388.726 293.702 368.283C250.649 347.841 210.831 341.621 204.768 354.391C198.704 367.161 228.691 394.085 271.745 414.528C314.798 434.97 354.615 441.19 360.679 428.42Z" fill="#C7D6E8"/>
<path d="M360.238 428.211C366.244 415.562 336.408 388.83 293.598 368.503C250.787 348.176 211.214 341.952 205.208 354.6C199.203 367.249 229.039 393.981 271.849 414.308C314.659 434.635 354.233 440.859 360.238 428.211Z" fill="#C6D5E8"/>
<path d="M359.798 428.001C365.746 415.474 336.06 388.934 293.493 368.723C250.926 348.511 211.597 342.282 205.649 354.809C199.701 367.336 229.387 393.875 271.954 414.087C314.521 434.298 353.85 440.528 359.798 428.001Z" fill="#C5D5E7"/>
<path d="M359.343 427.908C353.492 440.341 314.242 434.246 272.067 414.256C229.648 394.265 200.15 367.692 206.244 355.259C212.095 342.826 251.345 348.921 293.52 368.911C335.939 388.902 365.437 415.231 359.343 427.908Z" fill="#C4D4E7"/>
<path d="M358.917 427.584C364.808 415.179 335.47 388.925 293.389 368.945C251.308 348.964 212.42 342.823 206.53 355.228C200.64 367.634 229.978 393.888 272.059 413.868C314.139 433.849 353.027 439.99 358.917 427.584Z" fill="#C3D3E6"/>
<path d="M358.611 427.42C352.76 439.853 313.998 433.759 272.311 413.768C230.623 394.021 201.368 367.692 207.219 355.503C213.07 343.07 251.832 349.164 293.52 369.155C335.208 388.902 364.462 414.987 358.611 427.42Z" fill="#C2D3E6"/>
<path d="M358.036 427.166C363.869 414.882 334.878 388.914 293.284 369.165C251.69 349.415 213.243 343.363 207.411 355.646C201.578 367.93 230.569 393.898 272.163 413.648C313.757 433.397 352.204 439.449 358.036 427.166Z" fill="#C1D2E6"/>
<path d="M357.636 426.933C351.785 439.122 313.754 433.027 272.311 413.524C230.867 394.021 202.344 368.18 207.951 355.99C213.802 343.801 251.832 349.896 293.276 369.399C334.72 388.902 363.487 414.743 357.636 426.933Z" fill="#C1D1E5"/>
<path d="M356.935 426.643C362.71 414.481 334.166 388.845 293.179 369.385C252.193 349.924 214.286 344.007 208.512 356.169C202.737 368.331 231.281 393.967 272.267 413.427C313.253 432.888 351.161 438.805 356.935 426.643Z" fill="#C0D1E5"/>
<path d="M356.495 426.434C362.212 414.393 333.818 388.95 293.075 369.605C252.332 350.259 214.669 344.338 208.952 356.378C203.235 368.419 231.629 393.862 272.372 413.207C313.115 432.552 350.778 438.474 356.495 426.434Z" fill="#BFD0E5"/>
<path d="M356.054 426.225C361.714 414.306 333.47 389.055 292.97 369.825C252.471 350.595 215.052 344.669 209.392 356.587C203.733 368.506 231.977 393.757 272.476 412.987C312.976 432.217 350.395 438.143 356.054 426.225Z" fill="#BECFE4"/>
<path d="M355.614 426.015C361.273 414.096 333.227 388.939 292.97 369.825C252.714 350.71 215.492 344.877 209.833 356.796C204.174 368.715 232.22 393.872 272.476 412.986C312.733 432.101 349.955 437.934 355.614 426.015Z" fill="#BDCEE4"/>
<path d="M355.174 425.806C360.775 414.009 332.879 389.044 292.866 370.045C252.853 351.046 215.875 345.208 210.273 357.005C204.672 368.802 232.568 393.767 272.581 412.766C312.594 431.765 349.572 437.603 355.174 425.806Z" fill="#BCCEE3"/>
<path d="M354.711 425.47C349.104 437.172 312.292 431.564 272.554 412.549C232.817 393.777 205.025 368.911 210.632 357.209C216.239 345.507 253.051 351.115 292.789 370.13C332.77 388.902 360.318 413.768 354.711 425.47Z" fill="#BBCDE3"/>
<path d="M354.292 425.387C359.836 413.712 332.288 389.033 292.761 370.265C253.234 351.497 216.698 345.747 211.154 357.423C205.61 369.099 233.159 393.778 272.685 412.546C312.212 431.313 348.749 437.063 354.292 425.387Z" fill="#BACCE3"/>
<path d="M353.852 425.179C359.338 413.625 331.94 389.138 292.657 370.485C253.373 351.833 217.08 346.079 211.594 357.632C206.108 369.186 233.507 393.673 272.79 412.326C312.073 430.978 348.366 436.732 353.852 425.179Z" fill="#B9CCE2"/>
<path d="M353.492 424.982C348.128 436.44 312.048 430.833 273.042 412.305C234.036 393.777 206.975 369.399 212.339 357.941C217.702 346.483 253.783 352.09 292.789 370.618C331.795 389.145 358.855 413.28 353.492 424.982Z" fill="#B8CBE2"/>
<path d="M352.751 424.656C358.18 413.224 331.227 389.07 292.552 370.706C253.877 352.342 218.124 346.724 212.696 358.156C207.267 369.588 234.219 393.743 272.895 412.106C311.57 430.47 347.323 436.089 352.751 424.656Z" fill="#B7CAE1"/>
<path d="M352.517 424.495C347.153 435.953 311.56 430.346 273.042 412.062C234.524 393.778 207.707 369.886 213.07 358.428C218.434 346.97 254.027 352.578 292.545 370.862C331.063 389.146 357.88 413.037 352.517 424.495Z" fill="#B6C9E1"/>
<path d="M351.87 424.239C357.241 412.928 330.636 389.059 292.448 370.927C254.259 352.794 218.947 347.264 213.576 358.575C208.206 369.885 234.81 393.754 272.999 411.886C311.188 430.019 346.5 435.549 351.87 424.239Z" fill="#B5C9E1"/>
<path d="M351.43 424.029C356.743 412.84 330.289 389.163 292.343 371.146C254.397 353.129 219.33 347.594 214.017 358.783C208.704 369.972 235.158 393.648 273.104 411.666C311.049 429.683 346.117 435.218 351.43 424.029Z" fill="#B4C8E0"/>
<path d="M350.989 423.82C356.302 412.631 330.045 389.048 292.343 371.146C254.641 353.245 219.77 347.803 214.457 358.992C209.144 370.181 235.401 393.764 273.104 411.666C310.806 429.567 345.677 435.009 350.989 423.82Z" fill="#B3C7E0"/>
<path d="M350.566 423.519C345.203 434.49 310.829 429.126 273.286 411.33C235.986 393.533 209.901 370.13 215.021 359.159C220.384 348.189 254.758 353.552 292.301 371.349C329.844 389.145 355.93 412.549 350.566 423.519Z" fill="#B2C7DF"/>
<path d="M350.109 423.402C355.306 412.456 329.35 389.258 292.134 371.587C254.918 353.916 220.535 348.465 215.338 359.411C210.141 370.357 236.097 393.555 273.313 411.225C310.529 428.896 344.911 434.348 350.109 423.402Z" fill="#B1C6DF"/>
<path d="M349.448 423.087C354.645 412.141 328.985 389.083 292.134 371.586C255.283 354.089 221.196 348.777 215.999 359.723C210.802 370.669 236.462 393.727 273.313 411.224C310.164 428.722 344.251 434.033 349.448 423.087Z" fill="#B0C5DE"/>
<path d="M349.008 422.878C354.147 412.054 328.637 389.189 292.029 371.807C255.421 354.425 221.579 349.109 216.439 359.933C211.3 370.757 236.81 393.623 273.417 411.005C310.025 428.387 343.868 433.703 349.008 422.878Z" fill="#AFC4DE"/>
<path d="M348.567 422.669C353.649 411.967 328.289 389.293 291.925 372.027C255.56 354.761 221.961 349.44 216.88 360.142C211.798 370.845 237.158 393.518 273.522 410.785C309.887 428.051 343.485 433.372 348.567 422.669Z" fill="#AEC4DE"/>
<path d="M348.129 422.545C343.009 433.271 309.61 427.908 273.53 410.843C237.449 393.778 212.339 371.106 217.215 360.379C222.334 349.652 255.733 355.016 291.814 372.081C328.138 389.146 353.248 411.818 348.129 422.545Z" fill="#ADC3DD"/>
<path d="M347.885 422.301C342.765 432.783 309.61 427.664 273.773 410.599C237.937 393.534 212.826 371.105 217.946 360.622C223.065 350.139 256.221 355.259 292.057 372.324C327.894 389.145 352.76 411.574 347.885 422.301Z" fill="#ACC2DD"/>
<path d="M347.246 422.042C352.27 411.461 327.455 389.167 291.82 372.247C256.185 355.327 223.225 350.188 218.201 360.769C213.177 371.35 237.992 393.644 273.627 410.564C309.261 427.484 342.222 432.623 347.246 422.042Z" fill="#ABC1DC"/>
<path d="M346.806 421.834C351.772 411.374 327.107 389.273 291.716 372.468C256.324 355.664 223.608 350.52 218.642 360.979C213.675 371.439 238.34 393.54 273.731 410.345C309.123 427.149 341.839 432.293 346.806 421.834Z" fill="#AAC1DC"/>
<path d="M346.365 421.624C351.274 411.286 326.759 389.377 291.611 372.688C256.463 355.999 223.99 350.85 219.082 361.188C214.173 371.526 238.688 393.435 273.836 410.124C308.984 426.813 341.457 431.962 346.365 421.624Z" fill="#A9C0DC"/>
<path d="M345.705 421.31C350.613 410.973 326.395 389.204 291.611 372.688C256.828 356.172 224.651 351.164 219.743 361.502C214.834 371.84 239.053 393.609 273.836 410.124C308.619 426.64 340.796 431.648 345.705 421.31Z" fill="#A8BFDB"/>
<path d="M345.447 421.082C340.571 431.321 308.635 426.201 274.017 409.868C239.399 393.534 215.264 371.837 220.14 361.598C225.016 351.359 256.952 356.478 291.57 372.812C326.188 389.389 350.323 410.843 345.447 421.082Z" fill="#A7BEDB"/>
<path d="M344.824 420.892C349.617 410.797 325.699 389.413 291.402 373.128C257.105 356.843 225.416 351.825 220.623 361.92C215.83 372.014 239.748 393.399 274.045 409.684C308.342 425.968 340.031 430.986 344.824 420.892Z" fill="#A6BEDA"/>
<path d="M344.472 420.594C339.596 430.59 308.147 425.714 274.017 409.624C239.887 393.534 216.239 372.081 221.115 362.085C225.991 352.09 257.44 356.966 291.57 373.056C325.456 389.389 349.347 410.599 344.472 420.594Z" fill="#A5BDDA"/>
<path d="M343.943 420.474C348.678 410.501 325.108 389.402 291.297 373.349C257.487 357.295 226.239 352.365 221.504 362.338C216.769 372.311 240.339 393.41 274.149 409.464C307.96 425.517 339.207 430.447 343.943 420.474Z" fill="#A4BCD9"/>
<path d="M343.502 420.264C348.238 410.292 324.865 389.286 291.297 373.348C257.73 357.41 226.68 352.574 221.945 362.547C217.209 372.52 240.582 393.525 274.15 409.463C307.717 425.401 338.767 430.237 343.502 420.264Z" fill="#A3BBD9"/>
<path d="M343.009 420.107C338.377 429.858 307.66 425.226 274.261 409.38C240.862 393.534 217.702 372.812 222.334 363.06C226.966 353.309 257.683 357.941 291.082 373.787C324.481 389.389 347.885 410.111 343.009 420.107Z" fill="#A1BAD8"/>
<path d="M342.521 419.863C337.89 429.614 307.416 424.739 274.261 409.136C241.35 393.534 218.19 372.812 222.822 363.06C227.454 353.309 257.927 358.185 291.082 373.787C324.237 389.389 347.153 410.111 342.521 419.863Z" fill="#A0BAD8"/>
<path d="M341.961 419.532C346.581 409.803 323.804 389.323 291.088 373.789C258.372 358.255 228.106 353.549 223.486 363.279C218.866 373.009 241.643 393.489 274.359 409.023C307.075 424.557 337.341 429.262 341.961 419.532Z" fill="#9FB9D8"/>
<path d="M341.79 419.375C337.158 428.883 307.172 424.251 274.748 408.892C242.081 393.29 219.409 373.056 224.041 363.548C228.673 354.04 258.658 358.672 291.082 374.031C323.506 389.389 346.178 409.867 341.79 419.375Z" fill="#9EB8D7"/>
<path d="M341.08 419.113C345.584 409.627 323.108 389.531 290.879 374.228C258.649 358.925 228.871 354.21 224.367 363.696C219.862 373.183 242.338 393.278 274.567 408.581C306.797 423.884 336.575 428.6 341.08 419.113Z" fill="#9DB7D7"/>
<path d="M340.815 418.888C336.427 428.395 306.685 423.763 274.748 408.405C242.812 393.046 220.384 373.299 225.016 363.792C229.404 354.284 259.146 358.916 291.082 374.274C323.018 389.389 345.203 409.38 340.815 418.888Z" fill="#9CB6D6"/>
<path d="M340.327 418.644C335.939 427.908 306.441 423.52 274.749 408.405C243.056 393.29 220.872 373.543 225.26 364.036C229.648 354.772 259.146 359.16 290.839 374.275C322.531 389.39 344.716 409.38 340.327 418.644Z" fill="#9BB6D6"/>
<path d="M339.84 418.4C335.452 427.664 306.197 423.032 274.749 408.161C243.3 393.29 221.359 373.543 225.747 364.279C230.135 355.015 259.39 359.647 290.839 374.518C322.287 389.389 344.228 409.136 339.84 418.4Z" fill="#9AB5D5"/>
<path d="M339.318 418.278C343.707 409.035 321.926 389.511 290.67 374.67C259.414 359.829 230.517 355.291 226.129 364.534C221.74 373.777 243.52 393.301 274.777 408.142C306.033 422.983 334.929 427.521 339.318 418.278Z" fill="#99B4D5"/>
<path d="M338.865 417.912C334.476 427.176 305.953 422.544 274.992 407.917C244.031 393.29 222.334 373.787 226.722 364.767C231.111 355.503 259.634 360.135 290.595 374.762C321.556 389.389 343.253 408.892 338.865 417.912Z" fill="#98B3D4"/>
<path d="M338.217 417.756C342.548 408.634 321.214 389.443 290.566 374.89C259.917 360.338 231.561 355.936 227.23 365.057C222.899 374.179 244.233 393.37 274.881 407.922C305.53 422.475 333.886 426.877 338.217 417.756Z" fill="#97B2D4"/>
<path d="M337.889 417.669C333.501 426.689 305.466 422.301 274.992 407.673C244.519 393.29 223.309 374.275 227.697 365.254C232.086 356.234 260.121 360.623 290.595 375.25C321.068 389.633 342.278 408.649 337.889 417.669Z" fill="#96B2D4"/>
<path d="M337.402 417.425C333.257 426.445 305.222 422.057 274.992 407.673C244.763 393.29 223.797 374.518 227.941 365.498C232.086 356.478 260.121 360.866 290.351 375.249C320.581 389.633 341.79 408.405 337.402 417.425Z" fill="#94B1D3"/>
<path d="M336.896 417.127C341.111 408.249 320.275 389.536 290.356 375.33C260.438 361.124 232.767 356.805 228.551 365.684C224.335 374.562 245.172 393.275 275.091 407.481C305.009 421.687 332.68 426.006 336.896 417.127Z" fill="#93B0D3"/>
<path d="M336.67 416.937C332.526 425.714 304.978 421.325 275.48 407.43C245.738 393.29 225.016 374.762 229.404 365.986C233.548 357.209 261.096 361.597 290.595 375.493C320.093 389.633 340.815 408.161 336.67 416.937Z" fill="#92AFD2"/>
<path d="M336.015 416.709C340.173 407.953 319.684 389.525 290.252 375.55C260.82 361.575 233.59 357.345 229.432 366.102C225.274 374.859 245.763 393.286 275.195 407.261C304.627 421.236 331.857 425.466 336.015 416.709Z" fill="#91AED2"/>
<path d="M335.575 416.5C339.675 407.865 319.336 389.63 290.147 375.77C260.958 361.911 233.972 357.676 229.872 366.311C225.772 374.946 246.111 393.181 275.3 407.041C304.488 420.9 331.474 425.135 335.575 416.5Z" fill="#90AED1"/>
<path d="M335.134 416.291C339.176 407.777 318.988 389.734 290.043 375.99C261.097 362.247 234.355 358.006 230.313 366.52C226.27 375.033 246.459 393.076 275.404 406.82C304.35 420.564 331.092 424.804 335.134 416.291Z" fill="#8FADD1"/>
<path d="M334.694 416.081C338.736 407.568 318.745 389.619 290.043 375.99C261.34 362.362 234.795 358.215 230.753 366.729C226.711 375.242 246.702 393.192 275.404 406.82C304.107 420.448 330.652 424.595 334.694 416.081Z" fill="#8EACD0"/>
<path d="M334.233 415.718C330.332 424.007 304.003 420.107 275.724 406.454C247.444 393.046 227.454 375.25 231.598 366.961C235.499 358.672 261.828 362.573 290.107 376.225C318.386 389.633 338.133 407.43 334.233 415.718Z" fill="#8DABD0"/>
<path d="M333.593 415.56C337.52 407.29 317.928 389.772 289.834 376.432C261.739 363.092 235.781 358.983 231.854 367.253C227.928 375.523 247.519 393.041 275.614 406.381C303.708 419.721 329.666 423.83 333.593 415.56Z" fill="#8CAACF"/>
<path d="M333.152 415.35C337.079 407.08 317.685 389.655 289.833 376.431C261.982 363.207 236.221 359.191 232.295 367.462C228.368 375.732 247.762 393.156 275.613 406.38C303.464 419.604 329.225 423.62 333.152 415.35Z" fill="#8AA9CF"/>
<path d="M332.77 415.231C328.869 423.276 303.272 419.375 275.724 406.211C248.176 393.046 228.916 375.737 232.817 367.692C236.718 359.647 262.315 363.548 289.863 376.712C317.411 389.633 336.671 406.942 332.77 415.231Z" fill="#89A9CF"/>
<path d="M332.282 414.987C328.382 423.032 303.272 419.132 275.724 406.211C248.42 393.29 229.404 376.225 233.061 367.936C236.962 359.891 262.072 363.792 289.62 376.713C317.168 389.633 336.183 406.942 332.282 414.987Z" fill="#88A8CE"/>
<path d="M331.831 414.723C335.643 406.696 316.746 389.75 289.625 376.872C262.503 363.995 237.427 360.063 233.616 368.089C229.805 376.116 248.701 393.063 275.823 405.941C302.944 418.818 328.02 422.75 331.831 414.723Z" fill="#87A7CE"/>
<path d="M331.391 414.513C335.144 406.608 316.398 389.854 289.52 377.092C262.642 364.33 237.81 360.392 234.056 368.298C230.303 376.203 249.049 392.957 275.927 405.719C302.805 418.482 327.637 422.419 331.391 414.513Z" fill="#86A6CD"/>
<path d="M331.063 414.255C327.407 422.057 302.784 418.156 276.211 405.723C249.638 393.046 231.111 376.468 234.767 368.667C238.424 360.866 263.047 364.767 289.62 377.2C316.192 389.877 334.72 406.454 331.063 414.255Z" fill="#85A5CD"/>
<path d="M330.576 414.012C326.919 421.813 302.54 417.912 276.211 405.479C249.882 393.046 231.598 376.468 235.255 368.667C238.912 360.866 263.29 364.767 289.619 377.2C315.949 389.877 334.233 406.21 330.576 414.012Z" fill="#84A4CC"/>
<path d="M329.849 413.782C333.487 406.12 315.337 389.89 289.311 377.532C263.284 365.174 239.236 361.368 235.598 369.03C231.96 376.692 250.109 392.921 276.136 405.279C302.163 417.637 326.211 421.444 329.849 413.782Z" fill="#82A4CC"/>
<path d="M329.601 413.525C325.944 421.082 302.053 417.425 276.211 405.236C250.37 393.046 232.329 376.956 235.986 369.155C239.643 361.598 263.534 365.255 289.376 377.444C315.217 389.633 333.257 405.967 329.601 413.525Z" fill="#81A3CB"/>
<path d="M328.968 413.363C332.548 405.823 314.746 389.879 289.206 377.752C263.666 365.625 240.059 361.907 236.479 369.448C232.898 376.988 250.7 392.932 276.241 405.059C301.781 417.185 325.388 420.903 328.968 413.363Z" fill="#80A2CB"/>
<path d="M328.625 413.037C324.969 420.594 301.809 416.938 276.455 404.748C251.101 392.803 233.548 376.957 237.205 369.399C240.862 361.842 264.022 365.499 289.376 377.688C314.729 389.877 332.038 405.723 328.625 413.037Z" fill="#7FA1CA"/>
<path d="M328.138 413.037C324.725 420.35 301.565 416.693 276.455 404.992C251.345 393.046 234.036 377.444 237.449 370.13C240.862 362.816 264.022 366.473 289.132 378.175C314.242 389.877 331.551 405.479 328.138 413.037Z" fill="#7EA0CA"/>
<path d="M327.647 412.736C331.112 405.439 313.808 389.974 288.997 378.193C264.187 366.413 241.265 362.779 237.8 370.076C234.335 377.373 251.639 392.838 276.45 404.619C301.261 416.399 324.182 420.034 327.647 412.736Z" fill="#7D9FC9"/>
<path d="M327.163 412.549C323.75 419.863 301.078 416.206 276.455 404.504C251.833 392.802 234.767 377.444 238.18 370.374C241.593 363.06 264.266 366.717 288.888 378.419C313.511 389.877 330.576 405.235 327.163 412.549Z" fill="#7B9EC9"/>
<path d="M326.675 412.306C323.262 419.375 300.834 415.962 276.699 404.504C252.32 393.046 235.499 377.931 238.912 370.618C242.325 363.548 264.753 366.961 288.888 378.419C313.267 389.877 330.088 404.992 326.675 412.306Z" fill="#7A9EC8"/>
<path d="M326.188 412.062C322.775 419.131 300.59 415.718 276.699 404.26C252.808 392.802 235.986 377.931 239.399 370.862C242.812 363.792 264.997 367.205 288.888 378.663C313.023 389.877 329.601 404.992 326.188 412.062Z" fill="#799DC8"/>
<path d="M325.7 411.818C322.287 418.888 300.346 415.475 276.699 404.017C253.051 392.802 236.474 377.931 239.643 370.862C243.056 363.792 264.997 367.205 288.644 378.663C312.536 389.877 329.113 404.748 325.7 411.818Z" fill="#789CC7"/>
<path d="M325.225 411.587C328.516 404.654 312.156 389.999 288.684 378.854C265.211 367.709 243.514 364.294 240.222 371.226C236.931 378.159 253.291 392.813 276.764 403.958C300.236 415.104 321.933 418.519 325.225 411.587Z" fill="#779BC7"/>
<path d="M324.969 411.33C321.799 418.156 300.346 414.743 276.943 403.773C253.783 392.802 237.449 378.175 240.862 371.349C244.031 364.523 265.485 367.936 288.888 378.906C312.048 390.12 328.138 404.504 324.969 411.33Z" fill="#759AC6"/>
<path d="M324.481 411.086C321.312 417.912 300.102 414.499 276.943 403.529C253.783 392.558 237.937 378.175 241.106 371.593C244.275 364.767 265.485 368.18 288.644 379.15C311.56 390.121 327.65 404.26 324.481 411.086Z" fill="#7499C6"/>
<path d="M323.903 410.958C327.079 404.269 311.217 390.092 288.474 379.293C265.731 368.495 244.72 365.163 241.544 371.852C238.368 378.542 254.23 392.718 276.973 403.517C299.716 414.316 320.727 417.647 323.903 410.958Z" fill="#7398C5"/>
<path d="M323.506 410.599C320.337 417.181 299.615 414.012 277.186 403.285C254.758 392.559 239.156 378.663 242.325 372.081C245.494 365.498 266.216 368.667 288.644 379.394C311.073 390.121 326.675 404.017 323.506 410.599Z" fill="#7297C5"/>
<path d="M323.018 410.599C319.849 417.181 299.371 414.012 277.186 403.285C255.002 392.802 239.643 378.906 242.569 372.324C245.494 365.742 266.216 368.911 288.401 379.638C310.585 390.121 326.188 404.017 323.018 410.599Z" fill="#7197C4"/>
<path d="M322.531 410.355C319.362 416.937 299.127 413.768 277.186 403.285C255.245 392.802 239.887 379.15 243.056 372.568C246.225 365.986 266.46 369.155 288.401 379.638C310.341 390.121 325.7 403.773 322.531 410.355Z" fill="#6F96C4"/>
<path d="M322.043 410.111C319.118 416.45 298.883 413.28 277.186 403.041C255.489 392.802 240.374 379.15 243.544 372.812C246.469 366.473 266.704 369.643 288.401 379.882C310.098 390.121 325.213 403.529 322.043 410.111Z" fill="#6E95C3"/>
<path d="M321.556 409.867C318.63 416.206 298.64 413.037 277.43 402.798C255.977 392.559 241.106 379.15 244.031 372.812C246.957 366.473 266.947 369.643 288.157 379.882C309.61 390.121 324.725 403.529 321.556 409.867Z" fill="#6D94C3"/>
<path d="M321.068 409.624C318.143 415.962 298.64 412.793 277.43 402.798C256.221 392.802 241.593 379.638 244.519 373.299C247.444 366.961 266.947 370.13 288.157 380.125C309.366 390.121 323.994 403.285 321.068 409.624Z" fill="#6C93C2"/>
<path d="M320.581 409.38C317.655 415.475 298.396 412.549 277.43 402.554C256.465 392.558 242.081 379.638 245.007 373.299C247.932 367.205 267.191 370.13 288.157 380.125C309.123 390.121 323.506 403.285 320.581 409.38Z" fill="#6B92C2"/>
<path d="M320.16 409.182C323.047 403.101 308.627 390.213 287.952 380.396C267.276 370.579 248.175 367.551 245.287 373.632C242.4 379.713 256.82 392.601 277.496 402.418C298.171 412.235 317.273 415.263 320.16 409.182Z" fill="#6991C1"/>
<path d="M319.849 408.892C316.924 414.987 298.152 412.061 277.674 402.31C257.196 392.558 243.056 379.881 245.982 373.787C248.907 367.692 267.679 370.617 288.157 380.369C308.635 390.12 322.531 402.797 319.849 408.892Z" fill="#6890C1"/>
<path d="M319.362 408.648C316.436 414.499 297.908 411.574 277.918 402.066C257.683 392.558 243.788 379.881 246.469 374.031C249.395 368.18 267.923 371.105 287.913 380.613C308.147 390.121 322.043 402.797 319.362 408.648Z" fill="#678FC0"/>
<path d="M318.874 408.405C316.192 414.256 297.665 411.33 277.918 402.066C257.927 392.559 244.275 380.126 246.957 374.275C249.638 368.424 268.166 371.349 287.913 380.613C307.66 390.121 321.556 402.554 318.874 408.405Z" fill="#668FC0"/>
<path d="M318.387 408.161C315.705 414.012 297.421 411.086 277.918 401.822C258.415 392.558 244.519 380.369 247.444 374.518C250.126 368.667 268.41 371.593 287.913 380.856C307.416 390.12 321.068 402.554 318.387 408.161Z" fill="#648EBF"/>
<path d="M317.737 408.031C320.451 402.315 306.975 390.237 287.638 381.056C268.3 371.874 250.424 369.064 247.71 374.781C244.995 380.497 258.471 392.574 277.809 401.756C297.147 410.938 315.023 413.747 317.737 408.031Z" fill="#638DBF"/>
<path d="M317.411 407.917C314.73 413.524 297.177 410.843 277.918 401.822C258.902 392.802 245.494 380.857 248.176 375.25C250.857 369.643 268.41 372.324 287.669 381.344C306.685 390.364 320.093 402.066 317.411 407.917Z" fill="#628CBE"/>
<path d="M316.924 407.673C314.242 413.28 296.933 410.599 277.918 401.579C259.146 392.559 245.982 380.857 248.663 375.25C251.345 369.643 268.654 372.324 287.669 381.344C306.685 390.364 319.605 402.066 316.924 407.673Z" fill="#618BBE"/>
<path d="M316.436 407.43C313.754 413.037 296.689 410.111 278.161 401.335C259.634 392.558 246.713 380.857 249.151 375.493C251.832 369.886 268.898 372.812 287.425 381.588C306.197 390.364 319.118 401.822 316.436 407.43Z" fill="#5F8ABD"/>
<path d="M315.975 407.193C318.574 401.72 305.793 390.215 287.428 381.495C269.064 372.775 252.07 370.143 249.471 375.616C246.872 381.089 259.653 392.594 278.018 401.314C296.383 410.034 313.377 412.666 315.975 407.193Z" fill="#5E89BD"/>
<path d="M315.461 406.942C313.023 412.305 296.202 409.624 278.162 401.091C260.121 392.558 247.444 381.344 250.126 375.981C252.564 370.618 269.385 373.299 287.425 381.832C305.466 390.364 318.143 401.579 315.461 406.942Z" fill="#5D88BC"/>
<path d="M314.973 406.698C312.536 412.062 295.958 409.38 278.162 400.847C260.365 392.315 247.932 381.344 250.37 375.981C252.808 370.618 269.385 373.299 287.182 381.832C305.222 390.364 317.655 401.335 314.973 406.698Z" fill="#5C87BC"/>
<path d="M314.486 406.454C312.048 411.574 295.714 409.136 278.162 400.847C260.609 392.558 248.42 381.588 250.857 376.468C253.295 371.349 269.629 373.787 287.182 382.075C304.734 390.364 317.168 401.335 314.486 406.454Z" fill="#5A86BB"/>
<path d="M314.242 406.21C311.804 411.33 295.714 408.892 278.649 400.603C261.34 392.315 249.395 381.588 251.833 376.468C254.27 371.349 270.36 373.787 287.426 382.075C304.491 390.364 316.436 401.091 314.242 406.21Z" fill="#5985BB"/>
<path d="M313.755 405.967C311.317 411.086 295.714 408.648 278.649 400.36C261.584 392.315 249.638 381.588 252.076 376.712C254.514 371.593 270.117 374.031 287.182 382.319C304.247 390.364 315.949 401.091 313.755 405.967Z" fill="#5884BA"/>
<path d="M313.267 405.723C310.829 410.599 295.47 408.161 278.649 400.36C261.828 392.315 250.126 381.832 252.564 376.956C255.002 372.08 270.36 374.518 287.182 382.319C303.759 390.364 315.461 400.847 313.267 405.723Z" fill="#5784BA"/>
<path d="M312.779 405.723C310.341 410.599 295.227 408.161 278.649 400.36C262.072 392.559 250.614 382.32 253.051 377.2C255.489 372.324 270.604 374.762 287.182 382.563C303.515 390.365 314.973 400.604 312.779 405.723Z" fill="#5583B9"/>
<path d="M312.292 405.479C310.098 410.355 294.983 407.917 278.649 400.116C262.315 392.315 251.101 382.319 253.295 377.444C255.489 372.568 270.604 375.006 286.938 382.807C303.272 390.364 314.486 400.603 312.292 405.479Z" fill="#5482B9"/>
<path d="M311.804 405.235C309.61 409.867 294.739 407.673 278.649 400.116C262.559 392.558 251.589 382.563 253.783 377.687C255.977 373.055 270.848 375.249 286.938 382.807C302.784 390.364 313.998 400.36 311.804 405.235Z" fill="#5381B8"/>
<path d="M311.317 404.992C309.123 409.624 294.495 407.43 278.893 399.872C263.047 392.315 252.076 382.563 254.27 377.931C256.464 373.299 271.092 375.493 286.694 383.051C302.54 390.364 313.511 400.36 311.317 404.992Z" fill="#5280B8"/>
<path d="M310.829 404.748C308.635 409.38 294.252 407.186 278.893 399.628C263.291 392.315 252.564 382.563 254.758 377.931C256.952 373.299 271.336 375.493 286.694 383.051C302.297 390.364 313.023 400.116 310.829 404.748Z" fill="#507FB7"/>
<path d="M310.341 404.504C308.147 408.892 294.008 406.698 278.893 399.628C263.778 392.315 253.051 382.807 255.245 378.419C257.44 374.031 271.579 376.225 286.694 383.295C301.809 390.364 312.536 400.116 310.341 404.504Z" fill="#4F7EB7"/>
<path d="M309.854 404.26C307.66 408.648 294.008 406.454 278.893 399.385C264.022 392.315 253.539 383.051 255.489 378.419C257.683 374.031 271.335 376.225 286.45 383.295C301.565 390.608 312.048 399.872 309.854 404.26Z" fill="#4E7DB6"/>
<path d="M309.366 404.017C307.416 408.405 293.764 406.211 278.893 399.141C264.266 392.071 254.027 383.051 255.977 378.663C257.927 374.274 271.579 376.469 286.45 383.538C301.321 390.608 311.56 399.628 309.366 404.017Z" fill="#4C7CB5"/>
<path d="M308.879 403.773C306.928 408.161 293.52 405.967 279.137 399.141C264.753 392.315 254.514 383.295 256.708 378.907C258.659 374.518 272.067 376.712 286.45 383.538C300.834 390.608 311.073 399.628 308.879 403.773Z" fill="#4B7BB5"/>
<path d="M308.635 403.529C306.685 407.673 293.52 405.723 279.381 398.897C265.241 392.071 255.246 383.294 257.196 379.15C259.146 375.006 272.311 376.956 286.45 383.782C300.59 390.608 310.585 399.384 308.635 403.529Z" fill="#4A7AB4"/>
<path d="M308.147 403.285C306.197 407.429 293.276 405.479 279.38 398.653C265.484 392.071 255.733 383.294 257.683 379.15C259.634 375.006 272.554 376.956 286.45 383.782C300.346 390.608 310.098 399.384 308.147 403.285Z" fill="#4979B4"/>
<path d="M307.66 403.285C305.709 407.43 293.033 405.235 279.38 398.897C265.728 392.315 256.221 383.782 258.171 379.881C260.121 375.737 272.798 377.931 286.45 384.27C299.859 390.608 309.61 399.141 307.66 403.285Z" fill="#4778B3"/>
<path d="M307.172 403.042C305.222 406.942 292.789 404.992 279.38 398.653C265.972 392.315 256.708 383.782 258.415 379.882C260.365 375.981 272.798 377.931 286.206 384.27C299.615 390.608 308.879 398.897 307.172 403.042Z" fill="#4677B3"/>
<path d="M306.685 402.798C304.734 406.698 292.789 404.748 279.624 398.409C266.46 392.071 257.196 384.026 259.146 380.125C261.096 376.225 273.042 378.175 286.207 384.514C299.371 390.608 308.391 398.897 306.685 402.798Z" fill="#4576B2"/>
<path d="M306.197 402.554C304.491 406.454 292.545 404.504 279.624 398.41C266.704 392.315 257.683 384.27 259.634 380.369C261.34 376.469 273.286 378.419 286.207 384.514C298.884 390.608 307.904 398.653 306.197 402.554Z" fill="#4375B2"/>
<path d="M305.71 402.31C304.003 405.967 292.301 404.26 279.624 398.166C266.947 392.071 258.171 384.27 259.878 380.613C261.584 376.956 273.286 378.663 285.963 384.757C298.64 390.608 307.416 398.653 305.71 402.31Z" fill="#4274B1"/>
<path d="M305.222 402.066C303.516 405.723 292.058 404.016 279.624 398.166C267.191 392.315 258.659 384.513 260.365 380.857C262.072 377.2 273.53 378.906 285.963 384.757C298.396 390.608 306.929 398.409 305.222 402.066Z" fill="#4173B1"/>
<path d="M304.734 401.823C303.028 405.479 291.814 403.529 279.624 397.922C267.435 392.071 259.146 384.514 260.853 381.101C262.559 377.444 273.773 379.394 285.963 385.001C297.908 390.608 306.441 398.166 304.734 401.823Z" fill="#3F72B0"/>
<path d="M304.304 401.652C305.979 398.125 297.674 390.678 285.756 385.019C273.837 379.36 262.817 377.631 261.142 381.158C259.468 384.685 267.772 392.132 279.691 397.792C291.61 403.451 302.63 405.179 304.304 401.652Z" fill="#3E72B0"/>
<path d="M303.759 401.335C302.053 404.748 291.326 403.041 279.868 397.678C268.166 392.071 260.121 385.001 261.828 381.588C263.534 378.175 274.261 379.881 285.719 385.245C297.421 390.608 305.466 397.922 303.759 401.335Z" fill="#3D71AF"/>
<path d="M303.272 401.091C301.565 404.504 291.082 402.797 279.868 397.434C268.41 392.071 260.609 385.001 262.315 381.588C264.022 378.175 274.505 379.881 285.719 385.245C297.177 390.608 304.978 397.922 303.272 401.091Z" fill="#3B70AE"/>
<path d="M303.028 400.847C301.565 404.016 291.326 402.554 280.112 397.19C268.898 391.827 261.34 385.001 262.803 381.832C264.266 378.662 274.505 380.125 285.719 385.488C296.689 390.852 304.491 397.678 303.028 400.847Z" fill="#3A6FAE"/>
<path d="M302.54 400.603C301.078 403.773 291.082 402.31 280.112 397.19C269.385 392.071 261.828 385.245 263.291 382.076C264.753 378.906 274.749 380.369 285.719 385.489C296.446 390.852 304.003 397.434 302.54 400.603Z" fill="#396EAD"/>
<path d="M302.053 400.604C300.59 403.773 290.839 402.31 280.112 397.191C269.629 392.071 262.072 385.489 263.534 382.319C264.997 379.15 274.749 380.613 285.475 385.733C296.202 390.852 303.515 397.434 302.053 400.604Z" fill="#376DAD"/>
<path d="M301.565 400.36C300.102 403.529 290.595 401.823 280.356 396.947C270.117 392.071 262.803 385.489 264.266 382.563C265.728 379.394 275.236 381.101 285.475 385.976C295.714 390.852 303.028 397.191 301.565 400.36Z" fill="#366CAC"/>
<path d="M301.078 400.116C299.615 403.041 290.351 401.579 280.356 396.947C270.36 392.071 263.291 385.976 264.753 382.807C266.216 379.882 275.48 381.344 285.475 385.976C295.47 390.852 302.54 397.19 301.078 400.116Z" fill="#356BAC"/>
<path d="M300.59 399.872C299.127 402.798 290.107 401.335 280.356 396.703C270.604 392.071 263.778 385.976 264.997 383.051C266.46 380.125 275.48 381.588 285.231 386.22C295.227 390.852 302.053 396.947 300.59 399.872Z" fill="#336AAB"/>
<path d="M300.102 399.628C298.883 402.554 289.863 401.091 280.356 396.459C270.848 391.827 264.266 385.976 265.485 383.051C266.704 380.125 275.724 381.588 285.231 386.22C294.739 390.852 301.565 396.703 300.102 399.628Z" fill="#3269AB"/>
<path d="M299.615 399.384C298.396 402.066 289.62 400.847 280.356 396.459C271.092 392.071 264.51 386.22 265.972 383.538C267.191 380.857 275.968 382.076 285.231 386.464C294.495 390.852 300.834 396.703 299.615 399.384Z" fill="#3168AA"/>
<path d="M299.127 399.141C297.908 401.822 289.62 400.603 280.356 396.215C271.336 391.827 264.997 386.22 266.216 383.538C267.435 380.857 275.724 382.076 284.988 386.464C294.252 390.852 300.346 396.459 299.127 399.141Z" fill="#2F67AA"/>
<path d="M298.579 398.934C299.791 396.38 293.676 390.939 284.919 386.782C276.162 382.624 268.081 381.324 266.868 383.878C265.655 386.432 271.771 391.873 280.528 396.031C289.284 400.188 297.366 401.488 298.579 398.934Z" fill="#2E66A9"/>
<path d="M298.152 398.653C296.933 401.091 289.132 399.872 280.599 395.972C272.067 391.827 266.216 386.708 267.435 384.026C268.654 381.588 276.455 382.807 284.988 386.708C293.52 390.852 299.371 396.215 298.152 398.653Z" fill="#2D65A8"/>
<path d="M297.665 398.409C296.446 400.847 288.888 399.628 280.599 395.728C272.311 391.827 266.704 386.708 267.679 384.27C268.898 381.832 276.455 383.051 284.744 386.951C293.276 390.852 298.883 395.971 297.665 398.409Z" fill="#2B64A8"/>
<path d="M297.421 398.166C296.202 400.603 288.888 399.384 280.843 395.484C272.798 391.583 267.191 386.708 268.41 384.27C269.629 381.832 276.943 383.051 284.988 386.951C292.789 390.852 298.396 395.971 297.421 398.166Z" fill="#2A63A7"/>
<path d="M296.933 398.166C295.958 400.36 288.644 399.385 280.843 395.728C273.042 392.071 267.679 387.195 268.898 385.001C269.873 382.807 277.186 383.782 284.988 387.439C292.545 390.852 297.908 395.728 296.933 398.166Z" fill="#2962A7"/>
<path d="M296.446 397.922C295.47 400.116 288.401 399.141 281.087 395.484C273.53 391.827 268.41 387.195 269.385 385.001C270.36 382.807 277.43 383.782 284.744 387.439C292.301 390.852 297.421 395.728 296.446 397.922Z" fill="#2761A6"/>
<path d="M295.958 397.678C294.983 399.872 288.157 398.653 281.087 395.24C273.773 391.827 268.898 387.195 269.873 385.245C270.848 383.051 277.674 384.27 284.744 387.683C291.814 390.852 296.933 395.484 295.958 397.678Z" fill="#2660A6"/>
<path d="M295.47 397.434C294.495 399.385 288.157 398.409 281.087 395.24C274.017 391.827 269.385 387.683 270.36 385.489C271.335 383.538 277.674 384.514 284.744 387.683C291.57 391.096 296.446 395.24 295.47 397.434Z" fill="#255FA5"/>
<path d="M294.983 397.191C294.008 399.141 287.913 398.166 281.087 394.997C274.261 391.827 269.629 387.683 270.604 385.733C271.579 383.782 277.674 384.757 284.5 387.927C291.326 391.096 295.958 395.24 294.983 397.191Z" fill="#235EA4"/>
<path d="M294.495 396.947C293.52 398.897 287.669 397.922 281.087 394.753C274.749 391.584 270.117 387.683 271.092 385.733C272.067 383.782 277.918 384.757 284.5 387.927C290.839 391.096 295.47 394.997 294.495 396.947Z" fill="#225DA4"/>
<path d="M294.008 396.703C293.033 398.653 287.425 397.678 281.331 394.753C275.236 391.827 270.848 387.927 271.579 386.22C272.554 384.27 278.162 385.245 284.256 388.17C290.595 391.096 294.983 394.996 294.008 396.703Z" fill="#205CA3"/>
<path d="M293.52 396.459C292.789 398.166 287.182 397.434 281.331 394.509C275.48 391.583 271.336 387.927 272.067 386.22C272.798 384.514 278.405 385.245 284.256 388.17C290.351 391.096 294.495 394.753 293.52 396.459Z" fill="#1F5BA3"/>
<path d="M293.033 396.215C292.301 397.922 286.938 397.19 281.331 394.265C275.724 391.583 271.579 387.927 272.554 386.464C273.286 384.757 278.649 385.489 284.256 388.414C289.863 391.096 294.008 394.509 293.033 396.215Z" fill="#1E5AA2"/>
<path d="M292.633 396.111C293.384 394.53 289.556 391.142 284.083 388.543C278.61 385.945 273.565 385.12 272.814 386.701C272.063 388.282 275.891 391.67 281.364 394.269C286.837 396.867 291.882 397.692 292.633 396.111Z" fill="#1C59A2"/>
<path d="M292.057 395.728C291.326 397.191 286.45 396.459 281.331 394.021C276.211 391.584 272.554 388.414 273.286 386.708C274.017 385.245 278.893 385.976 284.012 388.414C289.376 391.096 292.789 394.265 292.057 395.728Z" fill="#1B58A1"/>
<path d="M291.814 395.728C291.082 397.191 286.694 396.459 281.574 394.021C276.699 391.584 273.286 388.658 274.017 387.195C274.748 385.733 279.137 386.464 284.256 388.902C288.888 391.096 292.301 394.265 291.814 395.728Z" fill="#1957A0"/>
<path d="M291.326 395.484C290.595 396.947 286.45 396.215 281.818 394.021C277.186 391.827 274.017 388.902 274.505 387.439C275.236 385.976 279.38 386.708 284.012 388.902C288.644 391.096 291.814 394.021 291.326 395.484Z" fill="#1856A0"/>
<path d="M290.838 395.24C290.107 396.459 286.206 395.972 281.818 393.778C277.43 391.584 274.261 388.902 274.992 387.683C275.724 386.464 279.624 386.952 284.012 389.146C288.401 391.096 291.326 393.778 290.838 395.24Z" fill="#17559F"/>
<path d="M290.351 394.997C289.863 396.216 285.963 395.728 281.818 393.778C277.674 391.827 274.749 389.146 275.48 387.927C275.968 386.708 279.868 387.195 284.013 389.146C287.913 391.096 290.839 393.778 290.351 394.997Z" fill="#15549F"/>
<path d="M289.863 394.753C289.376 395.972 285.719 395.24 281.818 393.534C277.918 391.584 275.236 389.389 275.724 388.17C276.211 386.952 279.868 387.683 283.769 389.389C287.669 391.096 290.351 393.534 289.863 394.753Z" fill="#14539E"/>
<path d="M289.376 394.509C288.888 395.484 285.475 394.996 281.818 393.29C278.162 391.583 275.724 389.389 276.211 388.17C276.699 387.195 280.112 387.683 283.769 389.389C287.425 391.096 289.863 393.534 289.376 394.509Z" fill="#12529E"/>
<path d="M288.888 394.265C288.401 395.24 285.231 394.753 282.062 393.29C278.649 391.583 276.455 389.633 276.943 388.658C277.43 387.683 280.599 388.17 283.769 389.633C286.938 391.096 289.376 393.29 288.888 394.265Z" fill="#11519D"/>
<path d="M288.4 394.021C287.913 394.996 284.987 394.509 282.062 393.046C278.893 391.583 276.699 389.633 277.186 388.658C277.674 387.683 280.599 388.17 283.525 389.633C286.694 391.34 288.888 393.046 288.4 394.021Z" fill="#104F9C"/>
<path d="M287.913 393.778C287.425 394.509 284.987 394.265 282.062 392.802C279.137 391.34 277.186 389.633 277.674 388.902C278.161 388.17 280.599 388.414 283.525 389.877C286.45 391.34 288.4 393.046 287.913 393.778Z" fill="#0E4E9C"/>
<path d="M287.425 393.533C287.182 394.265 284.744 394.021 282.062 392.802C279.38 391.583 277.674 389.877 278.162 389.145C278.405 388.414 280.843 388.658 283.525 389.877C285.963 391.339 287.913 392.802 287.425 393.533Z" fill="#0D4D9B"/>
<path d="M286.938 393.29C286.694 394.021 284.5 393.534 282.062 392.559C279.624 391.34 278.162 390.121 278.405 389.389C278.649 388.658 280.843 389.146 283.281 390.121C285.719 391.34 287.425 392.803 286.938 393.29Z" fill="#0B4C9B"/>
<path d="M286.45 393.29C286.207 394.021 284.256 393.534 282.306 392.559C280.356 391.583 278.893 390.365 279.137 389.633C279.38 388.902 281.331 389.389 283.281 390.365C285.475 391.34 286.938 392.559 286.45 393.29Z" fill="#0A4B9A"/>
<path d="M286.207 393.046C285.963 393.534 284.256 393.29 282.55 392.559C280.843 391.584 279.381 390.608 279.624 390.121C279.868 389.633 281.575 389.877 283.281 390.608C284.988 391.34 286.45 392.315 286.207 393.046Z" fill="#094A9A"/>
<path d="M285.719 392.803C285.475 393.29 284.012 393.046 282.55 392.315C281.087 391.584 279.868 390.608 280.112 390.121C280.356 389.633 281.818 389.877 283.281 390.608C284.744 391.34 285.719 392.315 285.719 392.803Z" fill="#074999"/>
<path d="M285.231 392.559C284.988 393.046 283.769 392.803 282.55 392.071C281.331 391.34 280.356 390.609 280.599 390.365C280.843 389.877 282.062 390.121 283.281 390.852C284.5 391.584 285.231 392.071 285.231 392.559Z" fill="#064898"/>
<path d="M284.744 392.314C284.5 392.558 283.525 392.558 282.55 392.071C281.575 391.583 280.843 390.852 280.843 390.608C281.087 390.364 282.062 390.364 283.037 390.852C284.012 391.339 284.744 392.071 284.744 392.314Z" fill="#044798"/>
<path d="M284.256 392.071C284.256 392.314 283.525 392.071 282.55 391.827C281.818 391.339 281.331 391.095 281.331 390.852C281.331 390.608 282.062 390.852 283.037 391.096C283.769 391.339 284.256 391.827 284.256 392.071Z" fill="#034697"/>
<path d="M283.769 391.827C283.769 392.071 283.281 391.827 282.794 391.583C282.306 391.339 281.818 391.095 282.062 390.852C282.062 390.608 282.55 390.852 283.037 391.096C283.525 391.339 283.769 391.583 283.769 391.827Z" fill="#014597"/>
<path d="M283.281 391.583C283.281 391.583 283.037 391.583 282.794 391.583C282.55 391.34 282.306 391.34 282.306 391.34C282.306 391.34 282.55 391.34 282.794 391.34C283.037 391.34 283.281 391.583 283.281 391.583Z" fill="#004496"/>
<path opacity="0.4" d="M541.105 175.259L278.302 327.139C272.939 330.308 265.138 330.552 260.506 327.87L99.6058 234.987C94.9739 232.306 95.7052 227.674 100.825 224.748L363.628 72.8687C368.991 69.6995 376.792 69.4557 381.424 72.1373L542.324 165.02C546.956 167.702 546.468 172.334 541.105 175.259Z" fill="white"/>
<path opacity="0.2" d="M513.557 178.429L283.422 311.293C278.79 313.974 271.72 314.218 267.819 312.024L126.91 230.599C123.01 228.405 123.497 224.261 128.129 221.579L358.264 88.7148C362.896 86.0332 369.966 85.7894 373.867 87.9834L514.776 169.408C518.677 171.603 518.189 175.747 513.557 178.429Z" fill="#041860"/>
<path d="M268.307 330.552C265.138 330.552 262.212 329.821 260.018 328.602L99.1183 235.719C96.9242 234.5 95.4615 232.549 95.4615 230.355C95.4615 227.917 97.168 225.48 100.337 223.773L363.14 71.8934C368.747 68.7241 377.036 68.4803 381.912 71.162L542.812 164.045C545.006 165.264 546.468 167.214 546.468 169.408C546.468 171.846 544.762 174.284 541.593 175.991L278.79 327.87C275.62 329.577 271.964 330.552 268.307 330.552ZM373.867 71.162C370.454 71.162 367.041 71.8934 364.359 73.5999L101.312 225.48C98.8745 226.942 97.4118 228.649 97.4118 230.599C97.4118 232.062 98.3869 233.281 100.093 234.256L260.993 327.139C265.381 329.577 272.939 329.333 277.815 326.408L540.617 174.528C543.055 173.065 544.518 171.359 544.518 169.408C544.518 167.946 543.543 166.727 541.836 165.752L380.937 72.8685C378.986 71.6496 376.548 71.162 373.867 71.162Z" fill="white"/>
<path d="M545.493 130.89L542.568 133.084C542.568 133.084 542.568 133.084 542.324 133.084L381.424 40.2012C376.792 37.5195 368.747 38.0071 363.628 40.9325L100.825 192.812C100.093 193.056 99.6058 193.544 99.1182 194.031L96.4365 192.081V198.663C96.4365 200.37 97.4117 202.076 99.6058 203.295L260.506 296.178C265.137 298.86 273.182 298.372 278.302 295.447L541.105 143.567C544.03 141.861 545.493 139.666 545.493 137.716V130.89Z" fill="white"/>
<path d="M541.105 136.741L278.302 288.621C272.939 291.79 265.138 292.034 260.506 289.352L99.3621 196.225C94.7301 193.544 95.4615 188.912 100.581 185.986L363.384 34.1065C368.747 30.9373 376.548 30.6935 381.18 33.3751L542.08 126.258C546.956 129.184 546.468 133.572 541.105 136.741Z" fill="url(#paint2_linear_51_2538)"/>
<path d="M333.642 106.755L310.97 93.5909L316.577 90.4216C317.552 89.934 318.527 89.4465 319.502 88.9589C320.477 88.7151 321.452 88.4713 322.428 88.2275C323.403 88.2275 324.622 88.2275 325.597 88.4713C326.572 88.7151 327.791 89.2027 328.766 89.6903C331.448 91.3968 331.935 92.8595 330.229 94.3222C331.935 93.5909 333.398 93.3471 334.861 93.5909C336.324 93.8347 338.03 94.3222 339.737 95.2974C341.931 96.5163 342.906 97.7352 342.906 98.9542C342.906 100.173 341.931 101.392 339.737 102.611L333.642 106.755ZM324.378 96.7601L325.597 96.0287C326.816 95.2974 327.303 94.8098 327.303 94.0784C327.303 93.5909 326.572 92.8595 325.353 92.1281C324.622 91.6406 324.134 91.3968 323.647 91.3968C323.159 91.153 322.671 91.153 321.94 91.3968C321.452 91.3968 320.965 91.6406 320.477 91.8844C319.99 92.1281 319.258 92.3719 318.771 92.8595L318.283 93.1033L324.378 96.7601ZM334.861 102.855L336.323 101.88C337.542 101.148 338.03 100.417 338.03 99.9293C338.03 99.4418 337.299 98.7104 335.836 97.979C334.373 97.2477 333.154 96.7601 332.179 96.7601C330.96 96.7601 329.741 97.0039 328.522 97.7352L327.303 98.4666L334.861 102.855Z" fill="white"/>
<path d="M348.025 98.7102L329.985 83.1078L334.373 80.6699L361.677 91.1528L357.777 93.3469L351.682 90.909L347.782 93.1031L352.17 96.7599L348.025 98.7102ZM345.344 90.909L348.269 89.2025L337.542 84.8143L345.344 90.909Z" fill="white"/>
<path d="M363.628 89.4464L340.956 76.2819L343.881 74.5753L362.165 78.7197L349.244 71.4061L352.657 69.4558L375.33 82.6203L372.648 84.0831L353.632 79.4511L367.041 87.2523L363.628 89.4464Z" fill="white"/>
<path d="M378.742 80.67L356.07 67.5055L360.215 65.0676L369.966 70.6748L364.603 62.386L368.503 60.1919L374.354 68.4807L391.663 72.8688L387.519 75.3067L372.892 71.4061L373.623 72.6251L382.887 77.9884L378.742 80.67Z" fill="white"/>
<path d="M309.263 232.793L258.799 261.804L252.948 258.391L303.412 229.38L309.263 232.793Z" fill="white"/>
<path d="M371.185 196.956L320.721 225.967L314.87 222.798L365.334 193.543L371.185 196.956Z" fill="white"/>
<path d="M433.107 161.12L382.643 190.374L376.792 186.961L427.256 157.95L433.107 161.12Z" fill="white"/>
<path d="M495.029 125.527L444.565 154.538L438.714 151.124L489.178 122.114L495.029 125.527Z" fill="white"/>
<g filter="url(#filter0_d_51_2538)">
<path d="M537.551 326.735L456.614 279.684C440.524 270.421 425.409 268.958 413.951 275.54C402.493 282.122 396.155 296.018 396.155 314.546V320.397C396.642 320.885 397.374 321.128 397.861 321.616V314.546C397.861 296.75 403.712 283.341 414.683 277.247C425.409 270.908 440.036 272.371 455.395 281.391L536.332 328.442C536.82 328.686 537.308 328.442 537.551 328.198C538.039 327.467 537.795 326.979 537.551 326.735Z" fill="white"/>
<path d="M285.231 270.664V88.5552C285.231 51.9871 259.634 7.61776 227.941 -10.6663C212.583 -19.6864 197.955 -21.1492 186.741 -14.8107C175.771 -8.47221 169.676 4.9361 169.676 22.7326V35.4095C170.164 35.8971 170.895 36.6285 171.383 37.1161V22.7326C171.383 5.42368 177.234 -7.25327 187.473 -13.348C197.955 -19.4426 211.851 -17.9799 226.722 -9.44736C257.927 8.59291 283.037 52.2309 283.037 88.3114V270.664C283.037 300.894 300.834 336.731 324.969 358.184C324.969 357.453 324.969 356.478 324.969 355.746C302.296 334.537 285.231 299.919 285.231 270.664Z" fill="white"/>
<path d="M325.456 357.453C325.456 357.453 304.978 336.487 296.933 319.178C288.888 301.869 284.744 285.779 284.744 271.639C284.5 257.256 284.5 134.631 284.5 134.631C284.5 134.631 285.475 83.6793 283.281 75.6343C281.087 67.5893 276.211 24.6827 234.036 -6.03448C191.861 -36.7517 171.139 -3.5966 171.383 13.7123C171.626 31.0212 171.383 42.2354 171.383 42.2354C171.383 42.2354 194.299 60.7633 203.075 87.3361C211.851 113.909 212.583 109.277 212.826 135.85C213.07 162.179 213.07 296.506 213.07 296.506C213.07 296.506 211.12 320.153 216.971 338.193C222.822 356.478 233.305 376.712 245.982 389.876C258.415 403.041 276.943 418.643 294.008 417.181C311.073 415.718 322.531 409.379 325.944 382.319V357.453H325.456Z" fill="white"/>
<path d="M186.741 -14.8108L116.043 25.9017L171.383 42.4793L186.741 -14.8108Z" fill="white"/>
<path d="M396.399 320.397V328.686C392.498 325.76 373.97 313.083 356.417 313.815C336.671 314.546 330.088 332.586 330.088 332.586C330.088 332.586 325.456 345.995 325.7 352.333C325.7 353.308 325.7 354.771 325.944 355.99L325.7 355.746C325.7 356.478 325.7 357.453 325.7 358.184C325.944 358.184 325.944 358.428 326.188 358.428C326.432 364.523 326.431 371.349 326.431 371.349C326.431 371.349 326.675 383.294 324.969 391.339C321.8 405.723 309.854 413.768 308.879 414.987L381.527 373.299H381.771L382.015 373.055L382.503 372.811C392.985 366.229 398.836 353.308 398.836 336V321.616C397.617 321.128 396.886 320.885 396.399 320.397Z" fill="url(#paint3_linear_51_2538)"/>
<path d="M339.84 318.447L414.195 275.54C414.195 275.54 426.872 268.958 442.23 274.565C457.589 280.172 537.795 328.198 537.795 328.198L466.122 369.398C466.122 369.398 382.746 317.715 372.995 315.277C352.76 310.158 339.84 318.447 339.84 318.447Z" fill="white"/>
<path d="M169.676 41.0166C166.751 38.3349 153.098 26.1455 133.108 23.2201C110.436 19.8071 101.172 46.1361 101.172 46.1361C101.172 46.1361 98.4901 59.7882 98.7339 68.077C98.7339 76.122 99.4652 105.62 99.4652 105.62L170.895 64.4202C171.139 64.1764 171.383 63.9326 171.383 63.6888V42.7231C170.895 41.9917 170.407 41.7479 169.676 41.0166Z" fill="url(#paint4_linear_51_2538)"/>
<path d="M294.495 418.4C286.694 418.4 277.918 415.718 268.898 410.599C237.449 392.558 212.095 348.189 212.095 312.108V129.755C212.095 93.9186 186.741 50.0369 155.78 31.9966C140.909 23.464 127.013 22.0013 116.53 28.096C106.047 34.1907 100.44 46.8676 100.44 64.1766V104.889C100.44 105.377 99.9528 105.864 99.4652 105.864C98.9776 105.864 98.4901 105.377 98.4901 104.889V63.9328C98.4901 46.1363 104.585 32.728 115.555 26.3895C126.526 20.051 141.153 21.5137 156.755 30.2901C188.448 48.5742 214.045 92.9435 214.045 129.512V311.865C214.045 347.458 239.155 391.096 270.116 408.892C284.987 417.425 298.64 418.887 309.122 412.793C319.605 406.698 325.212 394.021 325.212 376.956V355.503C325.212 336.975 331.551 323.079 343.009 316.497C354.467 309.914 369.582 311.377 385.672 320.641L466.609 367.692C467.097 367.936 467.097 368.423 466.853 368.911C466.609 369.399 466.122 369.399 465.634 369.155L384.209 322.591C368.85 313.571 354.223 312.108 343.496 318.447C332.77 324.785 326.675 337.95 326.675 355.746V377.2C326.675 394.996 320.58 408.161 309.61 414.499C304.978 416.937 299.859 418.4 294.495 418.4Z" fill="url(#paint5_linear_51_2538)"/>
<path d="M231.111 169.736V163.154L238.668 159.01V165.348L231.111 169.736Z" fill="#DDE1ED"/>
<path d="M252.32 145.357V139.019L266.704 130.73V137.069L252.32 145.357Z" fill="#DDE1ED"/>
<path d="M231.842 144.139V137.556L266.704 117.566V124.148L231.842 144.139Z" fill="#DDE1ED"/>
<path d="M244.031 162.179V155.84L273.042 139.019V145.601L244.031 162.179Z" fill="#DDE1ED"/>
<path d="M231.842 157.303V150.721L246.225 142.676V149.014L231.842 157.303Z" fill="#DDE1ED"/>
<path d="M240.374 232.39V238.728L231.598 243.848V237.265L240.374 232.39Z" fill="#DDE1ED"/>
<path d="M256.221 223.125V229.464L247.444 234.584V228.245L256.221 223.125Z" fill="#DDE1ED"/>
<path d="M265.972 205.573V211.911L231.842 231.658V225.076L265.972 205.573Z" fill="#DDE1ED"/>
<path d="M248.907 185.095V178.756L265.972 169.005V175.343L248.907 185.095Z" fill="#DDE1ED"/>
<path d="M231.598 195.09V188.752L240.374 183.632V190.214L231.598 195.09Z" fill="#DDE1ED"/>
<path d="M231.598 207.279V200.697L248.176 191.189V197.528L231.598 207.279Z" fill="#DDE1ED"/>
<path d="M255.002 193.627V187.289L265.972 180.95V187.289L255.002 193.627Z" fill="#DDE1ED"/>
<path d="M248.907 259.937V253.599L265.972 243.847V250.186L248.907 259.937Z" fill="#DDE1ED"/>
<path d="M231.598 270.177V263.594L240.374 258.719V265.057L231.598 270.177Z" fill="#DDE1ED"/>
<path d="M231.598 282.122V275.784L248.176 266.032V272.371L231.598 282.122Z" fill="#DDE1ED"/>
<path d="M255.002 268.47V262.132L265.972 255.793V262.376L255.002 268.47Z" fill="#DDE1ED"/>
<path d="M433.21 328.686L427.603 325.516L435.161 321.128L440.768 324.297L433.21 328.686Z" fill="#DDE1ED"/>
<path d="M443.937 310.402L438.33 307.233L452.713 298.944L458.32 302.113L443.937 310.402Z" fill="#DDE1ED"/>
<path d="M412.001 315.765L406.638 312.352L441.255 292.361L446.862 295.531L412.001 315.765Z" fill="#DDE1ED"/>
<path d="M445.887 321.372L440.524 317.959L469.535 301.381L474.898 304.551L445.887 321.372Z" fill="#DDE1ED"/>
<path d="M423.459 322.347L417.852 318.934L432.235 310.889L437.842 314.059L423.459 322.347Z" fill="#DDE1ED"/>
</g>
<path d="M53.1457 343.313L49.9764 345.264L42.1752 340.632L45.5883 338.925L53.1457 343.313Z" fill="white"/>
<path d="M59.2404 339.9L56.0712 341.606L48.27 337.218L51.4392 335.512L59.2404 339.9Z" fill="white"/>
<path d="M65.0913 336.487L61.9221 338.194L54.1209 333.806L57.5339 331.855L65.0913 336.487Z" fill="white"/>
<path d="M71.1859 332.83L68.0167 334.781L60.2155 330.392L63.3847 328.442L71.1859 332.83Z" fill="white"/>
<path d="M494.401 444.241L437.111 411.086C435.648 410.355 433.942 409.867 432.235 409.623C432.235 409.623 432.235 409.623 431.991 409.623C431.748 409.623 431.26 409.623 431.016 409.623C430.772 409.623 430.772 409.623 430.529 409.623C430.285 409.623 429.797 409.623 429.553 409.867C429.31 409.867 429.31 409.867 429.066 409.867C428.822 409.867 428.335 410.111 428.091 410.111C427.847 410.111 427.847 410.111 427.603 410.111C427.116 410.355 426.872 410.355 426.384 410.598L383.478 435.465L342.765 459.112L338.865 459.6V463.257V463.744C339.108 464.719 339.84 465.694 341.302 466.67L398.836 499.825C400.299 500.556 402.005 501.044 403.712 501.287C403.712 501.287 403.712 501.287 403.956 501.287C404.2 501.287 404.687 501.287 404.931 501.287C405.175 501.287 405.175 501.287 405.418 501.287C405.662 501.287 406.15 501.287 406.394 501.044C406.637 501.044 406.637 501.044 406.881 501.044C407.125 501.044 407.613 500.8 407.856 500.8C408.1 500.8 408.1 500.8 408.344 500.8C408.832 500.556 409.075 500.556 409.563 500.312L495.132 450.823C496.595 450.092 497.083 449.117 497.083 447.898V444.485L494.401 444.241Z" fill="white"/>
<path d="M340.815 456.918L383.721 432.052L450.275 470.326L409.319 496.168C406.394 497.874 401.762 497.631 398.836 495.924L341.302 463.013C338.377 461.306 338.133 458.625 340.815 456.918Z" fill="url(#paint6_linear_51_2538)"/>
<path d="M426.628 407.185L383.721 432.052L449.788 470.082L494.889 446.679C497.814 444.972 497.57 442.291 494.401 440.584L436.867 407.429C434.185 405.723 429.31 405.723 426.628 407.185Z" fill="url(#paint7_linear_51_2538)"/>
<path d="M496.839 443.51C497.083 444.729 496.351 445.948 494.889 446.679L409.319 496.168C407.856 497.143 405.662 497.387 403.712 497.387L409.319 446.679L496.839 443.51Z" fill="url(#paint8_linear_51_2538)"/>
<path d="M339.108 460.087C338.865 458.868 339.596 457.649 341.059 456.918L426.628 407.429C428.091 406.454 430.285 406.21 432.235 406.21L426.628 456.674L339.108 460.087Z" fill="url(#paint9_linear_51_2538)"/>
<path d="M404.2 475.934C403.956 475.934 403.956 475.934 403.712 475.934H402.737C401.03 475.69 399.568 475.202 398.349 474.471L340.815 441.316C339.596 440.584 338.621 439.609 338.377 438.634H338.133L337.889 437.659V437.415C337.889 437.171 337.889 436.928 337.889 436.684C337.889 436.44 337.889 436.44 337.889 436.44C337.889 436.196 338.133 435.952 338.133 435.709C338.133 435.465 338.133 435.465 338.377 435.465C338.621 435.221 338.865 434.977 338.865 434.733L339.108 434.49C339.352 434.246 339.84 434.002 340.327 433.758L425.897 384.269C426.384 384.026 426.872 383.782 427.359 383.538H427.603C428.091 383.294 428.335 383.294 428.822 383.294H429.066C429.553 383.294 430.041 383.051 430.285 383.051H430.529C431.016 383.051 431.504 383.051 431.748 383.051H432.723C434.429 383.294 435.892 383.782 437.111 384.513L494.645 417.668C495.864 418.4 496.839 419.375 497.083 420.35H497.326L497.57 421.325V421.569C497.57 421.813 497.57 422.057 497.57 422.3C497.57 422.544 497.57 422.544 497.57 422.544C497.57 422.788 497.326 423.032 497.326 423.275C497.326 423.519 497.326 423.519 497.083 423.519C496.839 423.763 496.595 424.007 496.595 424.251L496.351 424.494C496.107 424.738 495.62 424.982 495.132 425.226L409.563 474.715C409.075 474.958 408.588 475.202 408.1 475.446H407.856C407.369 475.69 407.125 475.69 406.637 475.69H406.394C405.906 475.69 405.419 475.934 405.175 475.934H404.931C404.687 475.934 404.443 475.934 404.2 475.934ZM406.15 473.739L406.637 474.471L406.394 473.496C406.637 473.496 406.881 473.252 407.369 473.252L408.1 473.983L407.856 473.008C408.344 472.764 408.588 472.764 408.832 472.521L494.401 423.032C494.645 422.788 494.889 422.788 495.132 422.544L495.864 423.032L495.132 422.3C495.376 422.057 495.376 422.057 495.376 421.813C495.62 421.569 495.62 421.325 495.62 421.325C495.62 421.081 495.62 420.838 495.62 420.838C495.376 420.106 494.889 419.375 493.67 418.643L436.136 385.488C434.917 384.757 433.454 384.269 431.748 384.269H431.26C431.016 384.269 430.772 384.269 430.529 384.269H430.041C429.797 384.269 429.553 384.269 429.066 384.269L428.578 383.538L428.822 384.513C428.578 384.513 428.335 384.757 427.847 384.757L427.116 384.026L427.359 385.001C426.872 385.245 426.628 385.245 426.384 385.488L341.302 435.221C341.059 435.465 340.815 435.465 340.571 435.709C340.327 435.952 340.083 436.196 340.083 436.196C339.84 436.44 339.84 436.684 339.84 436.684C339.84 436.928 339.84 437.171 339.84 437.171C340.083 437.903 340.571 438.634 341.79 439.365L399.324 472.521C400.543 473.252 402.006 473.739 403.712 473.739H403.956C404.2 473.739 404.443 473.739 404.687 473.739H405.175C405.662 473.983 405.906 473.983 406.15 473.739Z" fill="white"/>
<path opacity="0.4" d="M496.107 423.276C496.351 423.032 496.351 422.788 496.595 422.788V422.544C496.595 422.3 496.839 422.057 496.839 422.057V421.813C496.839 421.569 496.839 421.325 496.839 421.325C496.595 420.35 495.864 419.375 494.401 418.4L436.867 385.245C435.404 384.513 433.698 384.026 431.991 383.782C431.991 383.782 431.991 383.782 431.748 383.782C431.504 383.782 431.016 383.782 430.772 383.782C430.529 383.782 430.529 383.782 430.285 383.782C430.041 383.782 429.553 383.782 429.31 384.026C429.066 384.026 429.066 384.026 428.822 384.026C428.578 384.026 428.091 384.27 427.847 384.27C427.603 384.27 427.603 384.27 427.359 384.27C426.872 384.513 426.628 384.513 426.14 384.757L397.617 401.335L383.234 409.623L340.327 434.49C339.84 434.734 339.596 434.977 339.352 435.221C339.352 435.221 339.352 435.465 339.108 435.465C338.865 435.709 338.865 435.952 338.621 435.952V436.196C338.621 436.44 338.377 436.684 338.377 436.684V436.928C338.377 437.171 338.377 437.415 338.377 437.415C338.621 438.39 339.352 439.366 340.815 440.341L398.349 473.496C399.811 474.227 401.518 474.715 403.224 474.958C403.224 474.958 403.224 474.958 403.468 474.958C403.712 474.958 404.2 474.958 404.443 474.958C404.687 474.958 404.687 474.958 404.931 474.958C405.175 474.958 405.662 474.958 405.906 474.715C406.15 474.715 406.15 474.715 406.394 474.715C406.637 474.715 407.125 474.471 407.369 474.471C407.613 474.471 407.613 474.471 407.856 474.471C408.344 474.227 408.588 474.227 409.075 473.983L494.645 424.494C495.376 424.007 495.62 423.763 496.107 423.276C495.864 423.519 496.107 423.276 496.107 423.276Z" fill="white"/>
<g clip-path="url(#clip1_51_2538)">
<path d="M41.3974 130.643L36.0215 136.019C33.4932 138.547 37.8578 147.01 45.7886 154.914C53.6927 162.818 62.1557 167.183 64.684 164.681L70.0599 159.305L41.3974 130.643Z" fill="url(#paint10_linear_51_2538)"/>
<path d="M70.0332 159.305C67.505 161.834 59.042 157.469 51.1378 149.538C43.2337 141.634 38.8691 133.171 41.3708 130.643C43.899 128.115 52.362 132.479 60.2662 140.41C68.1969 148.314 72.5615 156.777 70.0332 159.305Z" fill="url(#paint11_linear_51_2538)"/>
<path d="M70.0332 159.305C67.505 161.834 59.042 157.469 51.1378 149.538C43.2337 141.634 38.8691 133.171 41.3708 130.643C43.899 128.115 52.362 132.479 60.2662 140.41C68.1969 148.314 72.5615 156.777 70.0332 159.305Z" fill="url(#paint12_radial_51_2538)"/>
<path d="M40.5191 119.864L36.8731 123.51C35.1698 125.214 38.1239 130.962 43.4732 136.311C48.8224 141.661 54.5709 144.641 56.2741 142.911L59.9202 139.265L40.5191 119.864Z" fill="url(#paint13_linear_51_2538)"/>
<path d="M59.9201 139.292C58.2169 140.995 52.4684 138.041 47.1192 132.692C41.7699 127.316 38.7892 121.568 40.5191 119.864C42.2223 118.161 47.9708 121.115 53.3201 126.464C58.6693 131.84 61.6234 137.562 59.9201 139.292Z" fill="url(#paint14_linear_51_2538)"/>
</g>
</g>
<defs>
<filter id="filter0_d_51_2538" x="84.0346" y="-26.8648" width="468.254" height="466.001" filterUnits="userSpaceOnUse" color-interpolation-filters="sRGB">
<feFlood flood-opacity="0" result="BackgroundImageFix"/>
<feColorMatrix in="SourceAlpha" type="matrix" values="0 0 0 0 0 0 0 0 0 0 0 0 0 0 0 0 0 0 127 0" result="hardAlpha"/>
<feOffset dy="6.28035"/>
<feGaussianBlur stdDeviation="7.22775"/>
<feComposite in2="hardAlpha" operator="out"/>
<feColorMatrix type="matrix" values="0 0 0 0 0 0 0 0 0 0 0 0 0 0 0 0 0 0 0.25 0"/>
<feBlend mode="normal" in2="BackgroundImageFix" result="effect1_dropShadow_51_2538"/>
<feBlend mode="normal" in="SourceGraphic" in2="effect1_dropShadow_51_2538" result="shape"/>
</filter>
<linearGradient id="paint0_linear_51_2538" x1="38.639" y1="278.37" x2="521.436" y2="532.756" gradientUnits="userSpaceOnUse">
<stop stop-color="#3A9BD5"/>
<stop offset="0.3053" stop-color="#3A9BD5"/>
<stop offset="0.3555" stop-color="#3A9BD5"/>
<stop offset="0.5988" stop-color="#3999D4"/>
<stop offset="0.6883" stop-color="#3592CF"/>
<stop offset="0.7522" stop-color="#2F86C7"/>
<stop offset="0.8039" stop-color="#2676BC"/>
<stop offset="0.8102" stop-color="#2573BA"/>
</linearGradient>
<linearGradient id="paint1_linear_51_2538" x1="51.8588" y1="440.417" x2="480.855" y2="259.534" gradientUnits="userSpaceOnUse">
<stop stop-color="#59BDEF"/>
<stop offset="1" stop-color="#7BDAFF"/>
</linearGradient>
<linearGradient id="paint2_linear_51_2538" x1="590.094" y1="36.8539" x2="280.159" y2="436.01" gradientUnits="userSpaceOnUse">
<stop stop-color="#59BDEF"/>
<stop offset="1" stop-color="#7BDAFF"/>
</linearGradient>
<linearGradient id="paint3_linear_51_2538" x1="386.374" y1="333.573" x2="305.262" y2="377.221" gradientUnits="userSpaceOnUse">
<stop stop-color="#59BDEF"/>
<stop offset="1" stop-color="#7BDAFF"/>
</linearGradient>
<linearGradient id="paint4_linear_51_2538" x1="136.663" y1="56.0697" x2="43.4704" y2="87.3872" gradientUnits="userSpaceOnUse">
<stop stop-color="#59BDEF"/>
<stop offset="1" stop-color="#7BDAFF"/>
</linearGradient>
<linearGradient id="paint5_linear_51_2538" x1="98.1895" y1="220.404" x2="466.336" y2="220.404" gradientUnits="userSpaceOnUse">
<stop stop-color="#59BDEF"/>
<stop offset="1" stop-color="#7BDAFF"/>
</linearGradient>
<linearGradient id="paint6_linear_51_2538" x1="403.376" y1="529.226" x2="403.216" y2="458.136" gradientUnits="userSpaceOnUse">
<stop offset="0.7677" stop-color="#59BDEF"/>
<stop offset="0.8452" stop-color="#55B8EB"/>
<stop offset="0.9318" stop-color="#49ABE1"/>
<stop offset="1" stop-color="#3A9BD5"/>
</linearGradient>
<linearGradient id="paint7_linear_51_2538" x1="551.84" y1="443.109" x2="428.854" y2="442.734" gradientUnits="userSpaceOnUse">
<stop offset="0.7677" stop-color="#59BDEF"/>
<stop offset="0.8452" stop-color="#55B8EB"/>
<stop offset="0.9318" stop-color="#49ABE1"/>
<stop offset="1" stop-color="#3A9BD5"/>
</linearGradient>
<linearGradient id="paint8_linear_51_2538" x1="520.054" y1="510.696" x2="469.547" y2="423.483" gradientUnits="userSpaceOnUse">
<stop offset="0.7677" stop-color="#3A9BD5"/>
<stop offset="0.8386" stop-color="#3896D2"/>
<stop offset="0.9179" stop-color="#3189C9"/>
<stop offset="1" stop-color="#2573BA"/>
</linearGradient>
<linearGradient id="paint9_linear_51_2538" x1="406.623" y1="407.117" x2="391.156" y2="485.91" gradientUnits="userSpaceOnUse">
<stop stop-color="#7BDAFF"/>
<stop offset="1" stop-color="#59BDEF"/>
</linearGradient>
<linearGradient id="paint10_linear_51_2538" x1="36.2848" y1="135.638" x2="65.3908" y2="164.154" gradientUnits="userSpaceOnUse">
<stop stop-color="#97AFDE"/>
<stop offset="0.4147" stop-color="#BDCEF7"/>
<stop offset="1" stop-color="#575CB0"/>
</linearGradient>
<linearGradient id="paint11_linear_51_2538" x1="60.4759" y1="146.388" x2="-12.3192" y2="124.853" gradientUnits="userSpaceOnUse">
<stop stop-color="#BDCEF7"/>
<stop offset="1" stop-color="#5792B0"/>
</linearGradient>
<radialGradient id="paint12_radial_51_2538" cx="0" cy="0" r="1" gradientUnits="userSpaceOnUse" gradientTransform="translate(47.2274 137.248) rotate(45) scale(21.2869 9.31432)">
<stop stop-color="#413655"/>
<stop offset="0.6461" stop-color="#BFBBC5" stop-opacity="0.3539"/>
<stop offset="1" stop-color="white" stop-opacity="0"/>
</radialGradient>
<linearGradient id="paint13_linear_51_2538" x1="37.0476" y1="123.247" x2="56.7698" y2="142.569" gradientUnits="userSpaceOnUse">
<stop stop-color="#97AFDE"/>
<stop offset="0.4147" stop-color="#BDCEF7"/>
<stop offset="1" stop-color="#5777B0"/>
</linearGradient>
<linearGradient id="paint14_linear_51_2538" x1="53.4395" y1="130.531" x2="4.11344" y2="115.939" gradientUnits="userSpaceOnUse">
<stop stop-color="#BDBDF7"/>
<stop offset="1" stop-color="#5777B0"/>
</linearGradient>
<clipPath id="clip0_51_2538">
<rect width="569" height="636.042" fill="white"/>
</clipPath>
<clipPath id="clip1_51_2538">
<rect width="35.4489" height="46.0143" fill="white" transform="translate(35.3029 119.385)"/>
</clipPath>
</defs>
</svg>
