<svg width="509" height="507" viewBox="0 0 509 507" fill="none" xmlns="http://www.w3.org/2000/svg">
<g clip-path="url(#clip0_51_2343)">
<path opacity="0.6" d="M94.903 274.547L52.5319 250.119L86.2558 230.663L128.627 255.091L94.903 274.547Z" fill="#041860"/>
<path d="M96.6323 283.844L36.7506 249.255L84.7424 221.584L144.624 256.173L96.6323 283.844ZM39.5609 249.255L96.6323 282.114L141.598 256.173L84.5262 223.313L39.5609 249.255Z" fill="white"/>
<path d="M94.903 218.125L52.5319 193.697L86.2558 174.24L128.627 198.669L94.903 218.125Z" fill="url(#paint0_linear_51_2343)"/>
<path d="M128.627 224.826V198.669L94.903 218.125V244.283L128.627 224.826Z" fill="url(#paint1_linear_51_2343)"/>
<path d="M52.5319 193.697V219.854L94.903 244.282V218.125L52.5319 193.697Z" fill="url(#paint2_linear_51_2343)"/>
<path d="M78.6895 187.427L60.3142 198.02V203.857L65.7187 206.883V201.263L84.0939 190.67L78.6895 187.427Z" fill="white"/>
<path d="M90.1471 194.345L71.988 204.722V210.559L77.3925 213.585V207.964L95.7678 197.372L90.1471 194.345Z" fill="white"/>
<path d="M101.821 201.047L83.6617 211.639V217.26L89.0662 220.287V214.666L107.441 204.073L101.821 201.047Z" fill="white"/>
<path d="M78.6895 187.427V189.805L82.1483 191.751L84.0939 190.67L78.6895 187.427Z" fill="#A9EBFF"/>
<path d="M62.2599 202.56L60.3143 203.857L65.7188 206.884V204.506L62.2599 202.56Z" fill="#A9EBFF"/>
<path d="M78.6895 187.427L60.3142 198.02V203.857L62.2598 202.56V199.317L78.6895 189.805V187.427Z" fill="url(#paint3_linear_51_2343)"/>
<path d="M90.1469 194.345V196.507L93.8219 198.453L95.7675 197.372L90.1469 194.345Z" fill="#A9EBFF"/>
<path d="M73.9337 209.261L71.988 210.558L77.3925 213.585V211.207L73.9337 209.261Z" fill="#A9EBFF"/>
<path d="M90.1471 194.345L71.988 204.722V210.559L73.9337 209.262V206.019L90.3633 196.507L90.1471 194.345Z" fill="url(#paint4_linear_51_2343)"/>
<path d="M101.821 201.047V203.208L105.496 205.154L107.441 204.073L101.821 201.047Z" fill="#A9EBFF"/>
<path d="M85.6075 215.963L83.6619 217.26L89.0663 220.286V217.909L85.6075 215.963Z" fill="#A9EBFF"/>
<path d="M101.821 201.047L83.6617 211.639V217.26L85.6074 215.963V212.72L101.821 203.208V201.047Z" fill="url(#paint5_linear_51_2343)"/>
<path d="M314.757 506.292C265.036 506.292 215.531 495.483 177.699 473.649C140.949 452.463 120.628 424.144 120.628 394.095C120.628 364.046 140.949 335.727 177.699 314.541C253.362 270.873 376.368 270.873 451.814 314.541C488.565 335.727 508.886 364.046 508.886 394.095C508.886 424.144 488.565 452.463 451.814 473.649C413.983 495.483 364.262 506.292 314.757 506.292ZM314.757 283.195C265.468 283.195 215.963 294.004 178.348 315.838C142.03 336.807 122.141 364.695 122.141 394.095C122.141 423.711 142.03 451.382 178.348 472.352C253.578 515.804 375.936 515.804 451.166 472.352C487.484 451.382 507.373 423.495 507.373 394.095C507.373 364.478 487.484 336.807 451.166 315.838C413.551 294.004 364.046 283.195 314.757 283.195Z" fill="white"/>
<path opacity="0.5" d="M314.757 474.081C391.287 474.081 453.328 438.27 453.328 394.095C453.328 349.92 391.287 314.109 314.757 314.109C238.226 314.109 176.186 349.92 176.186 394.095C176.186 438.27 238.226 474.081 314.757 474.081Z" fill="#13247A"/>
<path d="M402.958 83.2291L261.144 1.08094C258.766 -0.216133 256.821 -0.432313 255.091 0.432405L245.363 6.05307L251.632 9.94429V342.428C251.632 349.346 255.74 357.344 260.928 360.371L401.229 441.438L399.283 448.572L409.011 442.951C410.957 441.87 412.254 439.276 412.254 435.385V100.956C412.254 94.038 408.146 86.0394 402.958 83.2291Z" fill="url(#paint6_linear_51_2343)"/>
<path d="M393.23 448.14L251.2 366.208C246.012 363.181 241.905 355.182 241.905 348.265V13.8354C241.905 6.91766 246.012 3.89115 251.2 6.70148L393.23 88.6334C398.418 91.6599 402.526 99.6586 402.526 106.576V441.006C402.526 447.923 398.202 451.166 393.23 448.14Z" fill="url(#paint7_linear_51_2343)"/>
<path d="M402.526 441.222L241.905 348.481V13.6194L402.526 106.576V441.222Z" fill="#0F65B2"/>
<path opacity="0.4" d="M376.8 447.707L233.474 364.911C228.069 361.884 224.826 356.047 224.826 349.778V35.0211C224.826 30.6975 229.582 27.8872 233.474 30.049L376.8 112.846C382.205 115.872 385.448 121.709 385.448 127.978V442.951C385.448 447.275 380.692 449.869 376.8 447.707Z" fill="white"/>
<path d="M379.611 449.221C378.53 449.221 377.449 449.004 376.368 448.356L233.041 365.559C227.421 362.316 223.962 356.263 223.962 349.994V35.0211C223.962 32.6431 225.043 30.6975 227.204 29.6166C229.15 28.5357 231.528 28.5357 233.474 29.6166L377.017 112.413C382.637 115.656 386.096 121.709 386.096 127.978V442.951C386.096 445.329 385.015 447.275 382.853 448.356C381.773 448.788 380.692 449.221 379.611 449.221ZM230.447 29.8328C229.582 29.8328 228.718 30.0489 227.853 30.4813C226.34 31.346 225.259 33.0754 225.259 34.8049V349.778C225.259 355.831 228.501 361.236 233.69 364.262L377.017 447.059C378.53 447.923 380.475 447.923 382.205 447.059C383.718 446.194 384.799 444.465 384.799 442.735V127.978C384.799 121.925 381.556 116.521 376.368 113.494L233.041 30.6975C232.176 30.0489 231.312 29.8328 230.447 29.8328Z" fill="white"/>
<path d="M332.7 61.8273L311.514 49.505C310.866 49.0727 310.217 47.9918 310.217 46.9109C310.217 46.0462 310.866 45.6138 311.514 45.83L332.7 58.1522C333.348 58.5846 333.997 59.6655 333.997 60.7464C333.997 61.8273 333.564 62.2596 332.7 61.8273Z" fill="#0063AD"/>
<path opacity="0.2" d="M341.563 251.849C344.374 253.579 346.752 251.849 346.752 247.958V131.653C346.752 127.762 344.374 123.222 341.563 121.493L225.259 54.2612C225.043 55.5583 224.826 57.0716 224.826 58.3686V184.185L341.563 251.849Z" fill="#041860"/>
<path d="M254.227 208.829V211.639C251.849 210.559 248.606 209.91 244.931 210.342C231.744 211.207 216.395 221.8 210.775 233.69C209.261 236.932 208.397 239.959 208.613 242.769L206.019 241.905L208.829 246.228C211.207 249.903 215.963 252.065 222.665 251.416C235.852 250.552 251.2 239.959 256.821 228.069C259.631 222.232 259.631 217.044 257.253 213.369L254.227 208.829Z" fill="#F4A856"/>
<path d="M253.794 223.53C247.957 235.419 232.825 245.796 219.638 246.877C206.451 247.742 200.398 239.095 206.235 227.205C212.072 215.315 227.204 204.938 240.391 203.857C253.578 202.776 259.415 211.64 253.794 223.53Z" fill="#FCCC6B"/>
<path d="M253.794 223.53C247.957 235.419 232.825 245.796 219.638 246.877C206.451 247.742 200.398 239.095 206.235 227.205C212.072 215.315 227.204 204.938 240.391 203.857C253.578 202.776 259.415 211.64 253.794 223.53Z" fill="url(#paint8_radial_51_2343)"/>
<path d="M238.23 237.149C233.041 240.824 226.772 243.202 221.151 243.634C215.747 244.067 211.423 242.553 209.262 239.311C207.1 236.068 207.1 231.528 209.478 226.772C214.234 216.828 227.204 207.965 238.446 207.1C243.85 206.668 248.174 208.181 250.336 211.424C252.497 214.666 252.497 219.206 250.119 223.962C247.741 228.934 243.418 233.474 238.23 237.149ZM222.016 213.802C216.828 217.26 212.504 221.8 210.126 226.772C207.748 231.528 207.748 235.852 209.694 238.878C211.856 241.905 215.747 243.418 221.151 242.986C232.177 242.121 244.931 233.474 249.687 223.53C252.065 218.774 252.065 214.45 250.119 211.424C247.958 208.397 244.066 206.884 238.662 207.316C233.257 207.965 227.204 210.343 222.016 213.802Z" fill="#F4A856"/>
<path d="M249.903 223.746C245.147 233.69 232.176 242.554 221.151 243.202C210.126 244.067 205.154 236.5 209.91 226.556C214.666 216.612 227.637 207.749 238.662 207.1C249.687 206.452 254.659 213.802 249.903 223.746Z" fill="url(#paint9_radial_51_2343)"/>
<path d="M210.559 227.637C215.315 217.693 228.285 208.829 239.31 208.181C244.499 207.748 248.39 209.262 250.552 211.856C248.606 208.613 244.499 206.667 238.662 207.1C227.637 207.965 214.666 216.612 209.91 226.556C207.316 231.744 207.532 236.284 209.91 239.311C208.181 236.5 208.397 232.393 210.559 227.637Z" fill="#F4A856"/>
<path d="M253.146 222.665C247.309 234.555 232.176 244.931 218.99 246.012C212.72 246.445 207.964 244.715 205.586 241.473C207.964 245.364 212.72 247.526 219.638 247.093C232.825 246.228 248.174 235.636 253.794 223.746C256.821 217.477 256.605 212.288 253.794 208.613C255.956 211.856 255.956 216.828 253.146 222.665Z" fill="#FCE586"/>
<path d="M249.687 237.581C252.713 234.555 255.091 231.312 256.605 227.853C259.415 222.016 259.415 216.828 257.037 213.153L254.011 208.829C254.011 208.829 254.011 208.613 253.794 208.613L253.578 208.397C250.984 205.154 246.444 203.209 239.959 203.641C232.609 204.29 224.394 207.749 217.692 212.937L241.472 237.581H249.687Z" fill="#F4A856"/>
<path d="M326.431 131.221L157.595 33.7241C156.298 32.8594 155.001 32.8594 154.136 33.5079L151.542 35.0212C151.542 35.0212 152.19 35.0212 152.623 35.2374C152.406 35.8859 152.19 36.7506 152.19 37.8315V154.136C152.19 158.027 154.568 162.567 157.379 164.296L326.431 261.577C326.647 261.793 327.079 261.793 327.295 262.009V263.307L329.89 261.793C330.971 261.145 331.619 259.631 331.619 257.47V141.381C331.619 137.49 329.457 132.95 326.431 131.221Z" fill="white"/>
<path d="M324.053 262.874L155.217 165.593C152.406 163.864 150.028 159.324 150.028 155.433V39.1285C150.028 35.2373 152.406 33.5078 155.217 35.2373L324.053 132.734C326.863 134.464 329.241 139.003 329.241 142.895V259.199C329.241 262.874 326.863 264.603 324.053 262.874Z" fill="url(#paint10_linear_51_2343)"/>
<path d="M273.683 138.787V122.141L277.142 124.087C277.79 124.519 278.439 124.951 278.871 125.384C279.304 125.816 279.736 126.249 280.168 126.897C280.601 127.329 280.817 127.978 281.033 128.626C281.249 129.275 281.249 130.14 281.249 130.788C281.249 132.734 280.601 133.599 279.087 132.95C279.952 133.599 280.601 134.463 281.033 135.328C281.465 136.193 281.682 137.274 281.682 138.571C281.682 140.084 281.249 141.165 280.601 141.597C279.952 142.03 278.871 141.813 277.574 141.165L273.683 138.787ZM276.277 130.356L277.142 130.788C278.006 131.221 278.439 131.437 278.655 131.221C278.871 131.004 279.087 130.356 279.087 129.491C279.087 129.059 279.087 128.626 278.871 128.194C278.871 127.762 278.655 127.546 278.439 127.329C278.223 127.113 278.006 126.897 277.79 126.681C277.574 126.465 277.142 126.249 276.709 126.032L276.277 125.816V130.356ZM276.277 138.138L277.142 138.787C278.006 139.219 278.439 139.435 278.871 139.003C279.087 138.787 279.304 138.138 279.304 137.274C279.304 136.193 279.087 135.544 278.871 134.896C278.439 134.247 278.006 133.599 277.142 133.166L276.277 132.734V138.138Z" fill="white"/>
<path d="M282.762 143.975L285.789 129.059L288.599 130.572L291.409 148.947L289.031 147.434L288.383 143.327L285.789 141.813L285.14 145.272L282.762 143.975ZM286.221 140.084L288.167 141.165L287.302 133.815L286.221 140.084Z" fill="white"/>
<path d="M292.707 149.596V132.95L294.436 134.031L297.895 145.489V136.193L300.057 137.49V154.136L298.327 153.055L294.868 141.165V151.109L292.707 149.596Z" fill="white"/>
<path d="M302.435 155.217V138.571L305.029 140.084V147.218L307.839 141.597L310.433 143.111L307.623 148.947L310.649 159.973L308.055 158.459L305.677 149.164L305.245 150.028V156.73L302.435 155.217Z" fill="white"/>
<path d="M196.507 165.377L164.512 146.786V142.462L196.507 161.054V165.377Z" fill="white"/>
<path d="M235.851 188.076L203.857 169.484V165.161L235.851 183.752V188.076Z" fill="white"/>
<path d="M275.412 210.775L243.201 192.183V187.86L275.412 206.451V210.775Z" fill="white"/>
<path d="M314.757 233.473L282.762 214.882V210.774L314.757 229.15V233.473Z" fill="white"/>
<path opacity="0.2" d="M324.053 132.734L155.217 35.2373C152.406 33.5078 150.028 35.2373 150.028 39.1285V155.433C150.028 156.081 150.028 156.946 150.244 157.595C159.324 151.109 195.642 131.005 265.468 169.485C290.761 183.536 312.163 181.591 329.241 172.511V142.678C329.241 138.787 326.863 134.247 324.053 132.734Z" fill="white"/>
<path opacity="0.2" d="M219.854 126.681C243.634 123.655 263.306 116.305 279.736 107.225L155.217 35.2373C152.406 33.5078 150.028 35.2373 150.028 39.1285V150.461C162.351 140.733 183.752 131.437 219.854 126.681Z" fill="white"/>
<path d="M258.334 408.147L256.821 410.524C255.524 408.147 253.146 405.985 249.903 404.039C238.446 397.338 220.07 397.338 208.613 403.823C205.37 405.552 203.208 407.714 201.695 410.092L199.966 407.93V413.119C199.75 417.442 202.56 421.982 208.397 425.441C219.854 432.142 238.229 432.142 249.687 425.657C255.308 422.414 258.334 418.091 258.334 413.767V408.147Z" fill="#F4A856"/>
<path d="M249.687 420.036C238.229 426.522 219.638 426.522 208.397 419.82C196.939 413.119 197.155 402.526 208.397 395.824C219.854 389.339 238.445 389.339 249.687 396.041C261.144 402.742 261.144 413.551 249.687 420.036Z" fill="#FCCC6B"/>
<path d="M249.687 420.036C238.229 426.522 219.638 426.522 208.397 419.82C196.939 413.119 197.155 402.526 208.397 395.824C219.854 389.339 238.445 389.339 249.687 396.041C261.144 402.742 261.144 413.551 249.687 420.036Z" fill="url(#paint11_radial_51_2343)"/>
<path d="M229.15 422.414C222.664 422.414 216.395 420.901 211.423 418.091C206.667 415.28 204.073 411.605 204.073 407.714C204.073 403.823 206.667 400.148 211.423 397.554C221.151 391.933 236.716 392.149 246.444 397.77C251.2 400.58 253.794 404.255 253.794 408.147C253.794 412.038 251.2 415.713 246.444 418.307C241.688 421.117 235.419 422.414 229.15 422.414ZM228.934 394.095C222.664 394.095 216.611 395.392 211.855 398.202C207.316 400.796 204.722 404.255 204.722 407.93C204.722 411.605 207.1 415.064 211.639 417.875C221.151 423.495 236.5 423.495 246.228 418.091C250.768 415.497 253.362 412.038 253.362 408.363C253.362 404.688 250.984 401.229 246.444 398.419C241.472 395.392 235.203 394.095 228.934 394.095Z" fill="#F4A856"/>
<path d="M246.228 418.091C236.716 423.495 221.151 423.495 211.423 417.875C201.911 412.254 201.911 403.391 211.423 397.77C220.935 392.365 236.5 392.365 246.228 397.986C255.956 403.607 255.956 412.686 246.228 418.091Z" fill="url(#paint12_radial_51_2343)"/>
<path d="M211.639 399.067C221.151 393.662 236.716 393.662 246.444 399.283C250.984 401.877 253.362 405.336 253.578 408.795C253.794 404.904 251.416 401.012 246.444 398.202C236.932 392.581 221.368 392.581 211.639 397.986C206.667 400.796 204.073 404.688 204.506 408.579C204.722 405.12 207.1 401.661 211.639 399.067Z" fill="#F4A856"/>
<path d="M249.687 418.955C238.229 425.441 219.638 425.441 208.397 418.739C202.992 415.496 200.182 411.389 199.966 407.281C199.75 411.821 202.56 416.361 208.397 419.82C219.854 426.521 238.229 426.521 249.687 420.036C255.74 416.577 258.55 412.037 258.334 407.498C257.902 411.605 255.091 415.713 249.687 418.955Z" fill="#FCE586"/>
<path d="M263.306 401.013L261.792 403.391C260.495 401.013 258.117 398.851 254.875 396.905C243.417 390.204 225.042 390.204 213.585 396.689C210.342 398.419 208.18 400.58 206.667 402.958L204.937 400.797V405.985C204.721 410.308 207.532 414.848 213.368 418.307C224.826 425.009 243.201 425.009 254.659 418.523C260.279 415.281 263.306 410.957 263.306 406.633V401.013Z" fill="#F4A856"/>
<path d="M254.659 412.903C243.201 419.388 224.61 419.388 213.369 412.687C201.911 405.985 202.127 395.392 213.369 388.691C224.826 382.205 243.418 382.205 254.659 388.907C266.116 395.608 266.116 406.201 254.659 412.903Z" fill="#FCCC6B"/>
<path d="M254.659 412.903C243.201 419.388 224.61 419.388 213.369 412.687C201.911 405.985 202.127 395.392 213.369 388.691C224.826 382.205 243.418 382.205 254.659 388.907C266.116 395.608 266.116 406.201 254.659 412.903Z" fill="url(#paint13_radial_51_2343)"/>
<path d="M234.122 415.28C227.637 415.28 221.367 413.767 216.395 410.957C211.639 408.146 209.045 404.471 209.045 400.58C209.045 396.689 211.639 393.014 216.395 390.42C226.123 384.799 241.688 385.015 251.416 390.636C256.172 393.446 258.766 397.121 258.766 401.013C258.766 404.904 256.172 408.579 251.416 411.173C246.66 413.767 240.391 415.28 234.122 415.28ZM233.906 386.961C227.637 386.961 221.584 388.258 216.828 391.068C212.288 393.662 209.694 397.121 209.694 400.796C209.694 404.471 212.072 407.93 216.611 410.741C226.123 416.361 241.472 416.361 251.2 410.957C255.74 408.363 258.334 404.904 258.334 401.229C258.334 397.554 255.956 394.095 251.416 391.284C246.444 388.258 240.175 386.961 233.906 386.961Z" fill="#F4A856"/>
<path d="M251.416 410.957C241.904 416.362 226.339 416.362 216.611 410.741C207.099 405.12 207.099 396.257 216.611 390.636C226.123 385.232 241.688 385.232 251.416 390.853C260.928 396.473 260.928 405.337 251.416 410.957Z" fill="url(#paint14_radial_51_2343)"/>
<path d="M216.611 391.933C226.123 386.529 241.688 386.529 251.416 392.149C255.956 394.743 258.334 398.202 258.55 401.661C258.766 397.77 256.388 393.879 251.416 391.068C241.904 385.448 226.339 385.448 216.611 390.852C211.639 393.663 209.045 397.554 209.477 401.445C209.694 397.77 212.072 394.527 216.611 391.933Z" fill="#F4A856"/>
<path d="M254.659 411.822C243.201 418.307 224.61 418.307 213.368 411.605C207.964 408.363 205.154 404.255 204.937 400.148C204.721 404.688 207.532 409.227 213.368 412.686C224.826 419.388 243.201 419.388 254.659 412.903C260.712 409.444 263.522 404.904 263.306 400.364C263.09 404.472 260.063 408.579 254.659 411.822Z" fill="#FCE586"/>
<path d="M301.786 436.466L300.273 438.844C298.976 436.466 296.598 434.305 293.355 432.359C281.898 425.657 263.523 425.657 252.065 432.143C248.822 433.872 246.661 436.034 245.147 438.412L243.418 436.25V441.438C243.202 445.762 246.012 450.302 251.849 453.761C263.306 460.462 281.682 460.462 293.139 453.977C298.76 450.734 301.786 446.411 301.786 442.087V436.466Z" fill="#F4A856"/>
<path d="M301.788 436.538C301.83 427.225 288.797 419.617 272.679 419.545C256.561 419.472 243.461 426.963 243.419 436.276C243.378 445.588 256.41 453.196 272.528 453.269C288.646 453.341 301.746 445.85 301.788 436.538Z" fill="#FCCC6B"/>
<path d="M293.139 448.572C281.681 455.058 263.09 455.058 251.849 448.356C240.391 441.655 240.607 431.062 251.849 424.36C263.306 417.875 281.898 417.875 293.139 424.576C304.813 431.278 304.596 441.871 293.139 448.572Z" fill="url(#paint15_radial_51_2343)"/>
<path d="M272.602 450.95C266.117 450.95 259.847 449.437 254.875 446.627C250.119 443.816 247.525 440.141 247.525 436.25C247.525 432.359 250.119 428.684 254.875 426.09C264.603 420.469 280.168 420.685 289.896 426.306C294.652 429.116 297.246 432.791 297.246 436.682C297.246 440.574 294.652 444.249 289.896 446.843C285.14 449.437 278.871 450.95 272.602 450.95ZM272.386 422.415C266.117 422.415 260.064 423.712 255.308 426.522C250.768 429.116 248.174 432.575 248.174 436.25C248.174 439.925 250.552 443.384 255.091 446.194C264.603 451.815 279.952 451.815 289.68 446.411C294.22 443.816 296.814 440.358 296.814 436.682C296.814 433.007 294.436 429.549 289.896 426.738C285.14 423.928 278.655 422.415 272.386 422.415Z" fill="#F4A856"/>
<path d="M289.896 446.627C280.384 452.031 264.82 452.031 255.091 446.41C245.58 440.79 245.58 431.926 255.091 426.306C264.603 420.901 280.168 420.901 289.896 426.522C299.624 432.143 299.408 441.006 289.896 446.627Z" fill="url(#paint16_radial_51_2343)"/>
<path d="M255.308 427.603C264.82 422.199 280.384 422.199 290.113 427.819C294.652 430.414 297.03 433.872 297.246 437.331C297.463 433.44 295.085 429.549 290.113 426.739C280.601 421.118 265.036 421.118 255.308 426.522C250.336 429.333 247.741 433.224 248.174 437.115C248.39 433.44 250.768 430.197 255.308 427.603Z" fill="#F4A856"/>
<path d="M293.139 447.275C281.682 453.76 263.09 453.76 251.849 447.059C246.444 443.816 243.634 439.709 243.418 435.601C243.202 440.141 246.012 444.681 251.849 448.14C263.306 454.841 281.682 454.841 293.139 448.356C299.192 444.897 302.002 440.357 301.786 435.818C301.57 440.141 298.76 444.248 293.139 447.275Z" fill="#FCE586"/>
<path d="M243.417 446.627L241.904 449.004C240.607 446.626 238.229 444.465 234.986 442.519C223.529 435.818 205.154 435.818 193.696 442.303C190.453 444.032 188.292 446.194 186.778 448.572L185.049 446.41V451.599C184.833 455.922 187.643 460.462 193.48 463.921C204.937 470.622 223.313 470.622 234.77 464.137C240.391 460.894 243.417 456.571 243.417 452.247V446.627Z" fill="#F4A856"/>
<path d="M243.291 446.761C243.333 437.449 230.3 429.841 214.182 429.768C198.064 429.696 184.964 437.187 184.922 446.499C184.881 455.812 197.913 463.42 214.031 463.492C230.149 463.565 243.249 456.074 243.291 446.761Z" fill="#FCCC6B"/>
<path d="M234.77 458.516C223.313 465.002 204.721 465.002 193.48 458.3C182.023 451.599 182.239 441.006 193.48 434.304C204.938 427.819 223.529 427.819 234.77 434.521C246.228 441.438 246.228 452.031 234.77 458.516Z" fill="url(#paint17_radial_51_2343)"/>
<path d="M214.234 461.111C207.748 461.111 201.479 459.597 196.507 456.787C191.751 453.977 189.157 450.302 189.157 446.411C189.157 442.519 191.751 438.844 196.507 436.25C206.235 430.629 221.8 430.846 231.528 436.466C236.284 439.277 238.878 442.952 238.878 446.843C238.878 450.734 236.284 454.409 231.528 457.003C226.772 459.597 220.503 461.111 214.234 461.111ZM214.017 432.575C207.748 432.575 201.695 433.872 196.939 436.682C192.399 439.277 189.805 442.735 189.805 446.411C189.805 450.086 192.183 453.544 196.723 456.355C206.235 461.975 221.584 461.975 231.312 456.571C235.851 453.977 238.446 450.518 238.446 446.843C238.446 443.168 236.068 439.709 231.312 436.899C226.556 434.088 220.287 432.575 214.017 432.575Z" fill="#F4A856"/>
<path d="M231.312 456.787C221.8 462.191 206.235 462.191 196.507 456.571C186.995 450.95 186.995 442.087 196.507 436.466C206.019 431.061 221.584 431.061 231.312 436.682C241.04 442.303 241.04 451.166 231.312 456.787Z" fill="url(#paint18_radial_51_2343)"/>
<path d="M196.723 437.763C206.235 432.359 221.8 432.359 231.528 437.98C236.068 440.574 238.446 444.033 238.662 447.491C238.878 443.6 236.5 439.709 231.528 436.899C222.016 431.278 206.451 431.278 196.723 436.682C191.751 439.493 189.157 443.384 189.589 447.275C189.805 443.6 192.183 440.358 196.723 437.763Z" fill="#F4A856"/>
<path d="M234.77 457.435C223.313 463.921 204.721 463.921 193.48 457.219C188.075 453.977 185.265 449.869 185.049 445.762C184.833 450.301 187.643 454.841 193.48 458.3C204.937 465.002 223.313 465.002 234.77 458.516C240.823 455.057 243.634 450.518 243.417 445.978C242.985 450.301 240.175 454.409 234.77 457.435Z" fill="#FCE586"/>
<path d="M271.088 436.034L269.575 438.412C268.278 436.034 265.9 433.872 262.657 431.926C251.2 425.225 232.825 425.225 221.367 431.71C218.125 433.44 215.963 435.601 214.45 437.979L212.72 435.818V441.006C212.504 445.329 215.314 449.869 221.151 453.328C232.609 460.03 250.984 460.03 262.441 453.544C268.062 450.302 271.088 445.978 271.088 441.654V436.034Z" fill="#F4A856"/>
<path d="M270.922 436.013C270.964 426.701 257.931 419.093 241.813 419.02C225.695 418.948 212.595 426.439 212.553 435.751C212.512 445.064 225.544 452.672 241.662 452.744C257.78 452.817 270.88 445.326 270.922 436.013Z" fill="#FCCC6B"/>
<path d="M262.442 447.924C250.984 454.409 232.393 454.409 221.151 447.708C209.694 441.006 209.694 430.413 221.151 423.712C232.609 417.226 251.2 417.226 262.442 423.928C273.899 430.629 273.899 441.222 262.442 447.924Z" fill="url(#paint19_radial_51_2343)"/>
<path d="M241.905 450.302C235.419 450.302 229.15 448.788 224.178 445.978C219.422 443.168 216.828 439.493 216.828 435.601C216.828 431.71 219.422 428.035 224.178 425.441C233.906 419.82 249.471 420.037 259.199 425.657C263.955 428.467 266.549 432.143 266.549 436.034C266.549 439.925 263.955 443.6 259.199 446.194C254.443 448.788 248.174 450.302 241.905 450.302ZM241.688 421.982C235.419 421.982 229.366 423.279 224.61 426.09C220.071 428.684 217.476 432.143 217.476 435.818C217.476 439.493 219.854 442.952 224.394 445.762C233.906 451.383 249.255 451.383 258.983 445.978C263.523 443.384 266.117 439.925 266.117 436.25C266.117 432.575 263.739 429.116 259.199 426.306C254.227 423.279 247.958 421.982 241.688 421.982Z" fill="#F4A856"/>
<path d="M258.983 445.978C249.471 451.383 233.906 451.383 224.178 445.762C214.666 440.141 214.666 431.278 224.178 425.657C233.69 420.253 249.255 420.253 258.983 425.874C268.711 431.494 268.711 440.358 258.983 445.978Z" fill="url(#paint20_radial_51_2343)"/>
<path d="M224.394 426.954C233.906 421.55 249.471 421.55 259.199 427.17C263.739 429.765 266.117 433.224 266.333 436.682C266.549 432.791 264.171 428.9 259.199 426.09C249.687 420.469 234.122 420.469 224.394 425.873C219.422 428.684 216.828 432.575 217.26 436.466C217.476 432.791 219.854 429.548 224.394 426.954Z" fill="#F4A856"/>
<path d="M262.441 446.843C250.984 453.328 232.392 453.328 221.151 446.627C215.747 443.384 212.936 439.277 212.72 435.169C212.504 439.709 215.314 444.249 221.151 447.708C232.609 454.409 250.984 454.409 262.441 447.924C268.494 444.465 271.305 439.925 271.088 435.385C270.656 439.493 267.846 443.6 262.441 446.843Z" fill="#FCE586"/>
<path d="M278.655 430.197L277.142 432.575C275.845 430.197 273.467 428.035 270.224 426.089C258.766 419.388 240.391 419.388 228.934 425.873C225.691 427.602 223.529 429.764 222.016 432.142L220.286 429.98V435.169C220.07 439.492 222.881 444.032 228.717 447.491C240.175 454.192 258.55 454.192 270.008 447.707C275.628 444.464 278.655 440.141 278.655 435.817V430.197Z" fill="#F4A856"/>
<path d="M270.008 442.087C258.55 448.572 239.959 448.572 228.718 441.87C217.26 435.169 217.26 424.576 228.718 417.874C240.175 411.389 258.767 411.389 270.008 418.091C281.465 424.792 281.465 435.385 270.008 442.087Z" fill="#FCCC6B"/>
<path d="M270.008 442.087C258.55 448.572 239.959 448.572 228.718 441.87C217.26 435.169 217.26 424.576 228.718 417.874C240.175 411.389 258.767 411.389 270.008 418.091C281.465 424.792 281.465 435.385 270.008 442.087Z" fill="url(#paint21_radial_51_2343)"/>
<path d="M249.471 444.464C242.985 444.464 236.716 442.951 231.744 440.141C226.988 437.331 224.394 433.655 224.394 429.764C224.394 425.873 226.988 422.198 231.744 419.604C241.472 413.983 257.037 414.199 266.765 419.82C271.521 422.63 274.115 426.305 274.115 430.197C274.115 434.088 271.521 437.763 266.765 440.357C262.009 442.951 255.74 444.464 249.471 444.464ZM249.255 416.145C242.985 416.145 236.932 417.442 232.176 420.252C227.637 422.847 225.043 426.305 225.043 429.98C225.043 433.655 227.421 437.114 231.96 439.925C241.472 445.545 256.821 445.545 266.549 440.141C271.089 437.547 273.683 434.088 273.683 430.413C273.683 426.738 271.305 423.279 266.765 420.469C261.793 417.442 255.524 416.145 249.255 416.145Z" fill="#F4A856"/>
<path d="M266.549 440.141C257.037 445.545 241.472 445.545 231.744 439.924C222.232 434.304 222.232 425.44 231.744 419.82C241.256 414.415 256.821 414.415 266.549 420.036C276.277 425.657 276.277 434.52 266.549 440.141Z" fill="url(#paint22_radial_51_2343)"/>
<path d="M231.961 421.117C241.472 415.712 257.037 415.712 266.765 421.333C271.305 423.927 273.683 427.386 273.899 430.845C274.115 426.954 271.737 423.063 266.765 420.252C257.253 414.632 241.689 414.632 231.961 420.036C226.988 422.846 224.394 426.738 224.827 430.629C225.043 426.954 227.421 423.711 231.961 421.117Z" fill="#F4A856"/>
<path d="M270.008 441.005C258.55 447.491 239.959 447.491 228.717 440.789C223.313 437.547 220.503 433.439 220.286 429.332C220.07 433.872 222.881 438.411 228.717 441.87C240.175 448.572 258.55 448.572 270.008 442.086C276.061 438.627 278.871 434.088 278.655 429.548C278.223 433.655 275.412 437.763 270.008 441.005Z" fill="#FCE586"/>
<path d="M282.546 418.955L281.033 421.333C279.736 418.955 277.358 416.794 274.115 414.848C262.658 408.146 244.282 408.146 232.825 414.632C229.582 416.361 227.42 418.523 225.907 420.901L224.178 418.739V423.928C223.961 428.251 226.772 432.791 232.609 436.25C244.066 442.951 262.441 442.951 273.899 436.466C279.519 433.223 282.546 428.9 282.546 424.576V418.955Z" fill="#F4A856"/>
<path d="M282.514 418.82C282.556 409.507 269.524 401.899 253.406 401.827C237.288 401.754 224.188 409.245 224.146 418.558C224.104 427.87 237.136 435.478 253.254 435.551C269.372 435.623 282.472 428.132 282.514 418.82Z" fill="#FCCC6B"/>
<path d="M273.899 430.845C262.441 437.331 243.85 437.331 232.609 430.629C221.151 423.928 221.367 413.335 232.609 406.633C244.066 400.148 262.658 400.148 273.899 406.849C285.356 413.551 285.356 424.144 273.899 430.845Z" fill="url(#paint23_radial_51_2343)"/>
<path d="M253.362 433.223C246.876 433.223 240.607 431.71 235.635 428.9C230.879 426.089 228.285 422.414 228.285 418.523C228.285 414.632 230.879 410.957 235.635 408.363C245.363 402.742 260.928 402.958 270.656 408.579C275.412 411.389 278.006 415.064 278.006 418.955C278.006 422.847 275.412 426.522 270.656 429.116C265.9 431.71 259.631 433.223 253.362 433.223ZM253.146 404.904C246.876 404.904 240.823 406.201 236.067 409.011C231.528 411.605 228.933 415.064 228.933 418.739C228.933 422.414 231.311 425.873 235.851 428.683C245.363 434.304 260.712 434.304 270.44 428.9C274.98 426.305 277.574 422.847 277.574 419.172C277.574 415.497 275.196 412.038 270.656 409.227C265.9 406.201 259.415 404.904 253.146 404.904Z" fill="#F4A856"/>
<path d="M270.656 428.9C261.144 434.304 245.58 434.304 235.851 428.684C226.34 423.063 226.34 414.2 235.851 408.579C245.363 403.174 260.928 403.175 270.656 408.795C280.384 414.416 280.168 423.279 270.656 428.9Z" fill="url(#paint24_radial_51_2343)"/>
<path d="M236.067 409.876C245.579 404.472 261.144 404.472 270.872 410.092C275.412 412.687 277.79 416.145 278.006 419.604C278.222 415.713 275.844 411.822 270.872 409.011C261.36 403.391 245.795 403.391 236.067 408.795C231.095 411.606 228.501 415.497 228.934 419.388C228.934 415.713 231.528 412.47 236.067 409.876Z" fill="#F4A856"/>
<path d="M273.899 429.765C262.441 436.25 243.85 436.25 232.609 429.548C227.204 426.306 224.394 422.198 224.178 418.091C223.961 422.631 226.772 427.17 232.609 430.629C244.066 437.331 262.441 437.331 273.899 430.845C279.952 427.387 282.762 422.847 282.546 418.307C282.33 422.414 279.519 426.522 273.899 429.765Z" fill="#FCE586"/>
<path d="M302.867 423.495L300.705 425.441C299.841 422.847 298.111 420.253 295.301 417.658C285.573 408.795 267.414 404.904 254.875 409.011C251.416 410.092 248.822 411.822 246.877 413.767L245.58 411.173L244.499 416.145C243.418 420.469 245.363 425.441 250.336 429.765C260.064 438.628 278.223 442.519 290.761 438.412C297.03 436.466 300.705 432.791 301.57 428.467L302.867 423.495Z" fill="#F4A856"/>
<path d="M291.842 433.44C279.304 437.547 261.145 433.656 251.416 424.793C241.688 415.929 243.85 405.553 256.389 401.445C268.927 397.338 287.086 401.229 296.814 410.092C306.758 418.956 304.38 429.332 291.842 433.44Z" fill="#FCCC6B"/>
<path d="M291.842 433.44C279.304 437.547 261.145 433.656 251.416 424.793C241.688 415.929 243.85 405.553 256.389 401.445C268.927 397.338 287.086 401.229 296.814 410.092C306.758 418.956 304.38 429.332 291.842 433.44Z" fill="url(#paint25_radial_51_2343)"/>
<path d="M271.305 431.494C265.036 430.197 258.983 427.387 254.875 423.712C250.768 420.037 249.039 415.929 249.903 412.254C250.768 408.363 254.011 405.553 259.199 403.823C269.792 400.364 285.14 403.607 293.355 411.173C297.463 414.848 299.192 418.956 298.327 422.631C297.463 426.522 294.22 429.332 289.032 431.062C283.843 432.791 277.574 432.791 271.305 431.494ZM276.926 403.823C270.873 402.526 264.603 402.526 259.415 404.255C254.443 405.769 251.2 408.795 250.552 412.47C249.687 416.145 251.416 420.036 255.308 423.495C263.523 430.845 278.655 434.088 289.032 430.629C294.004 429.116 297.246 426.09 297.895 422.414C298.76 418.739 297.03 414.848 293.139 411.389C289.032 407.714 282.979 405.12 276.926 403.823Z" fill="#F4A856"/>
<path d="M289.032 430.845C278.439 434.304 263.306 431.062 255.091 423.495C246.877 416.145 248.822 407.282 259.199 403.823C269.792 400.364 284.924 403.607 293.139 411.173C301.57 418.739 299.624 427.387 289.032 430.845Z" fill="url(#paint26_radial_51_2343)"/>
<path d="M258.983 405.12C269.575 401.661 284.708 404.904 292.923 412.47C296.814 415.929 298.543 419.82 297.895 423.279C298.976 419.604 297.463 415.281 293.139 411.389C284.924 404.039 269.792 400.796 259.199 404.039C253.578 405.769 250.552 409.227 249.903 412.903C250.984 409.444 254.01 406.633 258.983 405.12Z" fill="#F4A856"/>
<path d="M292.058 432.359C279.52 436.466 261.361 432.575 251.633 423.711C246.877 419.388 244.931 414.848 245.58 410.741C244.282 415.064 246.228 420.036 251.416 424.792C261.144 433.656 279.304 437.547 291.842 433.44C298.327 431.278 302.219 427.387 302.867 423.063C301.786 426.954 298.111 430.413 292.058 432.359Z" fill="#FCE586"/>
<path d="M258.118 300.49L255.524 301.787C255.524 298.976 254.443 295.95 252.713 292.707C246.012 281.25 230.014 272.17 216.828 272.17C213.153 272.17 210.126 272.819 207.748 274.116L207.316 271.305L204.721 275.845C202.344 279.52 202.776 284.925 206.019 290.762C212.72 302.219 228.717 311.299 241.904 311.299C248.606 311.299 253.146 308.921 255.307 305.246L258.118 300.49Z" fill="#F4A856"/>
<path d="M258.095 300.27C262.717 292.185 255.12 279.146 241.126 271.146C227.133 263.147 212.042 263.217 207.42 271.302C202.798 279.387 210.395 292.426 224.389 300.426C238.383 308.425 253.473 308.355 258.095 300.27Z" fill="#FCCC6B"/>
<path d="M244.715 306.543C231.528 306.543 215.53 297.463 208.829 286.006C202.127 274.548 207.532 265.252 220.719 265.252C233.906 265.252 249.903 274.332 256.604 285.789C263.306 297.247 258.118 306.543 244.715 306.543Z" fill="url(#paint27_radial_51_2343)"/>
<path d="M225.691 298.544C220.07 295.301 215.314 290.978 212.504 286.222C209.694 281.466 209.261 277.142 211.207 273.683C213.152 270.225 217.26 268.495 222.664 268.495C233.906 268.495 247.525 276.278 252.929 285.789C255.74 290.545 256.172 294.869 254.227 298.328C252.281 301.787 248.174 303.516 242.769 303.516C237.365 303.516 231.312 301.571 225.691 298.544ZM239.526 273.683C234.122 270.657 228.069 268.711 222.664 268.711C217.476 268.711 213.585 270.441 211.639 273.683C209.91 276.926 210.342 281.25 212.936 285.789C218.557 295.301 231.96 302.868 242.985 302.868C248.173 302.868 252.065 301.138 254.01 297.896C255.74 294.653 255.307 290.329 252.713 285.789C249.903 281.034 244.931 276.71 239.526 273.683Z" fill="#F4A856"/>
<path d="M242.985 303.084C231.96 303.084 218.341 295.518 212.72 285.79C207.1 276.278 211.639 268.495 222.664 268.279C233.69 268.279 247.309 275.845 252.93 285.573C258.334 295.301 254.01 303.084 242.985 303.084Z" fill="url(#paint28_radial_51_2343)"/>
<path d="M222.016 269.576C233.041 269.576 246.66 277.142 252.281 286.87C254.875 291.41 255.307 295.518 253.794 298.544C255.956 295.301 255.74 290.762 252.929 285.789C247.309 276.278 233.906 268.495 222.664 268.495C216.827 268.495 212.936 270.657 211.207 274.116C213.152 271.305 216.827 269.576 222.016 269.576Z" fill="#F4A856"/>
<path d="M245.363 305.462C232.176 305.462 216.179 296.382 209.477 284.925C206.235 279.52 205.802 274.548 207.748 270.873C205.37 274.764 205.586 279.953 209.045 286.006C215.747 297.463 231.744 306.543 244.931 306.543C251.848 306.543 256.604 303.948 258.55 299.841C256.172 303.3 251.632 305.462 245.363 305.462Z" fill="#FCE586"/>
<path d="M252.497 351.507L252.281 354.318C249.903 353.021 246.877 352.156 242.985 352.156C229.798 351.94 213.585 361.019 206.883 372.477C204.938 375.719 204.073 378.53 203.857 381.34L201.263 380.259L203.857 384.799C206.019 388.69 210.558 391.068 217.26 391.284C230.447 391.5 246.66 382.421 253.362 370.963C256.821 365.343 257.037 360.154 255.091 356.263L252.497 351.507Z" fill="#F4A856"/>
<path d="M250.984 366.208C244.282 377.449 228.069 386.529 214.882 386.529C201.695 386.312 196.507 377.017 203.208 365.775C209.91 354.534 226.123 345.455 239.31 345.455C252.497 345.455 257.685 354.75 250.984 366.208Z" fill="#FCCC6B"/>
<path d="M250.984 366.208C244.282 377.449 228.069 386.529 214.882 386.529C201.695 386.312 196.507 377.017 203.208 365.775C209.91 354.534 226.123 345.455 239.31 345.455C252.497 345.455 257.685 354.75 250.984 366.208Z" fill="url(#paint29_radial_51_2343)"/>
<path d="M234.338 378.314C228.718 381.556 222.448 383.286 216.828 383.286C211.423 383.286 207.316 381.34 205.37 377.881C203.425 374.423 203.857 370.099 206.667 365.343C212.288 355.831 226.123 348.049 237.149 348.265C242.553 348.265 246.66 350.211 248.606 353.669C250.552 357.128 250.119 361.452 247.309 366.208C244.499 370.964 239.743 375.287 234.338 378.314ZM220.07 353.886C214.666 356.912 209.91 361.236 207.316 365.775C204.722 370.315 204.073 374.639 206.019 377.881C207.748 381.124 211.639 382.854 217.044 383.07C228.069 383.286 241.472 375.72 247.093 366.208C249.687 361.668 250.335 357.344 248.39 354.102C246.66 350.859 242.769 349.13 237.365 348.913C231.744 348.913 225.475 350.643 220.07 353.886Z" fill="#F4A856"/>
<path d="M247.093 366.208C241.472 375.719 227.853 383.286 216.827 383.286C205.802 383.07 201.263 375.287 207.099 365.775C212.72 356.263 226.339 348.697 237.364 348.697C248.39 348.697 252.713 356.696 247.093 366.208Z" fill="url(#paint30_radial_51_2343)"/>
<path d="M207.532 366.64C213.152 357.128 226.772 349.562 237.797 349.562C242.985 349.562 246.876 351.507 248.606 354.318C246.876 350.859 242.985 348.697 237.148 348.481C226.123 348.265 212.504 356.047 206.883 365.559C203.857 370.531 203.641 375.071 205.802 378.313C204.505 375.287 204.938 371.18 207.532 366.64Z" fill="#F4A856"/>
<path d="M250.335 365.127C243.634 376.368 227.42 385.448 214.233 385.448C207.964 385.448 203.424 383.286 201.263 379.611C203.208 383.718 207.964 386.312 214.882 386.312C228.069 386.528 244.282 377.449 250.984 365.991C254.443 360.155 254.659 354.75 252.281 350.859C254.01 354.75 253.578 359.722 250.335 365.127Z" fill="#FCE586"/>
<path d="M79.3378 351.724C78.2569 351.724 77.3922 351.508 76.5275 350.859L0.864717 307.191C0.216179 306.975 0 306.542 0 306.11C0 305.678 0.216179 305.245 0.648538 304.813L67.6641 266.117L68.3127 267.198L1.29708 305.894L76.9598 349.778C78.2569 350.643 79.9863 350.643 81.2834 349.778L126.465 323.837C128.194 322.756 130.572 322.756 132.302 323.837L150.893 334.646L150.245 335.726L131.653 324.917C130.356 324.053 128.627 324.053 127.33 324.917L82.1481 350.859C81.2834 351.508 80.2025 351.724 79.3378 351.724Z" fill="white"/>
<path d="M417.875 287.302L347.4 211.64L276.71 205.803C276.71 205.803 265.469 301.354 347.184 402.742C429.116 395.824 417.875 287.302 417.875 287.302Z" fill="url(#paint31_linear_51_2343)"/>
<path d="M276.71 205.803L260.928 214.882L331.403 220.719L347.4 211.423L276.71 205.803Z" fill="url(#paint32_linear_51_2343)"/>
<path d="M401.878 296.382L331.403 220.719L302.435 217.693L260.929 214.882C260.929 214.882 249.687 310.434 331.403 411.822C413.335 405.12 401.878 296.382 401.878 296.382Z" fill="url(#paint33_linear_51_2343)"/>
<path d="M401.877 296.382L331.403 220.719L260.928 215.098C262.874 214.017 262.874 214.017 262.874 214.017L334.429 219.854L404.904 295.517C404.904 295.517 414.416 386.312 353.453 407.282C411.173 384.367 401.877 296.382 401.877 296.382Z" fill="white"/>
<path opacity="0.2" d="M393.447 297.463L330.106 229.366L303.948 226.772L266.549 224.178C266.549 224.178 256.389 310.217 329.89 401.229C403.607 395.176 393.447 297.463 393.447 297.463Z" fill="white"/>
</g>
<defs>
<linearGradient id="paint0_linear_51_2343" x1="94.6674" y1="199.332" x2="34.5453" y2="152.883" gradientUnits="userSpaceOnUse">
<stop stop-color="#59BDEF"/>
<stop offset="1" stop-color="#7BDAFF"/>
</linearGradient>
<linearGradient id="paint1_linear_51_2343" x1="94.9086" y1="221.488" x2="128.549" y2="221.488" gradientUnits="userSpaceOnUse">
<stop stop-color="#2573BA"/>
<stop offset="1" stop-color="#0063AD"/>
</linearGradient>
<linearGradient id="paint2_linear_51_2343" x1="52.5742" y1="218.98" x2="94.9086" y2="218.98" gradientUnits="userSpaceOnUse">
<stop stop-color="#3A9BD5"/>
<stop offset="1" stop-color="#2573BA"/>
</linearGradient>
<linearGradient id="paint3_linear_51_2343" x1="60.2779" y1="195.646" x2="78.6142" y2="195.646" gradientUnits="userSpaceOnUse">
<stop stop-color="#2573BA"/>
<stop offset="1" stop-color="#0063AD"/>
</linearGradient>
<linearGradient id="paint4_linear_51_2343" x1="71.9202" y1="202.364" x2="90.2563" y2="202.364" gradientUnits="userSpaceOnUse">
<stop stop-color="#2573BA"/>
<stop offset="1" stop-color="#0063AD"/>
</linearGradient>
<linearGradient id="paint5_linear_51_2343" x1="83.5751" y1="209.092" x2="101.911" y2="209.092" gradientUnits="userSpaceOnUse">
<stop stop-color="#2573BA"/>
<stop offset="1" stop-color="#0063AD"/>
</linearGradient>
<linearGradient id="paint6_linear_51_2343" x1="245.418" y1="224.29" x2="678.827" y2="224.29" gradientUnits="userSpaceOnUse">
<stop stop-color="#3A9BD5"/>
<stop offset="0.522" stop-color="#3088C8"/>
<stop offset="1" stop-color="#297BBF"/>
</linearGradient>
<linearGradient id="paint7_linear_51_2343" x1="209.999" y1="83.9189" x2="502.831" y2="233.841" gradientUnits="userSpaceOnUse">
<stop stop-color="#59BDEF"/>
<stop offset="1" stop-color="#7BDAFF"/>
</linearGradient>
<radialGradient id="paint8_radial_51_2343" cx="0" cy="0" r="1" gradientUnits="userSpaceOnUse" gradientTransform="translate(210.504 226.895) rotate(-51.5165) scale(41.7834 41.7834)">
<stop stop-color="#FCE586"/>
<stop offset="0.2273" stop-color="#FCDB7B"/>
<stop offset="0.6161" stop-color="#FCD06F"/>
<stop offset="1" stop-color="#FCCC6B"/>
</radialGradient>
<radialGradient id="paint9_radial_51_2343" cx="0" cy="0" r="1" gradientUnits="userSpaceOnUse" gradientTransform="translate(252.389 234.308) rotate(-51.5165) scale(99.395 99.395)">
<stop stop-color="#FCE586"/>
<stop offset="0.2273" stop-color="#FCDB7B"/>
<stop offset="0.6161" stop-color="#FCD06F"/>
<stop offset="1" stop-color="#FCCC6B"/>
</radialGradient>
<linearGradient id="paint10_linear_51_2343" x1="149.989" y1="149.087" x2="329.27" y2="149.087" gradientUnits="userSpaceOnUse">
<stop stop-color="#7BDAFF"/>
<stop offset="1" stop-color="#59BDEF"/>
</linearGradient>
<radialGradient id="paint11_radial_51_2343" cx="0" cy="0" r="1" gradientUnits="userSpaceOnUse" gradientTransform="translate(212.062 398.323) rotate(-17.0741) scale(41.7831 41.7831)">
<stop stop-color="#FCE586"/>
<stop offset="0.2273" stop-color="#FCDB7B"/>
<stop offset="0.6161" stop-color="#FCD06F"/>
<stop offset="1" stop-color="#FCCC6B"/>
</radialGradient>
<radialGradient id="paint12_radial_51_2343" cx="0" cy="0" r="1" gradientUnits="userSpaceOnUse" gradientTransform="translate(242.411 428.124) rotate(-17.0741) scale(99.3954 99.3954)">
<stop stop-color="#FCE586"/>
<stop offset="0.2273" stop-color="#FCDB7B"/>
<stop offset="0.6161" stop-color="#FCD06F"/>
<stop offset="1" stop-color="#FCCC6B"/>
</radialGradient>
<radialGradient id="paint13_radial_51_2343" cx="0" cy="0" r="1" gradientUnits="userSpaceOnUse" gradientTransform="translate(217.084 391.154) rotate(-17.0741) scale(41.7833 41.7833)">
<stop stop-color="#FCE586"/>
<stop offset="0.2273" stop-color="#FCDB7B"/>
<stop offset="0.6161" stop-color="#FCD06F"/>
<stop offset="1" stop-color="#FCCC6B"/>
</radialGradient>
<radialGradient id="paint14_radial_51_2343" cx="0" cy="0" r="1" gradientUnits="userSpaceOnUse" gradientTransform="translate(247.434 420.956) rotate(-17.0741) scale(99.3955)">
<stop stop-color="#FCE586"/>
<stop offset="0.2273" stop-color="#FCDB7B"/>
<stop offset="0.6161" stop-color="#FCD06F"/>
<stop offset="1" stop-color="#FCCC6B"/>
</radialGradient>
<radialGradient id="paint15_radial_51_2343" cx="0" cy="0" r="1" gradientUnits="userSpaceOnUse" gradientTransform="translate(255.64 426.783) rotate(-17.0741) scale(41.7831 41.7831)">
<stop stop-color="#FCE586"/>
<stop offset="0.2273" stop-color="#FCDB7B"/>
<stop offset="0.6161" stop-color="#FCD06F"/>
<stop offset="1" stop-color="#FCCC6B"/>
</radialGradient>
<radialGradient id="paint16_radial_51_2343" cx="0" cy="0" r="1" gradientUnits="userSpaceOnUse" gradientTransform="translate(285.99 456.584) rotate(-17.0741) scale(99.3955 99.3955)">
<stop stop-color="#FCE586"/>
<stop offset="0.2273" stop-color="#FCDB7B"/>
<stop offset="0.6161" stop-color="#FCD06F"/>
<stop offset="1" stop-color="#FCCC6B"/>
</radialGradient>
<radialGradient id="paint17_radial_51_2343" cx="0" cy="0" r="1" gradientUnits="userSpaceOnUse" gradientTransform="translate(197.131 436.931) rotate(-17.0741) scale(41.7831 41.7831)">
<stop stop-color="#FCE586"/>
<stop offset="0.2273" stop-color="#FCDB7B"/>
<stop offset="0.6161" stop-color="#FCD06F"/>
<stop offset="1" stop-color="#FCCC6B"/>
</radialGradient>
<radialGradient id="paint18_radial_51_2343" cx="0" cy="0" r="1" gradientUnits="userSpaceOnUse" gradientTransform="translate(227.481 466.732) rotate(-17.0741) scale(99.3954 99.3955)">
<stop stop-color="#FCE586"/>
<stop offset="0.2273" stop-color="#FCDB7B"/>
<stop offset="0.6161" stop-color="#FCD06F"/>
<stop offset="1" stop-color="#FCCC6B"/>
</radialGradient>
<radialGradient id="paint19_radial_51_2343" cx="0" cy="0" r="1" gradientUnits="userSpaceOnUse" gradientTransform="translate(224.813 426.172) rotate(-17.0741) scale(41.7831 41.7831)">
<stop stop-color="#FCE586"/>
<stop offset="0.2273" stop-color="#FCDB7B"/>
<stop offset="0.6161" stop-color="#FCD06F"/>
<stop offset="1" stop-color="#FCCC6B"/>
</radialGradient>
<radialGradient id="paint20_radial_51_2343" cx="0" cy="0" r="1" gradientUnits="userSpaceOnUse" gradientTransform="translate(255.163 455.974) rotate(-17.0741) scale(99.3957 99.3957)">
<stop stop-color="#FCE586"/>
<stop offset="0.2273" stop-color="#FCDB7B"/>
<stop offset="0.6161" stop-color="#FCD06F"/>
<stop offset="1" stop-color="#FCCC6B"/>
</radialGradient>
<radialGradient id="paint21_radial_51_2343" cx="0" cy="0" r="1" gradientUnits="userSpaceOnUse" gradientTransform="translate(232.38 420.324) rotate(-17.0741) scale(41.7831 41.7831)">
<stop stop-color="#FCE586"/>
<stop offset="0.2273" stop-color="#FCDB7B"/>
<stop offset="0.6161" stop-color="#FCD06F"/>
<stop offset="1" stop-color="#FCCC6B"/>
</radialGradient>
<radialGradient id="paint22_radial_51_2343" cx="0" cy="0" r="1" gradientUnits="userSpaceOnUse" gradientTransform="translate(262.729 450.125) rotate(-17.0741) scale(99.3957 99.3957)">
<stop stop-color="#FCE586"/>
<stop offset="0.2273" stop-color="#FCDB7B"/>
<stop offset="0.6161" stop-color="#FCD06F"/>
<stop offset="1" stop-color="#FCCC6B"/>
</radialGradient>
<radialGradient id="paint23_radial_51_2343" cx="0" cy="0" r="1" gradientUnits="userSpaceOnUse" gradientTransform="translate(236.388 409.077) rotate(-17.0741) scale(41.7831 41.7831)">
<stop stop-color="#FCE586"/>
<stop offset="0.2273" stop-color="#FCDB7B"/>
<stop offset="0.6161" stop-color="#FCD06F"/>
<stop offset="1" stop-color="#FCCC6B"/>
</radialGradient>
<radialGradient id="paint24_radial_51_2343" cx="0" cy="0" r="1" gradientUnits="userSpaceOnUse" gradientTransform="translate(266.738 438.879) rotate(-17.0741) scale(99.3954 99.3954)">
<stop stop-color="#FCE586"/>
<stop offset="0.2273" stop-color="#FCDB7B"/>
<stop offset="0.6161" stop-color="#FCD06F"/>
<stop offset="1" stop-color="#FCCC6B"/>
</radialGradient>
<radialGradient id="paint25_radial_51_2343" cx="0" cy="0" r="1" gradientUnits="userSpaceOnUse" gradientTransform="translate(259.586 404.484) rotate(-5.26135) scale(41.783 41.783)">
<stop stop-color="#FCE586"/>
<stop offset="0.2273" stop-color="#FCDB7B"/>
<stop offset="0.6161" stop-color="#FCD06F"/>
<stop offset="1" stop-color="#FCCC6B"/>
</radialGradient>
<radialGradient id="paint26_radial_51_2343" cx="0" cy="0" r="1" gradientUnits="userSpaceOnUse" gradientTransform="translate(283.192 439.867) rotate(-5.26134) scale(99.3956 99.3956)">
<stop stop-color="#FCE586"/>
<stop offset="0.2273" stop-color="#FCDB7B"/>
<stop offset="0.6161" stop-color="#FCD06F"/>
<stop offset="1" stop-color="#FCCC6B"/>
</radialGradient>
<radialGradient id="paint27_radial_51_2343" cx="0" cy="0" r="1" gradientUnits="userSpaceOnUse" gradientTransform="translate(222.803 269.12) rotate(12.4213) scale(41.7832 41.7833)">
<stop stop-color="#FCE586"/>
<stop offset="0.2273" stop-color="#FCDB7B"/>
<stop offset="0.6161" stop-color="#FCD06F"/>
<stop offset="1" stop-color="#FCCC6B"/>
</radialGradient>
<radialGradient id="paint28_radial_51_2343" cx="0" cy="0" r="1" gradientUnits="userSpaceOnUse" gradientTransform="translate(234.546 310.003) rotate(12.4213) scale(99.3952 99.3952)">
<stop stop-color="#FCE586"/>
<stop offset="0.2273" stop-color="#FCDB7B"/>
<stop offset="0.6161" stop-color="#FCD06F"/>
<stop offset="1" stop-color="#FCCC6B"/>
</radialGradient>
<radialGradient id="paint29_radial_51_2343" cx="0" cy="0" r="1" gradientUnits="userSpaceOnUse" gradientTransform="translate(207.526 365.826) rotate(-46.6167) scale(41.7833)">
<stop stop-color="#FCE586"/>
<stop offset="0.2273" stop-color="#FCDB7B"/>
<stop offset="0.6161" stop-color="#FCD06F"/>
<stop offset="1" stop-color="#FCCC6B"/>
</radialGradient>
<radialGradient id="paint30_radial_51_2343" cx="0" cy="0" r="1" gradientUnits="userSpaceOnUse" gradientTransform="translate(248.624 376.789) rotate(-46.6167) scale(99.3951 99.3951)">
<stop stop-color="#FCE586"/>
<stop offset="0.2273" stop-color="#FCDB7B"/>
<stop offset="0.6161" stop-color="#FCD06F"/>
<stop offset="1" stop-color="#FCCC6B"/>
</radialGradient>
<linearGradient id="paint31_linear_51_2343" x1="326.906" y1="285.923" x2="538.911" y2="350.979" gradientUnits="userSpaceOnUse">
<stop stop-color="#2573BA"/>
<stop offset="0.907" stop-color="#0364AE"/>
<stop offset="1" stop-color="#0063AD"/>
</linearGradient>
<linearGradient id="paint32_linear_51_2343" x1="347.304" y1="213.243" x2="260.922" y2="213.243" gradientUnits="userSpaceOnUse">
<stop stop-color="#0063AD"/>
<stop offset="1" stop-color="#2573BA"/>
</linearGradient>
<linearGradient id="paint33_linear_51_2343" x1="260.389" y1="275.292" x2="402.486" y2="275.292" gradientUnits="userSpaceOnUse">
<stop stop-color="#7BDAFF"/>
<stop offset="1" stop-color="#59BDEF"/>
</linearGradient>
<clipPath id="clip0_51_2343">
<rect width="508.886" height="506.292" fill="white"/>
</clipPath>
</defs>
</svg>
