<svg width="68" height="68" viewBox="0 0 68 68" fill="none" xmlns="http://www.w3.org/2000/svg">
<rect width="68" height="68" rx="34" fill="#2F80ED"/>
<path d="M34.3334 32.5999C37.8385 32.5999 40.68 29.5312 40.68 25.7457C40.68 21.9603 37.8385 18.8915 34.3334 18.8915C30.8282 18.8915 27.9867 21.9603 27.9867 25.7457C27.9867 29.5312 30.8282 32.5999 34.3334 32.5999Z" fill="#1F2230"/>
<path d="M24.7067 26.4311H25.3467V25.804C25.3506 23.9805 25.8209 22.1946 26.7045 20.6483C27.5882 19.102 28.8498 17.8569 30.3467 17.054C29.9035 15.9378 29.1922 14.9736 28.2883 14.264C27.3844 13.5544 26.3217 13.1258 25.213 13.0237C24.1042 12.9217 22.9909 13.15 21.9913 13.6844C20.9917 14.2188 20.1431 15.0393 19.5356 16.0589C18.9281 17.0784 18.5844 18.2589 18.541 19.475C18.4977 20.691 18.7563 21.8972 19.2893 22.9654C19.8224 24.0336 20.61 24.9239 21.5685 25.5418C22.5271 26.1598 23.6207 26.4822 24.7334 26.4749L24.7067 26.4311ZM43.3467 25.7457V26.3728H43.9867C45.0845 26.3607 46.159 26.0252 47.0972 25.4015C48.0354 24.7779 48.8024 23.8891 49.3177 22.8288C49.833 21.7684 50.0774 20.5758 50.0252 19.3764C49.973 18.1769 49.6261 17.0151 49.0211 16.0131C48.416 15.0111 47.5752 14.2061 46.5872 13.6827C45.5991 13.1593 44.5003 12.9369 43.4064 13.039C42.3125 13.141 41.264 13.5638 40.3712 14.2626C39.4785 14.9615 38.7745 15.9107 38.3334 17.0103C39.8307 17.81 41.0937 19.0519 41.9797 20.5956C42.8656 22.1392 43.3391 23.9231 43.3467 25.7457ZM40.0534 33.2853C42.7044 33.8592 45.2676 34.8412 47.6667 36.202C48.0047 36.405 48.3108 36.666 48.5734 36.9749H55.6667V31.9874C55.668 31.7961 55.6215 31.608 55.5322 31.4436C55.4429 31.2791 55.3142 31.1444 55.16 31.054C51.7042 29.077 47.86 28.0509 43.96 28.0645H43.08C42.6179 30.1188 41.5552 31.952 40.0534 33.2853ZM19.04 39.804C19.0376 39.0696 19.2189 38.3484 19.5644 37.7186C19.9099 37.0888 20.4064 36.5744 21 36.2311C23.3991 34.8704 25.9623 33.8884 28.6134 33.3145C27.1188 31.9925 26.0567 30.1759 25.5867 28.1374H24.7067C20.8067 28.1238 16.9625 29.1499 13.5067 31.127C13.3525 31.2173 13.2238 31.352 13.1345 31.5165C13.0452 31.681 12.9987 31.869 13 32.0603V41.379H19.04V39.804ZM38.9467 48.2186H46.8934V50.2603H38.9467V48.2186Z" fill="#1F2230"/>
<path d="M54.08 40.2999H44.92V38.8415C44.92 38.4548 44.7795 38.0838 44.5295 37.8103C44.2795 37.5369 43.9403 37.3832 43.5867 37.3832C43.2331 37.3832 42.8939 37.5369 42.6439 37.8103C42.3938 38.0838 42.2534 38.4548 42.2534 38.8415V40.2999H39.6667V36.1728C37.9125 35.7699 36.1258 35.5598 34.3334 35.5457C30.125 35.5265 25.9768 36.6383 22.2534 38.7832C22.0875 38.8773 21.9487 39.0197 21.8522 39.1947C21.7557 39.3698 21.7054 39.5705 21.7067 39.7749V47.9561H31.1867V56.8374C31.1867 57.2241 31.3272 57.5951 31.5772 57.8686C31.8273 58.1421 32.1664 58.2957 32.52 58.2957H54.08C54.4336 58.2957 54.7728 58.1421 55.0228 57.8686C55.2729 57.5951 55.4134 57.2241 55.4134 56.8374V41.7582C55.4134 41.3714 55.2729 41.0005 55.0228 40.727C54.7728 40.4535 54.4336 40.2999 54.08 40.2999ZM52.7467 55.4082H33.8534V43.2165H42.2534V44.5436C42.2534 44.9304 42.3938 45.3013 42.6439 45.5748C42.8939 45.8483 43.2331 46.002 43.5867 46.002C43.9403 46.002 44.2795 45.8483 44.5295 45.5748C44.7795 45.3013 44.92 44.9304 44.92 44.5436V43.2165H52.7467V55.4082Z" fill="#1F2230"/>
</svg>
