<svg width="68" height="68" viewBox="0 0 68 68" fill="none" xmlns="http://www.w3.org/2000/svg">
<rect width="68" height="68" rx="34" fill="#FFB74A"/>
<path d="M22.1562 12C20.7887 12 19.4772 12.5037 18.5102 13.4004C17.5432 14.2971 17 15.5132 17 16.7812V49.7188C17 50.9868 17.5432 52.2029 18.5102 53.0996C19.4772 53.9963 20.7887 54.5 22.1562 54.5H39.3437C40.703 54.5001 42.0072 54.0024 42.9729 53.1154C43.9385 52.2284 44.4873 51.0237 44.5 49.7634V46.5334C44.5 46.1107 44.3189 45.7053 43.9966 45.4064C43.6743 45.1075 43.2371 44.9396 42.7812 44.9396C41.7408 44.9396 41.0854 44.6782 40.634 44.3404C40.1573 43.9855 39.7631 43.4372 39.4652 42.6637C38.8396 41.0594 38.7708 38.945 38.7708 36.9688C38.7708 36.5648 38.6053 36.1759 38.3079 35.8808L37.9321 35.5046C37.8085 35.3765 37.6785 35.2538 37.5425 35.137C37.3729 34.9882 36.855 34.5314 34.8292 32.655C33.7567 31.6584 33.1608 30.8169 32.966 30.173C32.8879 29.9498 32.8761 29.7113 32.9317 29.4824C33.0172 29.2184 33.1788 28.981 33.3992 28.796C33.5979 28.5918 33.8531 28.4419 34.1371 28.3625C34.3834 28.3117 34.6399 28.3234 34.8796 28.3965C35.574 28.5771 36.4815 29.1318 37.5562 30.1284C38.7937 31.2759 39.9671 32.3511 41.019 33.3159C42.7606 34.9139 44.1677 36.2059 44.9606 36.9921C45.2715 37.3015 45.7022 37.4838 46.158 37.4987C46.6138 37.5136 47.0573 37.3601 47.3909 37.0718C47.7246 36.7835 47.9211 36.3842 47.9372 35.9615C47.9534 35.5389 47.7878 35.1277 47.4769 34.8183C46.5007 33.8722 45.5075 32.9413 44.4977 32.026V24.8775L51.0106 30.9168C51.9777 31.8135 52.5208 33.029 52.5208 34.2955V52.9062C52.5208 53.3289 52.7019 53.7343 53.0242 54.0332C53.3466 54.3321 53.7837 54.5 54.2396 54.5C54.6954 54.5 55.1326 54.3321 55.4549 54.0332C55.7772 53.7343 55.9583 53.3289 55.9583 52.9062V34.2976C55.9585 33.2511 55.7364 32.2147 55.3047 31.2478C54.873 30.2809 54.24 29.4022 53.4421 28.6621L44.5 20.3704V16.7791C44.4994 15.5114 43.9559 14.2958 42.989 13.3996C42.022 12.5034 40.7109 12 39.3437 12H22.1562ZM38.4798 46.8245C39.2339 47.3838 40.1182 47.7723 41.0625 47.9593V48.125H39.3437C38.8879 48.125 38.4507 48.2929 38.1284 48.5918C37.8061 48.8907 37.625 49.2961 37.625 49.7188V51.3125H34.1875V49.7188C34.1875 47.8211 35.3792 46.1806 37.1094 45.4092C37.476 45.9277 37.9275 46.4123 38.4798 46.8245ZM35.3356 37.5977C35.3402 38.1354 35.354 38.7155 35.3883 39.319C34.3212 40.0199 33.0855 40.4682 31.7889 40.6249C30.4922 40.7816 29.1738 40.642 27.9487 40.2181C26.7235 39.7943 25.6287 39.0991 24.7595 38.1932C23.8904 37.2872 23.2733 36.198 22.962 35.0203C22.6507 33.8426 22.6546 32.6122 22.9735 31.4362C23.2924 30.2603 23.9164 29.1744 24.7914 28.2733C25.6663 27.3722 26.7656 26.6831 27.9935 26.266C29.2214 25.849 30.5406 25.7166 31.8362 25.8805C31.5292 26.0696 31.2404 26.2906 30.9677 26.5435C30.2985 27.164 29.8242 27.8823 29.6019 28.6898C29.3773 29.4973 29.4323 30.292 29.6569 31.0358C30.0923 32.4659 31.1808 33.7791 32.4 34.9096C33.3328 35.7845 34.2778 36.648 35.2348 37.5L35.244 37.5064L35.3265 37.5892L35.3356 37.5977ZM23.875 15.1875H27.3125V16.7812C27.3125 18.0493 26.7693 19.2654 25.8023 20.1621C24.8353 21.0588 23.5238 21.5625 22.1562 21.5625H20.4375V18.375H22.1562C22.6121 18.375 23.0493 18.2071 23.3716 17.9082C23.6939 17.6093 23.875 17.2039 23.875 16.7812V15.1875ZM34.1875 15.1875H37.625V16.7812C37.625 17.661 38.395 18.375 39.3437 18.375H41.0625V21.5625H39.3437C37.9762 21.5625 36.6647 21.0588 35.6977 20.1621C34.7307 19.2654 34.1875 18.0493 34.1875 16.7812V15.1875ZM27.3125 51.3125H23.875V49.7188C23.875 49.2961 23.6939 48.8907 23.3716 48.5918C23.0493 48.2929 22.6121 48.125 22.1562 48.125H20.4375V44.9375H22.1562C23.5238 44.9375 24.8353 45.4412 25.8023 46.3379C26.7693 47.2346 27.3125 48.4507 27.3125 49.7188V51.3125Z" fill="#1F2230"/>
</svg>
