<svg width="68" height="68" viewBox="0 0 68 68" fill="none" xmlns="http://www.w3.org/2000/svg">
<path d="M0 34C0 15.2223 15.2223 0 34 0C52.7777 0 68 15.2223 68 34C68 52.7777 52.7777 68 34 68C15.2223 68 0 52.7777 0 34Z" fill="#FF4A55"/>
<path d="M42.4583 34.3333C37.5133 34.3333 33.5 38.0667 33.5 42.6667C33.5 47.2667 37.5133 51 42.4583 51C47.4033 51 51.4167 47.2667 51.4167 42.6667C51.4167 38.0667 47.4033 34.3333 42.4583 34.3333ZM45.4146 46.5833L41.5625 43V37.6667H43.3542V42.3167L46.6688 45.4L45.4146 46.5833ZM44.25 19.3333H38.5525C37.8 17.4 35.8292 16 33.5 16C31.1708 16 29.2 17.4 28.4475 19.3333H22.75C20.7792 19.3333 19.1667 20.8333 19.1667 22.6667V47.6667C19.1667 49.5 20.7792 51 22.75 51H33.6971C32.6371 50.0429 31.7748 48.9131 31.1529 47.6667H22.75V22.6667H26.3333V27.6667H40.6667V22.6667H44.25V31.1333C45.5221 31.3 46.7225 31.65 47.8333 32.1333V22.6667C47.8333 20.8333 46.2208 19.3333 44.25 19.3333ZM33.5 22.6667C32.5146 22.6667 31.7083 21.9167 31.7083 21C31.7083 20.0833 32.5146 19.3333 33.5 19.3333C34.4854 19.3333 35.2917 20.0833 35.2917 21C35.2917 21.9167 34.4854 22.6667 33.5 22.6667Z" fill="#1F2230"/>
</svg>
