<svg width="68" height="68" viewBox="0 0 68 68" fill="none" xmlns="http://www.w3.org/2000/svg">
<rect width="68" height="68" rx="34" fill="#27AE60"/>
<path fill-rule="evenodd" clip-rule="evenodd" d="M34.0446 13C28.7701 13 23.9638 14.7408 21.1204 16.1631C20.8635 16.2914 20.6241 16.4175 20.4011 16.5388C19.9597 16.7791 19.5837 17.0032 19.2848 17.2004L22.5193 21.9584L24.042 22.564C29.9927 25.5637 37.9728 25.5637 43.9246 22.564L45.6528 21.6679L48.7122 17.2004C48.0784 16.7873 47.4193 16.4144 46.7388 16.0838C43.9106 14.6766 39.2199 13 34.0446 13ZM26.5211 18.3858C25.3757 18.1716 24.2444 17.888 23.1335 17.5364C25.7971 16.3544 29.7673 15.1002 34.0434 15.1002C37.0059 15.1002 39.8072 15.7022 42.124 16.4653C39.4091 16.8468 36.512 17.4944 33.7515 18.2913C31.5796 18.919 29.041 18.8513 26.5211 18.3858V18.3858ZM45.1577 24.2943L44.8716 24.439C38.3243 27.7386 29.6412 27.7386 23.0938 24.439L22.8229 24.3013C12.9885 35.0833 5.48011 55 34.0446 55C62.6068 55 54.9151 34.7111 45.1577 24.2943ZM32.8302 34.0018C32.2108 34.0018 31.6168 34.2476 31.1788 34.6852C30.7408 35.1228 30.4948 35.7164 30.4948 36.3353C30.4948 36.9542 30.7408 37.5477 31.1788 37.9853C31.6168 38.423 32.2108 38.6688 32.8302 38.6688V34.0018ZM35.1656 31.6682V30.5015H32.8302V31.6682C31.5914 31.6682 30.4034 32.1599 29.5274 33.0352C28.6515 33.9104 28.1593 35.0975 28.1593 36.3353C28.1593 37.5731 28.6515 38.7601 29.5274 39.6354C30.4034 40.5106 31.5914 41.0023 32.8302 41.0023V45.6694C32.3472 45.6695 31.8761 45.52 31.4817 45.2415C31.0872 44.9629 30.789 44.5691 30.6279 44.1141C30.5248 43.8223 30.3098 43.5834 30.0304 43.4499C29.751 43.3164 29.4299 43.2993 29.1379 43.4024C28.8458 43.5054 28.6067 43.7202 28.4731 43.9994C28.3396 44.2786 28.3225 44.5994 28.4256 44.8912C28.7477 45.8012 29.3442 46.5891 30.133 47.1464C30.9218 47.7037 31.8641 48.0029 32.8302 48.0029V49.1697H35.1656V48.0029C36.4044 48.0029 37.5924 47.5112 38.4684 46.636C39.3443 45.7607 39.8364 44.5736 39.8364 43.3359C39.8364 42.0981 39.3443 40.911 38.4684 40.0358C37.5924 39.1605 36.4044 38.6688 35.1656 38.6688V34.0018C36.1815 34.0018 37.0468 34.6493 37.3691 35.557C37.4169 35.7056 37.494 35.843 37.5959 35.9612C37.6978 36.0794 37.8224 36.176 37.9623 36.2452C38.1022 36.3145 38.2546 36.355 38.4105 36.3644C38.5663 36.3738 38.7225 36.3518 38.8697 36.2998C39.0169 36.2479 39.1522 36.1669 39.2675 36.0618C39.3829 35.9567 39.476 35.8295 39.5413 35.6878C39.6066 35.5461 39.6428 35.3927 39.6478 35.2368C39.6528 35.0809 39.6264 34.9255 39.5702 34.78C39.2481 33.8699 38.6516 33.082 37.8628 32.5248C37.074 31.9675 36.1317 31.6682 35.1656 31.6682ZM35.1656 41.0023V45.6694C35.785 45.6694 36.379 45.4235 36.817 44.9859C37.255 44.5483 37.501 43.9548 37.501 43.3359C37.501 42.717 37.255 42.1234 36.817 41.6858C36.379 41.2482 35.785 41.0023 35.1656 41.0023Z" fill="#1F2230"/>
</svg>
